<svg width="140" height="140" viewBox="0 0 140 140" fill="none" xmlns="http://www.w3.org/2000/svg">
<circle cx="70" cy="70" r="70" fill="#C7F268"/>
<path d="M70.4778 20.3288L70.6092 18.7534L73.524 16.7862C73.7326 16.6409 73.9706 16.48 74.238 16.3033C74.5154 16.1185 74.7799 15.9193 75.0316 15.7057C75.2927 15.4927 75.5083 15.2629 75.6786 15.0162C75.8582 14.7701 75.9595 14.5091 75.9825 14.2332C76.0144 13.8505 75.9149 13.5294 75.6839 13.2699C75.4623 13.0111 75.1144 12.8635 74.6402 12.8273C74.194 12.7932 73.8325 12.864 73.5559 13.04C73.2893 13.2077 73.1112 13.4359 73.0216 13.7247L71.0971 13.5775C71.2056 12.9498 71.4443 12.4441 71.8132 12.0602C72.1921 11.6682 72.6503 11.3897 73.188 11.2248C73.7258 11.0599 74.2828 10.9995 74.8592 11.0436C75.4821 11.0912 76.0399 11.2458 76.5327 11.5075C77.0255 11.7691 77.4028 12.1249 77.6646 12.5748C77.9272 13.0159 78.0325 13.548 77.9806 14.171C77.936 14.7051 77.7886 15.182 77.5384 15.6018C77.2982 16.0133 76.9813 16.3922 76.5875 16.7383C76.1945 17.0755 75.7561 17.3958 75.2723 17.6992L73.6091 18.7947L77.5556 19.0965L77.4086 20.8588L70.4778 20.3288Z" fill="#033F2D"/>
<path d="M82.5591 22.0387C82.1069 21.9298 81.6999 21.7766 81.3383 21.5791C80.9789 21.3729 80.675 21.1202 80.4266 20.821C80.1873 20.524 80.0091 20.1773 79.892 19.7808C79.784 19.3866 79.7563 18.9426 79.8091 18.4489L81.7221 18.9094C81.7308 19.0956 81.7871 19.2841 81.8909 19.4748C81.9947 19.6655 82.1426 19.8346 82.3347 19.9821C82.5358 20.1318 82.7765 20.2404 83.0569 20.3079C83.4007 20.3906 83.7049 20.404 83.9696 20.3481C84.2366 20.2834 84.4607 20.1625 84.6419 19.9851C84.8231 19.8078 84.9513 19.5762 85.0263 19.2904C85.14 18.8575 85.0863 18.4763 84.8651 18.1468C84.6552 17.8109 84.2924 17.5808 83.7769 17.4567C83.4784 17.3849 83.1843 17.3694 82.8948 17.4101C82.6165 17.4444 82.337 17.5199 82.0564 17.6364L80.4011 17.238L81.9625 12.0069L88.2849 13.5287L87.838 15.2303L83.3472 14.1493L82.7475 15.9936C83.0666 15.8771 83.4116 15.8267 83.7825 15.8423C84.1648 15.8515 84.5312 15.9028 84.8816 15.9964C85.5012 16.1639 85.9962 16.4212 86.3667 16.7682C86.7372 17.1151 86.9786 17.5323 87.091 18.0197C87.2125 18.5093 87.1971 19.0442 87.0447 19.6244C86.8605 20.3258 86.5408 20.8841 86.0855 21.2993C85.6393 21.7167 85.1074 21.9846 84.4897 22.1029C83.881 22.2234 83.2375 22.202 82.5591 22.0387Z" fill="#033F2D"/>
<path d="M90.8674 22.7302L91.7801 20.7295L89.7545 19.8825L90.46 18.336L92.4856 19.183L93.3927 17.1946L94.9952 17.8647L94.0881 19.8531L96.1137 20.7001L95.4082 22.2466L93.3826 21.3996L92.4699 23.4002L90.8674 22.7302Z" fill="#033F2D"/>
<path d="M99.0807 33.0367C98.6278 32.7071 98.2313 32.3287 97.8909 31.9015C97.5506 31.4743 97.2984 30.9879 97.1343 30.4422L98.606 29.629C98.7081 29.9726 98.8718 30.3049 99.0972 30.6259C99.3169 30.9541 99.6124 31.2533 99.9836 31.5235C100.555 31.9396 101.08 32.1197 101.558 32.0638C102.043 32.0132 102.478 31.7463 102.862 31.2629L103.099 30.9644C102.843 31.036 102.579 31.0513 102.307 31.0103C102.048 30.9676 101.794 30.8893 101.544 30.7752C101.295 30.6611 101.063 30.5257 100.848 30.369C100.283 29.9583 99.9209 29.5149 99.76 29.0389C99.5991 28.5629 99.5959 28.0726 99.7504 27.5682C99.9181 27.0621 100.202 26.5567 100.603 26.052L103.05 22.9707L104.609 24.1055L102.408 26.8777C102.261 27.0625 102.125 27.2554 102.001 27.4564C101.876 27.6574 101.793 27.8658 101.75 28.0817C101.708 28.2975 101.729 28.5146 101.813 28.733C101.903 28.9443 102.085 29.1499 102.36 29.3498C102.716 29.6092 103.049 29.722 103.357 29.6883C103.67 29.6474 103.958 29.5206 104.221 29.3079C104.491 29.1007 104.736 28.8584 104.956 28.5812L107.081 25.9051L108.641 27.0399L104.822 31.8485C104.416 32.3602 103.994 32.788 103.557 33.1317C103.127 33.4808 102.675 33.7182 102.201 33.8438C101.733 33.9748 101.241 33.9753 100.723 33.8453C100.207 33.7277 99.6598 33.4582 99.0807 33.0367Z" fill="#033F2D"/>
<path d="M107.617 36.1441C107.086 35.6052 106.746 35.0464 106.599 34.4675C106.451 33.8887 106.482 33.3147 106.69 32.7457C106.905 32.1705 107.287 31.6346 107.837 31.1381C108.393 30.6354 108.98 30.301 109.598 30.1348C110.224 29.9624 110.841 29.9573 111.45 30.1193C112.065 30.2877 112.628 30.6317 113.141 31.151C113.525 31.5406 113.793 31.9427 113.946 32.3575C114.105 32.7787 114.161 33.2003 114.116 33.6222C114.076 34.0507 113.942 34.4607 113.713 34.8523C113.496 35.2443 113.198 35.6057 112.819 35.9363C112.724 36.0221 112.629 36.1017 112.535 36.1749C112.44 36.2481 112.339 36.3148 112.232 36.375L108.765 32.8595C108.581 33.0629 108.448 33.2866 108.369 33.5308C108.289 33.7749 108.278 34.0241 108.336 34.2784C108.408 34.533 108.565 34.7836 108.809 35.0303C108.969 35.1927 109.133 35.3266 109.301 35.4323C109.476 35.5319 109.653 35.5936 109.83 35.6174C110.008 35.6412 110.17 35.6236 110.317 35.5644L111.642 36.9083C111.159 37.1856 110.673 37.3238 110.185 37.3231C109.703 37.3288 109.241 37.2245 108.799 37.0103C108.363 36.7899 107.97 36.5011 107.617 36.1441ZM109.79 31.9876L111.99 34.2176C112.167 34.0456 112.291 33.8469 112.364 33.6215C112.45 33.3965 112.46 33.1599 112.395 32.9118C112.343 32.664 112.196 32.4168 111.952 32.1701C111.709 31.9234 111.453 31.7616 111.185 31.6848C110.923 31.6144 110.669 31.6106 110.423 31.6733C110.19 31.7364 109.979 31.8412 109.79 31.9876Z" fill="#033F2D"/>
<path d="M112.237 41.5659C112.048 41.3003 111.899 41.0194 111.79 40.7233C111.694 40.4295 111.654 40.1365 111.672 39.8441C111.689 39.5516 111.774 39.2747 111.927 39.0131C112.079 38.7516 112.309 38.5202 112.618 38.319C113.034 38.0475 113.423 37.9123 113.785 37.9137C114.155 37.9101 114.503 38.002 114.828 38.1895C115.153 38.3769 115.465 38.6327 115.764 38.9566C116.067 39.288 116.356 39.6455 116.629 40.0291L117.228 40.8702C117.451 40.7243 117.619 40.5555 117.73 40.3637C117.855 40.1742 117.909 39.9719 117.891 39.7566C117.881 39.5363 117.789 39.3044 117.616 39.0609C117.505 38.906 117.374 38.7698 117.223 38.6524C117.085 38.5374 116.943 38.4571 116.798 38.4115C116.652 38.3658 116.507 38.3685 116.363 38.4195L115.244 36.848C115.615 36.671 115.977 36.5857 116.332 36.5921C116.694 36.5934 117.039 36.6656 117.366 36.8084C117.694 36.9513 117.995 37.144 118.269 37.3865C118.556 37.6313 118.81 37.9086 119.031 38.2185C119.635 39.067 119.827 39.86 119.607 40.5978C119.395 41.3305 118.827 41.9986 117.902 42.6021L114.619 44.7446L113.626 43.3502L114.397 42.815C113.996 42.8066 113.649 42.7246 113.358 42.569C113.072 42.4207 112.837 42.2497 112.654 42.0558C112.471 41.862 112.332 41.6987 112.237 41.5659ZM113.773 41.0826C113.956 41.3409 114.179 41.5417 114.439 41.6853C114.699 41.8288 114.966 41.903 115.24 41.9077C115.515 41.9124 115.767 41.8393 115.999 41.6884L116.149 41.5904L115.392 40.528C115.282 40.373 115.167 40.2268 115.046 40.0893C114.931 39.9592 114.808 39.8502 114.678 39.7623C114.561 39.6768 114.432 39.631 114.292 39.625C114.153 39.6189 114.006 39.6662 113.852 39.7668C113.697 39.8674 113.593 39.9898 113.537 40.1339C113.495 40.2805 113.494 40.4378 113.535 40.6058C113.583 40.7687 113.662 40.9277 113.773 41.0826Z" fill="#033F2D"/>
<path d="M115.356 46.1235L121.933 42.9334L122.73 44.4388L122 44.9277C122.334 44.9659 122.616 45.0543 122.846 45.1929C123.085 45.3274 123.282 45.4922 123.437 45.687C123.601 45.8779 123.742 46.0848 123.86 46.3078C123.915 46.4114 123.961 46.509 123.999 46.6006C124.045 46.6882 124.079 46.7519 124.1 46.7918L122.416 47.609L122.207 47.2147C122.009 46.8404 121.769 46.5461 121.489 46.3319C121.208 46.1177 120.886 46.0035 120.523 45.9894C120.165 45.9832 119.765 46.0871 119.324 46.301L116.241 47.7962L115.356 46.1235Z" fill="#033F2D"/>
<path d="M118.614 53.3406C118.497 53.0297 118.412 52.6984 118.359 52.3465C118.306 51.9947 118.311 51.6514 118.374 51.3167C118.445 50.979 118.589 50.6636 118.806 50.3707C119.032 50.0746 119.353 49.8217 119.77 49.6117L120.442 51.4013C120.303 51.5061 120.2 51.6412 120.134 51.8065C120.07 51.9802 120.044 52.1602 120.054 52.3464C120.068 52.5409 120.108 52.7264 120.174 52.9029C120.218 53.0205 120.271 53.1351 120.333 53.2467C120.395 53.3583 120.471 53.4554 120.561 53.5381C120.652 53.6208 120.748 53.6779 120.849 53.7095C120.959 53.7381 121.079 53.7298 121.211 53.6844C121.351 53.6361 121.445 53.5563 121.493 53.445C121.54 53.3338 121.557 53.195 121.545 53.0287C121.54 52.8593 121.524 52.6705 121.495 52.4621C121.445 52.0904 121.394 51.6905 121.342 51.2624C121.29 50.8343 121.302 50.4456 121.379 50.0965C121.423 49.9486 121.48 49.8104 121.551 49.6817C121.621 49.553 121.711 49.4366 121.821 49.3324C121.93 49.2283 122.049 49.1352 122.177 49.0532C122.313 48.9682 122.465 48.897 122.632 48.8396C123.009 48.7096 123.358 48.6749 123.678 48.7355C124.01 48.8014 124.308 48.9359 124.573 49.1389C124.837 49.342 125.065 49.591 125.255 49.8861C125.454 50.1782 125.617 50.4922 125.743 50.8283C125.913 51.282 125.992 51.7293 125.979 52.1702C125.976 52.6081 125.859 53.009 125.629 53.3728C125.407 53.7337 125.053 54.0312 124.566 54.2653L123.932 52.5766C124.112 52.4764 124.223 52.3101 124.265 52.0776C124.315 51.842 124.286 51.5814 124.179 51.2958C124.141 51.1949 124.091 51.0887 124.03 50.9772C123.971 50.874 123.902 50.7837 123.824 50.7064C123.745 50.6291 123.655 50.5747 123.554 50.5431C123.462 50.5084 123.354 50.5123 123.231 50.5546C123.135 50.5878 123.057 50.6433 122.997 50.7209C122.94 50.8069 122.904 50.9094 122.889 51.0283C122.878 51.1557 122.878 51.3025 122.891 51.4689C122.928 51.7787 122.97 52.0871 123.016 52.3939C123.074 52.7061 123.114 52.9862 123.138 53.2342C123.181 53.5326 123.175 53.8194 123.12 54.0946C123.068 54.3782 122.946 54.6338 122.753 54.8612C122.573 55.0941 122.29 55.277 121.904 55.41C121.465 55.5611 121.07 55.6025 120.717 55.5342C120.373 55.4629 120.064 55.3132 119.79 55.0849C119.519 54.8651 119.285 54.5992 119.089 54.2873C118.895 53.9838 118.737 53.6683 118.614 53.3406Z" fill="#033F2D"/>
<path d="M121.287 64.3604C121.197 63.6244 121.273 62.982 121.515 62.4332C121.758 61.8845 122.14 61.4413 122.662 61.1039C123.193 60.7653 123.834 60.5538 124.584 60.4693C125.344 60.3838 126.024 60.4511 126.624 60.6712C127.233 60.8903 127.731 61.2388 128.118 61.7166C128.507 62.2033 128.745 62.8014 128.832 63.5108C128.897 64.0429 128.862 64.5189 128.726 64.9388C128.59 65.3676 128.373 65.7382 128.073 66.0507C127.775 66.372 127.411 66.6242 126.983 66.8073C126.565 66.9982 126.101 67.1179 125.59 67.1664C125.461 67.181 125.335 67.1906 125.214 67.1953C125.092 67.2 124.969 67.1958 124.846 67.1828L124.256 62.3809C123.981 62.4388 123.736 62.5428 123.519 62.693C123.303 62.8433 123.139 63.0371 123.027 63.2744C122.926 63.5196 122.896 63.8106 122.938 64.1476C122.965 64.3693 123.013 64.5707 123.082 64.7517C123.161 64.9316 123.264 65.0819 123.391 65.2024C123.519 65.3229 123.66 65.4014 123.814 65.4379L124.04 67.2735C123.479 67.2198 123.003 67.0531 122.612 66.7735C122.222 66.5028 121.916 66.1551 121.695 65.7305C121.483 65.3048 121.347 64.8481 121.287 64.3604ZM125.622 62.2674L125.997 65.3135C126.246 65.2765 126.47 65.1884 126.668 65.0491C126.878 64.9176 127.033 64.7338 127.136 64.4975C127.249 64.269 127.284 63.9863 127.243 63.6493C127.202 63.3123 127.097 63.0364 126.93 62.8214C126.764 62.6154 126.563 62.4672 126.326 62.377C126.1 62.2946 125.865 62.258 125.622 62.2674Z" fill="#033F2D"/>
<path d="M121.808 68.3863L125.48 70.974L129.172 68.7513L129.093 70.9332L126.722 72.2482L128.993 73.6905L128.917 75.8054L125.353 73.3285L121.543 75.7215L121.622 73.5397L124.096 72.0806L121.733 70.4744L121.808 68.3863Z" fill="#033F2D"/>
<path d="M118.722 75.747L128.665 77.5942L128.316 79.3166L127.391 79.2403C127.691 79.5871 127.887 79.9555 127.979 80.3455C128.069 80.7443 128.07 81.1628 127.981 81.6011C127.842 82.2848 127.563 82.8196 127.143 83.2054C126.723 83.5912 126.207 83.8409 125.594 83.9546C124.99 84.0787 124.339 84.0761 123.644 83.9469C122.93 83.8142 122.313 83.5768 121.793 83.2347C121.281 82.903 120.907 82.4743 120.671 81.9485C120.445 81.4244 120.402 80.8161 120.542 80.1236C120.603 79.8256 120.696 79.5519 120.823 79.3025C120.949 79.0532 121.093 78.8388 121.253 78.6593C121.422 78.4815 121.598 78.3369 121.782 78.2256L118.349 77.5877L118.722 75.747ZM122.337 80.1295C122.253 80.5415 122.284 80.8837 122.428 81.1561C122.572 81.4285 122.781 81.6401 123.055 81.7909C123.337 81.9435 123.639 82.0495 123.959 82.1091C124.307 82.1737 124.647 82.1823 124.98 82.135C125.313 82.0876 125.595 81.9583 125.828 81.7468C126.068 81.5459 126.23 81.2394 126.314 80.8275C126.388 80.4593 126.355 80.1303 126.215 79.8404C126.083 79.5521 125.879 79.3142 125.604 79.1266C125.328 78.939 125.017 78.8129 124.669 78.7482C124.321 78.6836 123.984 78.6846 123.656 78.7512C123.328 78.8265 123.046 78.9743 122.811 79.1944C122.575 79.4234 122.417 79.7351 122.337 80.1295Z" fill="#033F2D"/>
<path d="M118.293 87.5057C118.565 86.8119 118.94 86.2743 119.418 85.893C119.897 85.5117 120.449 85.2857 121.074 85.2148C121.708 85.1471 122.379 85.2404 123.086 85.4946C123.802 85.7519 124.374 86.11 124.802 86.5689C125.238 87.031 125.514 87.5594 125.63 88.1541C125.742 88.7571 125.667 89.393 125.405 90.0617C125.208 90.5633 124.949 90.9708 124.626 91.2842C124.301 91.606 123.93 91.8399 123.514 91.9861C123.095 92.1406 122.651 92.2052 122.183 92.18C121.72 92.1663 121.25 92.0689 120.774 91.8879C120.651 91.844 120.535 91.7975 120.425 91.7483C120.315 91.6991 120.208 91.6416 120.104 91.5758L121.879 87.0492C121.607 86.9801 121.339 86.9649 121.075 87.0034C120.811 87.042 120.572 87.1423 120.359 87.3042C120.152 87.4776 119.986 87.7231 119.861 88.0408C119.779 88.2497 119.726 88.4499 119.701 88.6411C119.684 88.8355 119.704 89.0142 119.759 89.1772C119.815 89.3403 119.903 89.472 120.023 89.5724L119.344 91.3027C118.872 91.0089 118.529 90.6519 118.315 90.2317C118.098 89.8199 117.993 89.3767 117.999 88.9023C118.015 88.431 118.113 87.9654 118.293 87.5057ZM123.148 87.5481L122.022 90.4195C122.261 90.4959 122.502 90.5159 122.745 90.4794C122.994 90.4544 123.221 90.3593 123.425 90.1943C123.635 90.0407 123.802 89.8051 123.926 89.4875C124.051 89.1698 124.09 88.8788 124.045 88.6144C123.996 88.3583 123.888 88.1383 123.721 87.9543C123.559 87.7818 123.368 87.6464 123.148 87.5481Z" fill="#033F2D"/>
<path d="M116.449 91.8841L122.943 95.2261L122.108 96.7125L121.272 96.4192C121.43 96.7033 121.516 96.9754 121.529 97.2354C121.55 97.4997 121.521 97.7486 121.443 97.982C121.373 98.2198 121.276 98.4487 121.153 98.6689C121.095 98.7712 121.038 98.8634 120.981 98.9457C120.933 99.0322 120.897 99.0951 120.875 99.1345L119.212 98.2783L119.43 97.889C119.638 97.5194 119.753 97.1631 119.776 96.8202C119.799 96.4773 119.713 96.1593 119.518 95.8661C119.318 95.5808 119.001 95.3261 118.565 95.102L115.522 93.5356L116.449 91.8841Z" fill="#033F2D"/>
<path d="M113.794 96.3765L119.974 100.225L118.906 101.797L112.726 97.9484L113.794 96.3765ZM120.062 101.398C120.26 101.106 120.51 100.926 120.812 100.859C121.122 100.796 121.421 100.854 121.71 101.035C122.015 101.224 122.198 101.471 122.259 101.775C122.319 102.079 122.253 102.374 122.059 102.658C121.881 102.92 121.635 103.086 121.32 103.156C121.008 103.239 120.7 103.185 120.395 102.995C120.098 102.81 119.919 102.566 119.859 102.262C119.801 101.97 119.868 101.682 120.062 101.398Z" fill="#033F2D"/>
<path d="M109.801 101.492C110.293 100.92 110.829 100.527 111.41 100.314C111.991 100.101 112.59 100.058 113.206 100.184C113.829 100.316 114.432 100.612 115.016 101.071C115.607 101.536 116.027 102.052 116.277 102.619C116.534 103.191 116.617 103.776 116.526 104.375C116.428 104.98 116.143 105.559 115.669 106.111C115.314 106.524 114.931 106.83 114.52 107.027C114.104 107.231 113.674 107.337 113.231 107.347C112.782 107.364 112.34 107.288 111.906 107.119C111.472 106.963 111.06 106.725 110.67 106.407C110.569 106.327 110.475 106.247 110.387 106.167C110.299 106.086 110.218 105.999 110.142 105.904L113.349 102.169C113.115 102.02 112.866 101.922 112.603 101.877C112.34 101.832 112.081 101.853 111.825 101.941C111.57 102.04 111.33 102.222 111.105 102.484C110.957 102.656 110.838 102.829 110.75 103.002C110.669 103.181 110.627 103.356 110.625 103.528C110.622 103.699 110.661 103.851 110.741 103.983L109.515 105.411C109.167 104.987 108.962 104.543 108.902 104.079C108.835 103.622 108.885 103.17 109.052 102.723C109.226 102.282 109.475 101.872 109.801 101.492ZM114.381 103.034L112.347 105.403C112.547 105.549 112.769 105.643 113.012 105.683C113.255 105.737 113.502 105.717 113.751 105.624C114.001 105.543 114.239 105.372 114.464 105.11C114.689 104.848 114.824 104.585 114.87 104.32C114.91 104.063 114.882 103.821 114.786 103.595C114.692 103.382 114.557 103.195 114.381 103.034Z" fill="#033F2D"/>
<path d="M106.59 105.162L111.449 110.47L110.071 111.626L109.435 111.074C109.447 111.384 109.401 111.673 109.296 111.938C109.191 112.216 109.056 112.461 108.889 112.672C108.715 112.889 108.545 113.068 108.376 113.209C107.843 113.656 107.328 113.893 106.83 113.918C106.326 113.95 105.839 113.83 105.368 113.56C104.897 113.303 104.452 112.946 104.034 112.489L101.351 109.558L102.824 108.322L105.341 111.072C105.488 111.233 105.65 111.382 105.826 111.52C106.001 111.658 106.189 111.761 106.389 111.831C106.582 111.906 106.782 111.928 106.989 111.897C107.196 111.866 107.409 111.759 107.626 111.577C107.907 111.341 108.08 111.077 108.146 110.784C108.213 110.49 108.187 110.191 108.069 109.887C107.952 109.582 107.767 109.292 107.515 109.016L105.117 106.398L106.59 105.162Z" fill="#033F2D"/>
<path d="M97.1416 112.074C97.7821 111.69 98.4132 111.486 99.0351 111.461C99.649 111.441 100.223 111.587 100.757 111.9C101.296 112.219 101.768 112.69 102.173 113.31C102.584 113.939 102.817 114.557 102.874 115.166C102.935 115.782 102.821 116.356 102.53 116.888C102.232 117.425 101.754 117.89 101.098 118.282C100.592 118.585 100.084 118.768 99.5753 118.831C99.0662 118.893 98.5867 118.833 98.1369 118.649C97.6791 118.471 97.2747 118.155 96.9236 117.701L98.5486 116.729C98.7929 116.951 99.0573 117.061 99.3421 117.059C99.6189 117.062 99.8956 116.98 100.172 116.815C100.528 116.602 100.759 116.348 100.863 116.054C100.96 115.764 100.972 115.462 100.899 115.148C100.817 114.838 100.693 114.555 100.525 114.297C100.342 114.017 100.121 113.781 99.8631 113.588C99.61 113.402 99.3287 113.292 99.0192 113.256C98.7068 113.232 98.3806 113.322 98.0406 113.526C97.7559 113.696 97.5464 113.906 97.412 114.155C97.2826 114.411 97.2728 114.691 97.3826 114.994L95.722 115.988C95.4401 115.472 95.3273 114.971 95.3835 114.485C95.4397 113.998 95.623 113.546 95.9333 113.129C96.2406 112.724 96.6434 112.372 97.1416 112.074Z" fill="#033F2D"/>
<path d="M89.9074 115.645C90.6206 115.357 91.2862 115.248 91.9042 115.318C92.5223 115.388 93.0733 115.616 93.5572 116.002C94.0448 116.396 94.4355 116.927 94.7292 117.593C95.0266 118.268 95.1484 118.911 95.0946 119.524C95.0445 120.145 94.8337 120.701 94.4623 121.19C94.0822 121.683 93.5485 122.068 92.8611 122.346C92.3456 122.554 91.8582 122.654 91.399 122.646C90.9312 122.641 90.4988 122.544 90.1019 122.356C89.6964 122.171 89.3422 121.907 89.0392 121.564C88.7313 121.233 88.4819 120.839 88.291 120.383C88.2403 120.268 88.1956 120.155 88.1571 120.045C88.1185 119.935 88.0886 119.821 88.0672 119.703L92.7201 117.823C92.5855 117.587 92.4127 117.39 92.2018 117.233C91.9908 117.076 91.7507 116.979 91.4815 116.943C91.2073 116.918 90.907 116.971 90.5805 117.103C90.3657 117.19 90.1771 117.29 90.0148 117.404C89.8561 117.527 89.7341 117.663 89.6487 117.814C89.5633 117.965 89.5239 118.116 89.5304 118.269L87.7517 118.988C87.6494 118.457 87.6841 117.973 87.8556 117.535C88.0185 117.101 88.2822 116.723 88.6465 116.402C89.0145 116.088 89.4348 115.836 89.9074 115.645ZM93.2145 119.048L90.2629 120.241C90.3694 120.459 90.5203 120.641 90.7154 120.785C90.9055 120.941 91.1334 121.033 91.399 121.061C91.6596 121.101 91.9531 121.055 92.2797 120.923C92.6062 120.791 92.8539 120.619 93.0229 120.405C93.1834 120.195 93.2759 119.968 93.3006 119.726C93.3203 119.495 93.2916 119.269 93.2145 119.048Z" fill="#033F2D"/>
<path d="M80.7662 123.89L82.2509 124.581L81.5009 125.708L82.8999 125.733L82.6893 127.296L81.3307 126.964L81.7473 128.239L80.1102 128.528L80.0237 127.195L78.8923 127.967L78.0987 126.582L79.3961 126.08L78.2889 125.282L79.418 124.129L80.2994 125.158L80.7662 123.89Z" fill="#033F2D"/>
<path d="M71.9864 119.645L71.9352 121.225L69.1238 123.326C68.9229 123.481 68.6934 123.652 68.4353 123.841C68.1676 124.039 67.9135 124.25 67.6729 124.475C67.4231 124.7 67.2193 124.94 67.0618 125.194C66.8949 125.448 66.807 125.714 66.7981 125.99C66.7856 126.374 66.9013 126.69 67.1452 126.939C67.3798 127.187 67.7348 127.318 68.2102 127.332C68.6577 127.345 69.0151 127.258 69.2825 127.069C69.5402 126.889 69.7065 126.653 69.7813 126.36L71.711 126.418C71.6345 127.05 71.4218 127.566 71.0729 127.966C70.7144 128.376 70.2708 128.675 69.7421 128.865C69.2134 129.055 68.6601 129.141 68.0822 129.124C67.4576 129.105 66.8926 128.977 66.3871 128.738C65.8816 128.5 65.4866 128.162 65.2022 127.725C64.9175 127.297 64.7853 126.77 64.8055 126.145C64.8229 125.61 64.9459 125.127 65.1744 124.696C65.3934 124.273 65.6907 123.88 66.0664 123.516C66.4419 123.161 66.8634 122.821 67.3312 122.495L68.9368 121.324L64.9796 121.206L65.0369 119.439L71.9864 119.645Z" fill="#033F2D"/>
<path d="M59.8289 118.503C60.2862 118.59 60.7005 118.724 61.0719 118.904C61.4415 119.093 61.7581 119.331 62.0216 119.618C62.276 119.904 62.4719 120.241 62.6093 120.632C62.7375 121.021 62.788 121.463 62.7609 121.958L60.8264 121.589C60.808 121.403 60.7421 121.218 60.6286 121.032C60.5151 120.846 60.3586 120.685 60.1592 120.546C59.9506 120.406 59.7045 120.309 59.421 120.255C59.0734 120.189 58.7689 120.19 58.5074 120.258C58.244 120.335 58.0264 120.467 57.8546 120.653C57.6828 120.838 57.5668 121.076 57.5066 121.365C57.4153 121.802 57.4887 122.181 57.7266 122.499C57.9536 122.825 58.3278 123.037 58.8491 123.137C59.1509 123.195 59.4454 123.196 59.7326 123.142C60.0087 123.094 60.2839 123.006 60.5582 122.876L62.232 123.196L60.9426 128.494L54.5493 127.273L54.9078 125.553L59.449 126.42L59.9528 124.549C59.6401 124.681 59.2981 124.748 58.9268 124.75C58.5445 124.759 58.1759 124.725 57.8211 124.648C57.1936 124.51 56.6859 124.276 56.298 123.947C55.91 123.618 55.6474 123.213 55.5099 122.731C55.3633 122.248 55.3512 121.713 55.4734 121.126C55.6212 120.417 55.9117 119.844 56.345 119.408C56.7691 118.97 57.2866 118.678 57.8974 118.53C58.4991 118.381 59.1429 118.372 59.8289 118.503Z" fill="#033F2D"/>
<path d="M51.4662 118.197L50.6567 120.238L52.7231 120.99L52.0973 122.567L50.0309 121.816L49.2263 123.844L47.5915 123.25L48.3961 121.222L46.3297 120.47L46.9555 118.893L49.0219 119.644L49.8314 117.603L51.4662 118.197Z" fill="#033F2D"/>
<path d="M42.7509 108.29C43.22 108.598 43.6353 108.958 43.997 109.369C44.3586 109.779 44.6352 110.254 44.8269 110.791L43.3983 111.672C43.2789 111.333 43.0984 111.009 42.857 110.699C42.6208 110.381 42.3105 110.096 41.926 109.844C41.3338 109.455 40.8005 109.299 40.326 109.377C39.8438 109.451 39.4233 109.737 39.0645 110.238L38.8429 110.547C39.095 110.464 39.358 110.436 39.6318 110.465C39.8926 110.495 40.1504 110.562 40.4051 110.664C40.6598 110.766 40.8986 110.891 41.1216 111.037C41.7061 111.421 42.0908 111.847 42.2757 112.315C42.4606 112.783 42.4887 113.272 42.36 113.783C42.2183 114.297 41.9602 114.815 41.5856 115.338L39.2982 118.529L37.6832 117.468L39.741 114.597C39.8782 114.406 40.0039 114.207 40.118 114C40.2321 113.793 40.3049 113.581 40.3364 113.364C40.3679 113.146 40.336 112.93 40.2407 112.716C40.1401 112.509 39.9475 112.312 39.663 112.126C39.2938 111.883 38.9563 111.786 38.6504 111.834C38.3391 111.889 38.0578 112.03 37.8063 112.254C37.5472 112.474 37.3147 112.727 37.1089 113.014L35.1223 115.786L33.5073 114.725L37.0769 109.745C37.4568 109.215 37.8562 108.768 38.2752 108.404C38.6865 108.035 39.126 107.777 39.5937 107.63C40.0537 107.477 40.5455 107.453 41.0692 107.559C41.5905 107.653 42.151 107.896 42.7509 108.29Z" fill="#033F2D"/>
<path d="M34.0623 105.58C34.6204 106.094 34.9878 106.636 35.1645 107.208C35.3412 107.779 35.3398 108.354 35.1605 108.932C34.9747 109.516 34.62 110.069 34.0965 110.591C33.5665 111.119 32.9968 111.48 32.3874 111.674C31.7715 111.876 31.1555 111.909 30.5393 111.776C29.9164 111.636 29.3359 111.319 28.798 110.824C28.3946 110.452 28.1062 110.063 27.9329 109.656C27.7529 109.243 27.675 108.824 27.6992 108.4C27.7167 107.971 27.8302 107.555 28.0395 107.153C28.2357 106.752 28.5149 106.377 28.8771 106.029C28.9676 105.939 29.0582 105.855 29.149 105.778C29.2397 105.7 29.3372 105.629 29.4414 105.564L33.0824 108.914C33.2561 108.703 33.3767 108.473 33.4441 108.225C33.5116 107.978 33.5097 107.729 33.4386 107.477C33.3542 107.226 33.1843 106.983 32.9288 106.748C32.7607 106.593 32.5899 106.467 32.4164 106.369C32.2364 106.278 32.0572 106.225 31.8788 106.209C31.7004 106.193 31.5393 106.219 31.3955 106.284L30.0037 105.004C30.4724 104.704 30.9506 104.544 31.4383 104.522C31.9192 104.494 32.3859 104.576 32.8385 104.77C33.2845 104.97 33.6925 105.24 34.0623 105.58ZM32.102 109.833L29.7924 107.707C29.6246 107.887 29.5101 108.092 29.4488 108.32C29.3744 108.549 29.376 108.786 29.4536 109.03C29.518 109.275 29.678 109.516 29.9335 109.751C30.189 109.986 30.4526 110.136 30.7244 110.2C30.9894 110.258 31.2432 110.25 31.4858 110.176C31.7151 110.102 31.9205 109.988 32.102 109.833Z" fill="#033F2D"/>
<path d="M29.1775 100.389C29.3799 100.646 29.5432 100.919 29.6674 101.21C29.7785 101.499 29.8328 101.79 29.8301 102.083C29.8275 102.375 29.7567 102.656 29.6178 102.924C29.4789 103.193 29.2606 103.435 28.9629 103.65C28.5611 103.941 28.1793 104.094 27.8175 104.109C27.4482 104.13 27.0963 104.054 26.7618 103.882C26.4273 103.71 26.1027 103.469 25.7882 103.16C25.4681 102.843 25.1618 102.499 24.8695 102.129L24.2286 101.317C24.0128 101.473 23.8539 101.649 23.7521 101.846C23.6371 102.041 23.5941 102.246 23.6228 102.46C23.6442 102.679 23.7476 102.907 23.9331 103.142C24.0512 103.291 24.1888 103.421 24.3459 103.532C24.4899 103.64 24.6357 103.714 24.7832 103.752C24.9307 103.791 25.0752 103.782 25.2167 103.724L26.4143 105.242C26.0531 105.436 25.6953 105.538 25.341 105.548C24.9792 105.563 24.6311 105.507 24.2967 105.38C23.9624 105.253 23.6521 105.074 23.3658 104.845C23.0665 104.614 22.7988 104.348 22.5627 104.049C21.9161 103.23 21.6838 102.447 21.8657 101.7C22.0402 100.958 22.5739 100.264 23.4668 99.6183L26.6369 97.3253L27.6995 98.6718L26.9573 99.2422C27.3583 99.2319 27.7083 99.2977 28.0073 99.4395C28.3006 99.5742 28.5437 99.7341 28.7365 99.9192C28.9293 100.104 29.0763 100.261 29.1775 100.389ZM27.6687 100.943C27.4719 100.694 27.2399 100.504 26.9727 100.373C26.7054 100.241 26.4348 100.18 26.1606 100.188C25.8864 100.196 25.6377 100.281 25.4145 100.442L25.2694 100.547L26.079 101.573C26.197 101.723 26.3197 101.863 26.447 101.995C26.5688 102.12 26.6969 102.223 26.8315 102.304C26.9531 102.384 27.0838 102.424 27.2237 102.424C27.3636 102.423 27.5079 102.369 27.6568 102.261C27.8056 102.154 27.904 102.027 27.9519 101.88C27.9868 101.732 27.9797 101.575 27.9306 101.409C27.874 101.248 27.7867 101.093 27.6687 100.943Z" fill="#033F2D"/>
<path d="M25.8286 95.9755L19.4228 99.4696L18.5502 98.0033L19.2536 97.4809C18.9182 97.4583 18.6319 97.3832 18.395 97.2556C18.1499 97.1324 17.9448 96.9771 17.7796 96.7897C17.6063 96.6067 17.455 96.4066 17.3258 96.1894C17.2657 96.0886 17.2144 95.9933 17.1717 95.9035C17.1209 95.8182 17.084 95.7561 17.0609 95.7173L18.7019 94.8222L18.9304 95.2062C19.1474 95.5709 19.4015 95.8536 19.6928 96.0544C19.984 96.2552 20.3113 96.3542 20.6745 96.3513C21.0331 96.3407 21.4272 96.2182 21.8567 95.9839L24.859 94.3463L25.8286 95.9755Z" fill="#033F2D"/>
<path d="M22.1985 88.9035C22.331 89.2085 22.4326 89.5355 22.5034 89.8845C22.5742 90.2334 22.5868 90.5765 22.5414 90.9137C22.4874 91.2544 22.3594 91.5761 22.1576 91.8789C21.9472 92.185 21.6392 92.4527 21.2337 92.6819L20.4709 90.9258C20.6044 90.8146 20.7003 90.6749 20.7585 90.5066C20.8132 90.3302 20.8305 90.1492 20.8106 89.9637C20.7871 89.77 20.7377 89.5866 20.6625 89.4135C20.6123 89.298 20.5536 89.1861 20.4862 89.0775C20.4189 88.9689 20.3379 88.8755 20.2432 88.7971C20.1486 88.7187 20.05 88.6661 19.9474 88.6393C19.8362 88.6158 19.716 88.6298 19.5869 88.6813C19.4491 88.7361 19.3594 88.8202 19.3177 88.9335C19.276 89.0468 19.2658 89.1862 19.2872 89.3518C19.3 89.5208 19.3261 89.7086 19.3654 89.9154C19.4347 90.2843 19.5062 90.6813 19.5798 91.1065C19.6533 91.5317 19.6606 91.9205 19.6015 92.2728C19.5655 92.4225 19.5156 92.5633 19.4516 92.6951C19.3877 92.8269 19.3037 92.9474 19.1996 93.0566C19.0955 93.1657 18.9817 93.2642 18.8582 93.352C18.7261 93.4433 18.5783 93.5215 18.4147 93.5866C18.0444 93.7341 17.6978 93.785 17.375 93.7395C17.04 93.6891 16.7352 93.5687 16.4606 93.3783C16.1859 93.1878 15.9461 92.9497 15.7412 92.6638C15.5276 92.3814 15.3491 92.0753 15.2059 91.7455C15.0125 91.3003 14.911 90.8572 14.9012 90.4163C14.8829 89.9787 14.9793 89.5729 15.1905 89.1987C15.3931 88.8279 15.7316 88.5142 16.206 88.2577L16.9258 89.9148C16.7507 90.0232 16.6483 90.1945 16.6187 90.4287C16.5805 90.6663 16.6223 90.9253 16.7441 91.2056C16.787 91.3046 16.8422 91.4083 16.9096 91.5169C16.9734 91.6172 17.0465 91.7041 17.1289 91.7777C17.2114 91.8512 17.3039 91.9014 17.4065 91.9283C17.5004 91.9586 17.6077 91.9497 17.7282 91.9017C17.823 91.864 17.8983 91.805 17.9544 91.7246C18.0068 91.6361 18.0374 91.532 18.046 91.4125C18.0512 91.2848 18.043 91.1381 18.0216 90.9726C17.9687 90.6648 17.9116 90.3588 17.8501 90.0545C17.7764 89.7454 17.7214 89.4675 17.685 89.2209C17.6271 88.9248 17.6187 88.6381 17.6598 88.3606C17.6973 88.0749 17.8061 87.814 17.9864 87.5778C18.1544 87.3369 18.4279 87.1409 18.8068 86.9901C19.2374 86.8187 19.6306 86.7588 19.9864 86.8106C20.3336 86.8657 20.6499 87.0009 20.9352 87.2161C21.217 87.423 21.464 87.6777 21.6761 87.98C21.8847 88.2741 22.0588 88.5819 22.1985 88.9035Z" fill="#033F2D"/>
<path d="M18.9673 78.0236C19.0949 78.7546 19.0514 79.3997 18.837 79.9591C18.6226 80.5185 18.2632 80.9788 17.7589 81.3401C17.2454 81.7028 16.6161 81.9438 15.871 82.063C15.1167 82.1836 14.4344 82.1479 13.824 81.9559C13.2045 81.7653 12.6892 81.4403 12.2781 80.981C11.8655 80.5129 11.5977 79.9266 11.4747 79.222C11.3825 78.6936 11.3938 78.2165 11.5087 77.7908C11.6219 77.3562 11.8203 76.976 12.1039 76.65C12.3858 76.3152 12.7361 76.0464 13.1546 75.8437C13.5623 75.6337 14.02 75.4926 14.5275 75.4204C14.6562 75.3998 14.7812 75.3844 14.9023 75.3741C15.0234 75.3637 15.1461 75.3622 15.2703 75.3695L16.1025 80.1385C16.3739 80.0679 16.6138 79.9526 16.8222 79.7925C17.0307 79.6324 17.1847 79.4313 17.2843 79.189C17.3731 78.9394 17.3883 78.6473 17.3299 78.3127C17.2915 78.0925 17.2331 77.8936 17.1549 77.716C17.0674 77.5399 16.9569 77.3946 16.8235 77.2802C16.6901 77.1657 16.5451 77.0938 16.3887 77.0645L16.0706 75.2415C16.6333 75.2692 17.1171 75.4136 17.522 75.6747C17.9254 75.9271 18.2483 76.2602 18.4907 76.674C18.7239 77.0894 18.8828 77.5392 18.9673 78.0236ZM14.7433 80.3151L14.2154 77.2899C13.9686 77.3385 13.7494 77.4369 13.5578 77.5852C13.3554 77.7262 13.2091 77.9171 13.1187 78.1579C13.0176 78.3913 12.9963 78.6754 13.0547 79.01C13.1131 79.3447 13.2313 79.6155 13.4092 79.8224C13.5856 80.0205 13.7942 80.1591 14.0349 80.2383C14.265 80.3102 14.5011 80.3358 14.7433 80.3151Z" fill="#033F2D"/>
<path d="M18.249 74.0842L14.45 71.6708L10.8754 74.0631L10.8433 71.8801L13.1449 70.4561L10.8028 69.1214L10.7717 67.0054L14.4573 69.3132L18.1411 66.7453L18.1732 68.9283L15.7759 70.501L18.2183 71.9951L18.249 74.0842Z" fill="#033F2D"/>
<path d="M20.9616 66.5174L10.9369 65.1325L11.1986 63.3959L12.1265 63.4294C11.8091 63.0968 11.5946 62.7379 11.4831 62.3526C11.3729 61.9585 11.3511 61.5405 11.4177 61.0986C11.5216 60.4093 11.7737 59.8622 12.1739 59.4574C12.5742 59.0526 13.0771 58.7793 13.6827 58.6374C14.2804 58.4855 14.9301 58.4579 15.6316 58.5549C16.3516 58.6543 16.9798 58.8629 17.5161 59.1806C18.0446 59.4882 18.4397 59.8991 18.7014 60.4134C18.9538 60.9264 19.0275 61.532 18.9222 62.2302C18.8769 62.5306 18.7974 62.8083 18.6836 63.0632C18.5698 63.3182 18.4375 63.539 18.2869 63.7256C18.127 63.9111 17.958 64.0636 17.7797 64.1833L21.2413 64.6616L20.9616 66.5174ZM17.1296 62.3073C17.1923 61.8919 17.1446 61.5515 16.9867 61.2861C16.8289 61.0207 16.6095 60.819 16.3288 60.681C16.0388 60.5417 15.7323 60.4498 15.4092 60.4051C15.0585 60.3567 14.7182 60.3638 14.3883 60.4265C14.0585 60.4891 13.7826 60.6315 13.5607 60.8534C13.3309 61.0652 13.1847 61.3788 13.1221 61.7942C13.0661 62.1654 13.1158 62.4925 13.271 62.7755C13.417 63.0573 13.6323 63.2856 13.9169 63.4602C14.2016 63.6349 14.5193 63.7464 14.87 63.7949C15.2208 63.8433 15.5578 63.8267 15.8811 63.7451C16.2057 63.6546 16.4796 63.494 16.7029 63.2632C16.9274 63.0236 17.0697 62.705 17.1296 62.3073Z" fill="#033F2D"/>
<path d="M20.7884 54.7736C20.5522 55.4793 20.2049 56.0338 19.7468 56.4371C19.2886 56.8403 18.7489 57.092 18.1278 57.192C17.4978 57.2894 16.8231 57.2277 16.1037 57.007C15.3754 56.7835 14.7859 56.4526 14.3352 56.0143C13.8757 55.5732 13.573 55.0584 13.4273 54.4698C13.2843 53.8728 13.3268 53.2341 13.5545 52.5539C13.7253 52.0437 13.9635 51.6246 14.2692 51.2965C14.5778 50.9598 14.9361 50.7088 15.3441 50.5433C15.7549 50.3693 16.1948 50.2839 16.6638 50.2872C17.1268 50.2792 17.6011 50.3545 18.0867 50.5128C18.2111 50.551 18.3295 50.592 18.4421 50.636C18.5548 50.6799 18.6645 50.7323 18.7714 50.7933L17.2301 55.3976C17.505 55.4539 17.7735 55.4565 18.0354 55.4056C18.2972 55.3547 18.5304 55.2434 18.7348 55.0717C18.9331 54.8888 19.0864 54.6358 19.1945 54.3126C19.2657 54.1001 19.309 53.8977 19.3243 53.7055C19.3308 53.5106 19.3021 53.333 19.2383 53.1728C19.1744 53.0125 19.0799 52.8851 18.9549 52.7905L19.5441 51.0304C20.0311 51.3017 20.3921 51.6422 20.6272 52.0518C20.865 52.453 20.9927 52.8907 21.0103 53.3649C21.0189 53.8364 20.945 54.3059 20.7884 54.7736ZM15.9373 54.9587L16.9151 52.038C16.6724 51.9729 16.4305 51.9643 16.1892 52.0122C15.9419 52.0488 15.7205 52.1543 15.525 52.3287C15.3234 52.4919 15.1686 52.7351 15.0604 53.0582C14.9522 53.3813 14.9277 53.6738 14.987 53.9358C15.049 54.1892 15.1681 54.4039 15.3443 54.5799C15.5144 54.7446 15.7121 54.8709 15.9373 54.9587Z" fill="#033F2D"/>
<path d="M22.4011 50.3253L15.7441 47.292L16.5016 45.7682L17.3515 46.022C17.179 45.7456 17.0797 45.4779 17.0536 45.2188C17.0191 44.9558 17.0348 44.7059 17.1009 44.469C17.1586 44.2283 17.2436 43.9951 17.3558 43.7694C17.4079 43.6645 17.4602 43.5697 17.5127 43.4849C17.5568 43.3962 17.5889 43.3317 17.6089 43.2914L19.3142 44.0684L19.1159 44.4675C18.9275 44.8464 18.8305 45.2077 18.825 45.5513C18.8194 45.8948 18.9218 46.2085 19.1319 46.4921C19.3461 46.7677 19.6764 47.0072 20.1227 47.2105L23.2428 48.6322L22.4011 50.3253Z" fill="#033F2D"/>
<path d="M24.8291 45.7013L18.4607 42.145L19.4475 40.5253L25.8159 44.0816L24.8291 45.7013ZM18.3137 40.9775C18.1304 41.2783 17.8897 41.4695 17.5917 41.5511C17.2855 41.6283 16.9834 41.5836 16.6854 41.4172C16.3712 41.2417 16.1761 41.0036 16.1003 40.7028C16.0244 40.402 16.0757 40.1051 16.2543 39.812C16.4188 39.542 16.6564 39.3646 16.9672 39.2798C17.2747 39.1827 17.5855 39.2219 17.8997 39.3974C18.2059 39.5683 18.3969 39.8042 18.4727 40.105C18.5453 40.3936 18.4922 40.6844 18.3137 40.9775Z" fill="#033F2D"/>
<path d="M28.5532 40.4159C28.0912 41.0105 27.5753 41.4277 27.0056 41.6675C26.4358 41.9072 25.8401 41.9782 25.2186 41.8806C24.5895 41.7777 23.9719 41.5104 23.3657 41.0788C22.7521 40.6419 22.306 40.1463 22.0276 39.592C21.7417 39.0323 21.6292 38.4515 21.6901 37.8494C21.7565 37.2402 22.0124 36.649 22.4576 36.0758C22.7916 35.646 23.1586 35.3231 23.5587 35.1072C23.9644 34.8842 24.3883 34.7576 24.8302 34.7273C25.2777 34.6898 25.7228 34.7453 26.1655 34.8936C26.6063 35.0294 27.0297 35.2474 27.4358 35.5476C27.5406 35.6222 27.6388 35.6977 27.7305 35.7742C27.8223 35.8506 27.9084 35.9342 27.989 36.025L24.9752 39.9047C25.2164 40.043 25.4695 40.1287 25.7345 40.1616C25.9995 40.1945 26.2578 40.1613 26.5091 40.0622C26.7586 39.9505 26.9891 39.7585 27.2006 39.4862C27.3398 39.3071 27.4491 39.129 27.5285 38.9519C27.6005 38.7695 27.6333 38.5925 27.627 38.4211C27.6207 38.2497 27.5743 38.0999 27.488 37.9716L28.6401 36.4885C29.0093 36.896 29.2359 37.33 29.3199 37.7904C29.4095 38.2437 29.3825 38.6974 29.2389 39.1515C29.0879 39.6004 28.8593 40.0218 28.5532 40.4159ZM23.9001 39.0892L25.8119 36.6281C25.6043 36.4914 25.3783 36.4083 25.1338 36.3789C24.8874 36.337 24.6422 36.3683 24.3983 36.4728C24.1525 36.5648 23.9238 36.747 23.7123 37.0192C23.5008 37.2915 23.3788 37.5607 23.3464 37.827C23.3195 38.086 23.3597 38.326 23.467 38.5471C23.5723 38.7556 23.7167 38.9363 23.9001 39.0892Z" fill="#033F2D"/>
<path d="M31.5766 36.5989L26.4544 31.5222L27.7725 30.3033L28.4359 30.8257C28.4085 30.5159 28.4401 30.2259 28.5307 29.9559C28.6216 29.6732 28.7448 29.4227 28.9005 29.2042C29.0629 28.9796 29.2245 28.7928 29.3855 28.644C29.8953 28.1725 30.398 27.9124 30.8936 27.8638C31.3958 27.809 31.8888 27.9056 32.3724 28.1535C32.8562 28.3889 33.3185 28.7249 33.7591 29.1616L36.5875 31.9648L35.1788 33.2676L32.5254 30.6378C32.3698 30.4836 32.2009 30.3419 32.0186 30.2126C31.8362 30.0833 31.6434 29.9885 31.44 29.9283C31.2433 29.8619 31.0424 29.8491 30.8372 29.8899C30.632 29.9307 30.4254 30.0473 30.2174 30.2396C29.9491 30.4877 29.7892 30.7598 29.7377 31.0557C29.6861 31.3516 29.7269 31.6491 29.86 31.9481C29.9932 32.2471 30.1925 32.5282 30.4582 32.7915L32.9853 35.2961L31.5766 36.5989Z" fill="#033F2D"/>
<path d="M40.6668 29.2529C40.0465 29.6657 39.4264 29.8989 38.8066 29.9526C38.1944 30.0011 37.6138 29.8819 37.0646 29.5949C36.5102 29.3005 36.0147 28.8528 35.5781 28.2516C35.1363 27.6431 34.8717 27.0362 34.7844 26.431C34.6918 25.8184 34.777 25.2397 35.0402 24.6948C35.311 24.1449 35.7642 23.6584 36.3999 23.2354C36.89 22.9092 37.3877 22.703 37.893 22.6168C38.3984 22.5306 38.8804 22.5687 39.339 22.7311C39.8053 22.8883 40.2253 23.1852 40.5989 23.6216L39.0252 24.6689C38.77 24.4582 38.5002 24.3604 38.2159 24.3756C37.9393 24.3857 37.667 24.48 37.399 24.6583C37.0544 24.8877 36.8372 25.1518 36.7476 25.4507C36.6656 25.7445 36.6691 26.0466 36.7582 26.3571C36.855 26.6624 36.9939 26.9397 37.1748 27.189C37.3718 27.4602 37.6041 27.6863 37.8716 27.8671C38.1339 28.0405 38.4205 28.138 38.7314 28.1594C39.0446 28.1685 39.3658 28.0634 39.6951 27.8442C39.9708 27.6608 40.1695 27.4416 40.2911 27.1867C40.4073 26.9244 40.4029 26.6446 40.2779 26.3472L41.8861 25.277C42.1938 25.779 42.3319 26.2743 42.3005 26.7629C42.269 27.2514 42.1089 27.7114 41.8201 28.1428C41.5337 28.5618 41.1492 28.9318 40.6668 29.2529Z" fill="#033F2D"/>
<path d="M47.6939 25.3571C46.9964 25.6785 46.3372 25.8188 45.7164 25.7779C45.0955 25.737 44.5334 25.5353 44.0302 25.1726C43.5229 24.8019 43.1054 24.2907 42.7778 23.639C42.4461 22.9793 42.2913 22.3421 42.3135 21.7274C42.3316 21.1047 42.5135 20.5402 42.8594 20.034C43.2136 19.5239 43.7268 19.1139 44.3991 18.8041C44.9033 18.5717 45.385 18.4489 45.844 18.4355C46.3115 18.4183 46.7483 18.4944 47.1544 18.664C47.569 18.8297 47.9364 19.0766 48.2566 19.4047C48.5812 19.7209 48.8505 20.1021 49.0646 20.5485C49.1212 20.6611 49.1716 20.7717 49.2158 20.8801C49.26 20.9886 49.2958 21.1009 49.3231 21.2171L44.7726 23.3143C44.9192 23.544 45.1019 23.7323 45.3206 23.8793C45.5394 24.0262 45.7842 24.1116 46.055 24.1354C46.3301 24.1474 46.6273 24.0798 46.9467 23.9326C47.1567 23.8358 47.3399 23.7266 47.4962 23.605C47.6484 23.4754 47.7632 23.3333 47.8407 23.1787C47.9182 23.024 47.9498 22.8707 47.9355 22.7188L49.6751 21.9171C49.8045 22.4421 49.7948 22.9272 49.646 23.3724C49.5056 23.8136 49.2617 24.2035 48.9143 24.5419C48.5629 24.8724 48.1561 25.1441 47.6939 25.3571ZM44.2158 22.1142L47.1024 20.7839C46.9848 20.5705 46.8248 20.3965 46.6225 20.2618C46.4246 20.1152 46.1923 20.034 45.9256 20.0181C45.6632 19.9904 45.3724 20.0501 45.053 20.1973C44.7337 20.3445 44.4951 20.5287 44.3373 20.7501C44.1879 20.9676 44.1071 21.1981 44.095 21.4415C44.0871 21.673 44.1274 21.8972 44.2158 22.1142Z" fill="#033F2D"/>
<path d="M56.4117 16.6875L54.8933 16.0672L55.5847 14.9064L54.1861 14.9471L54.3165 13.3764L55.6904 13.6441L55.209 12.3904L56.8293 12.0244L56.984 13.3519L58.0745 12.5276L58.938 13.8738L57.6679 14.4359L58.8147 15.1814L57.7461 16.3861L56.813 15.3996L56.4117 16.6875Z" fill="#033F2D"/>
<circle cx="70.0001" cy="69.9991" r="32.3077" fill="#033F2D"/>
<path d="M80.8472 81.6847C81.4372 83.9867 82.5593 86.9981 84.6793 89.7612C90.7354 85.252 94.6585 78.0381 94.6585 69.9072C94.6585 58.3118 86.6799 48.5814 75.9137 45.9023C75.2949 48.5072 76.4624 51.4925 76.4764 51.5279L76.6529 51.9705L76.1808 52.035C74.8724 52.2134 74.0572 52.7649 73.5757 53.2539C74.1255 53.8101 74.6496 54.5897 75.0738 55.6804C76.812 60.1502 71.7214 59.0327 71.7214 59.0327C71.7214 59.0327 79.2952 65.1166 71.7214 72.8146C71.7214 72.8146 77.3086 74.677 77.557 83.182C77.7348 89.2742 74.2499 92.8177 71.893 94.5664C76.107 94.2339 80.0241 92.846 83.3795 90.6661C85.0085 92.3693 86.6702 93.3059 86.6702 93.3059C82.563 89.79 80.7091 85.1627 79.8772 81.9001C79.2474 79.4303 79.0911 77.3818 79.055 76.3374C78.2552 76.5662 77.3463 76.565 76.5008 76.467C76.2726 76.0547 76.0343 75.6833 75.7942 75.3517C76.9365 75.5791 78.3538 75.6913 79.3057 75.1722L80.0651 74.7579L80.04 75.6226C80.0394 75.6487 79.9766 78.287 80.8472 81.6847ZM78.2427 60.5996C78.2587 59.9023 78.3524 58.1693 78.8645 56.389C79.7608 53.2741 81.5097 51.5536 83.9225 51.4133C84.1943 51.3968 84.4311 51.6065 84.4471 51.8803C84.4629 52.1541 84.2539 52.389 83.9801 52.4048C79.1714 52.6845 79.232 60.8215 79.2331 60.9036L79.2376 61.2214L78.951 61.3587C77.2487 62.1739 76.1494 63.0338 75.4436 63.7663C75.3495 63.3999 75.235 63.0494 75.1039 62.7161C75.8348 62.0352 76.8452 61.2985 78.2427 60.5996ZM79.9441 68.3441C77.6195 70.3521 75.0157 71.3923 73.3611 71.895C73.7248 71.4341 74.0471 70.9701 74.3266 70.5031C75.9747 69.8685 78.0799 68.798 79.8813 67.0566L80.565 66.3956L80.7168 67.3344C80.7265 67.3928 81.7834 73.313 89.0434 77.5381C89.2804 77.676 89.3607 77.9801 89.2228 78.2171C89.1305 78.3756 88.964 78.464 88.793 78.4641C88.7082 78.4641 88.6223 78.4423 88.5437 78.3966C82.4443 74.8469 80.5058 70.2306 79.9441 68.3441Z" fill="#F5F5F5"/>
<path d="M62.2854 83.182C62.5337 74.677 68.1209 72.8146 68.1209 72.8146C60.5471 65.1166 68.1209 59.0327 68.1209 59.0327C68.1209 59.0327 63.0304 60.1502 64.7686 55.6804C65.1927 54.5896 65.7168 53.8101 66.2666 53.2539C65.7852 52.7649 64.97 52.2134 63.6616 52.035L63.1895 51.9705L63.3659 51.5279C63.38 51.4925 64.5475 48.5072 63.9287 45.9023C53.1625 48.5814 45.1838 58.3118 45.1838 69.9072C45.1838 78.038 49.107 85.252 55.1631 89.7612C57.2831 86.9981 58.4053 83.9867 58.9951 81.6847C59.8658 78.287 59.8031 75.6487 59.8024 75.6228L59.7772 74.7581L60.5367 75.1724C61.4886 75.6916 62.9059 75.5793 64.0481 75.3519C63.8081 75.6835 63.5698 76.0549 63.3415 76.4672C62.4961 76.5652 61.5872 76.5664 60.7874 76.3376C60.7514 77.382 60.595 79.4305 59.9652 81.9003C59.1333 85.1629 57.2794 89.7902 53.1722 93.306C53.1722 93.306 54.8338 92.3695 56.4628 90.6663C59.5096 92.6458 63.0195 93.9722 66.7942 94.4485C68.3567 95.3476 69.9212 95.8465 69.9212 95.8465C68.928 95.2256 62.0371 91.687 62.2854 83.182ZM55.3954 51.8803C55.4113 51.6065 55.6482 51.3968 55.92 51.4133C58.3327 51.5536 60.0817 53.2741 60.9779 56.389C61.4901 58.1693 61.5836 59.9022 61.5998 60.5996C62.9972 61.2985 64.0077 62.0352 64.7385 62.7162C64.6075 63.0494 64.4929 63.4001 64.3989 63.7663C63.693 63.0339 62.5937 62.174 60.8915 61.3587L60.6048 61.2215L60.6094 60.9037C60.6105 60.8216 60.671 52.6846 55.8624 52.4049C55.5886 52.389 55.3794 52.1541 55.3954 51.8803ZM59.8984 68.344C59.3367 70.2305 57.3981 74.8468 51.2988 78.3965C51.2202 78.4423 51.1343 78.464 51.0494 78.464C50.8784 78.464 50.712 78.3756 50.6197 78.217C50.4817 77.9799 50.562 77.676 50.7991 77.538C58.059 73.313 59.116 67.3927 59.1257 67.3344L59.2775 66.3955L59.9612 67.0565C61.7626 68.7979 63.8676 69.8683 65.5159 70.503C65.7952 70.97 66.1176 71.4341 66.4814 71.895C64.8267 71.3922 62.223 70.3521 59.8984 68.344Z" fill="#F5F5F5"/>
<path d="M64.4581 87.5485C64.4581 87.5485 64.5409 79.2712 68.1415 74.5117C68.1415 74.5117 61.8508 78.5677 64.4581 87.5485Z" fill="white"/>
<path d="M73.0146 52.766C73.5292 52.2313 74.3574 51.6415 75.6304 51.3757C75.2307 50.1732 74.3073 46.7283 75.8088 44.1543C75.8088 44.1543 75.2524 44.6612 74.835 45.6595C73.2469 45.3394 71.6037 45.1711 69.9211 45.1711C68.2385 45.1711 66.5954 45.3395 65.0072 45.6595C64.5898 44.6612 64.0334 44.1543 64.0334 44.1543C65.5349 46.7283 64.6115 50.1732 64.2119 51.3757C65.4848 51.6415 66.313 52.2314 66.8276 52.766C67.3303 52.3924 67.8337 52.1762 68.2841 52.0547C67.8698 49.9468 69.2382 49.2255 69.2382 49.2255C68.3534 50.2111 68.6162 51.3741 68.8311 51.9455C69.4786 51.8606 69.921 51.9571 69.921 51.9571C69.921 51.9571 70.3635 51.8606 71.011 51.9455C71.2259 51.3742 71.4887 50.2111 70.6039 49.2255C70.6039 49.2255 71.9723 49.9468 71.558 52.0547C72.0085 52.1762 72.512 52.3923 73.0146 52.766Z" fill="white"/>
</svg>
