<svg width="140" height="140" viewBox="0 0 140 140" fill="none" xmlns="http://www.w3.org/2000/svg">
<circle cx="70" cy="70" r="70" fill="#C7F268"/>
<path d="M70.6737 20.3348L70.7729 19.1225L74.3453 16.6895C74.7411 16.4155 75.0631 16.1573 75.3113 15.915C75.5596 15.6727 75.7471 15.4211 75.8738 15.1602C76.0006 14.8993 76.0771 14.6081 76.1034 14.2866C76.134 13.9129 76.0974 13.6081 75.9937 13.3723C75.89 13.1365 75.7354 12.9599 75.5297 12.8426C75.3241 12.7253 75.0838 12.6556 74.8089 12.6333C74.4031 12.6003 74.0818 12.6618 73.845 12.8175C73.613 12.9693 73.4403 13.174 73.327 13.4316C73.2141 13.6848 73.1355 13.9475 73.0913 14.2194L71.1015 13.4938C71.2013 13.0252 71.4252 12.5972 71.7732 12.2099C72.1258 11.8186 72.5744 11.5161 73.119 11.3022C73.6636 11.0883 74.2697 11.0084 74.9374 11.0625C75.3345 11.0948 75.7336 11.1818 76.1349 11.3237C76.5409 11.4616 76.9067 11.6618 77.2322 11.9244C77.5621 12.1874 77.8189 12.5122 78.0025 12.8988C78.1861 13.2855 78.2566 13.7395 78.2139 14.2609C78.1539 14.9952 77.8675 15.6499 77.3549 16.2251C76.8426 16.7958 76.1401 17.3293 75.2473 17.8255L72.7708 19.2649L72.3687 18.8649L77.7948 19.3049L77.6642 20.9017L70.6737 20.3348Z" fill="#033F2D"/>
<path d="M82.2599 22.1382C81.6562 21.9905 81.1179 21.7421 80.645 21.3929C80.1732 21.0396 79.8184 20.6048 79.5806 20.0888C79.3428 19.5727 79.2741 18.9925 79.3745 18.3482L81.4979 18.4301C81.3875 18.9687 81.4255 19.4359 81.6119 19.8316C81.7982 20.2274 82.1444 20.4872 82.6503 20.611C82.9862 20.6931 83.2898 20.6866 83.5613 20.5915C83.8338 20.492 84.0667 20.3246 84.2601 20.0891C84.4545 19.8493 84.5935 19.5601 84.6771 19.2215C84.7993 18.7262 84.7583 18.2986 84.554 17.9389C84.3497 17.5792 84.0032 17.3395 83.5142 17.2199C83.1656 17.1346 82.8609 17.1453 82.6001 17.2521C82.3436 17.3599 82.1176 17.5268 81.922 17.7528L79.9508 17.1088L81.6428 12.1158L87.612 13.5764L87.2281 15.1321L82.8532 14.0617L81.9388 16.7805L81.7022 16.561C82.0502 16.2287 82.456 16.0093 82.9196 15.9027C83.3842 15.792 83.8865 15.8026 84.4265 15.9348C85.0727 16.0929 85.5866 16.3578 85.9683 16.7295C86.3542 17.1022 86.606 17.5432 86.7238 18.0523C86.8426 18.5573 86.8315 19.0955 86.6905 19.667C86.5129 20.3867 86.1945 20.9552 85.7354 21.3726C85.2762 21.7899 84.7405 22.0606 84.1284 22.1847C83.5162 22.3087 82.8934 22.2932 82.2599 22.1382Z" fill="#033F2D"/>
<path d="M89.3979 23.2635L90.4912 20.7634L88.0588 19.7087L88.6933 18.2578L91.1257 19.3126L92.2191 16.8125L93.8327 17.5122L92.7393 20.0123L95.1718 21.067L94.5373 22.5178L92.1049 21.4631L91.0115 23.9631L89.3979 23.2635Z" fill="#033F2D"/>
<path d="M99.9208 30.4112L102.068 27.5929L103.031 20.9414L104.737 22.2299L103.8 27.235L103.559 27.0532L108.148 24.8069L109.853 26.0954L103.693 28.8038L101.537 31.6325L99.9208 30.4112Z" fill="#033F2D"/>
<path d="M105.903 35.9486C105.421 35.4492 105.095 34.8958 104.927 34.2883C104.763 33.6839 104.768 33.0736 104.944 32.4572C105.126 31.841 105.492 31.2698 106.04 30.7438C106.586 30.2208 107.168 29.8804 107.788 29.7226C108.41 29.5679 109.02 29.5826 109.617 29.7665C110.217 29.9537 110.761 30.3001 111.25 30.8057C111.52 31.0853 111.751 31.4087 111.942 31.7762C112.136 32.1468 112.242 32.5573 112.258 33.0077C112.277 33.4551 112.164 33.9386 111.919 34.458C111.677 34.9745 111.256 35.5199 110.657 36.0943L106.622 31.9203L107.426 31.1493L110.249 34.0702L109.858 34.1645C110.174 33.8129 110.388 33.4871 110.499 33.187C110.61 32.887 110.638 32.6147 110.584 32.3701C110.53 32.1255 110.41 31.9074 110.225 31.7158C109.985 31.4677 109.714 31.3284 109.411 31.298C109.108 31.2676 108.788 31.3324 108.45 31.4925C108.119 31.6527 107.786 31.893 107.452 32.2135C106.947 32.6972 106.639 33.1739 106.528 33.6435C106.42 34.1162 106.556 34.5489 106.935 34.9415C107.181 35.1959 107.458 35.3507 107.767 35.4059C108.079 35.4642 108.417 35.4121 108.782 35.2494L109.686 36.8343C109.217 37.0536 108.754 37.1496 108.296 37.1224C107.838 37.0952 107.404 36.976 106.993 36.7647C106.589 36.5535 106.225 36.2815 105.903 35.9486Z" fill="#033F2D"/>
<path d="M110.284 41.1996C110.027 40.8308 109.855 40.4458 109.767 40.0448C109.683 39.6413 109.704 39.2551 109.83 38.8863C109.959 38.5211 110.218 38.2042 110.606 37.9356C111.024 37.6472 111.461 37.5222 111.92 37.5607C112.379 37.5992 112.843 37.7954 113.314 38.1493C113.788 38.5007 114.251 39.0004 114.703 39.6485L115.273 40.4649L115.06 40.4689L115.394 40.2377C115.779 39.9716 116.016 39.7041 116.106 39.4351C116.199 39.1637 116.133 38.8668 115.908 38.5446C115.693 38.2367 115.446 38.0575 115.166 38.0072C114.891 37.958 114.591 38.0199 114.264 38.193L113.406 36.3662C113.772 36.2033 114.159 36.1398 114.568 36.1756C114.983 36.2125 115.401 36.369 115.823 36.6452C116.245 36.9214 116.65 37.3388 117.04 37.8974C117.397 38.4094 117.616 38.8999 117.698 39.3687C117.784 39.8351 117.707 40.2864 117.467 40.7227C117.23 41.1625 116.804 41.595 116.19 42.0202L114.21 43.3891C114.088 43.4736 114.018 43.5457 114.001 43.6053C113.986 43.6684 114.018 43.7555 114.095 43.8665L114.279 44.1297L113.103 44.9428L112.571 44.1801C112.279 43.7612 112.161 43.3704 112.217 43.0078C112.279 42.6462 112.508 42.3287 112.904 42.0552L113.179 41.8649L113.266 42.2188C113.079 42.2792 112.866 42.3256 112.627 42.3579C112.389 42.3902 112.134 42.3805 111.863 42.3288C111.599 42.2782 111.331 42.1659 111.061 41.9921C110.79 41.8182 110.532 41.5541 110.284 41.1996ZM111.707 40.9006C111.882 41.1512 112.094 41.3334 112.344 41.4472C112.594 41.561 112.873 41.5938 113.18 41.5457C113.491 41.495 113.819 41.3504 114.165 41.1116L114.289 41.0259L113.817 40.3491C113.55 39.966 113.291 39.7018 113.04 39.5566C112.792 39.415 112.564 39.3522 112.357 39.3682C112.153 39.3817 111.983 39.4357 111.846 39.5302C111.739 39.6048 111.645 39.707 111.564 39.8367C111.487 39.9699 111.451 40.1248 111.457 40.3013C111.469 40.4788 111.552 40.6786 111.707 40.9006Z" fill="#033F2D"/>
<path d="M113.518 45.9185L119.826 42.6891L120.691 44.3639L119.271 45.0905L119.422 44.925C119.992 44.8835 120.482 44.9853 120.894 45.2302C121.31 45.4731 121.628 45.8078 121.848 46.2343C121.91 46.3544 121.964 46.4815 122.008 46.6156C122.053 46.7496 122.084 46.8906 122.101 47.0386L120.549 47.6644C120.489 47.3765 120.399 47.1162 120.279 46.8836C120.181 46.6937 120.044 46.5109 119.87 46.3355C119.698 46.1639 119.482 46.0318 119.222 45.9392C118.969 45.8484 118.661 45.8246 118.299 45.8677C117.943 45.9126 117.532 46.0547 117.065 46.2939L114.413 47.6515L113.518 45.9185Z" fill="#033F2D"/>
<path d="M116.699 53.3802C116.518 52.8802 116.418 52.3829 116.401 51.8882C116.388 51.3921 116.481 50.9367 116.679 50.5221C116.878 50.1074 117.209 49.77 117.673 49.5098L118.615 51.0618C118.254 51.2338 118.017 51.4674 117.906 51.7627C117.8 52.0605 117.824 52.4205 117.978 52.8427C118.125 53.2484 118.315 53.5207 118.547 53.6596C118.784 53.7969 119.011 53.8262 119.229 53.7475C119.422 53.6777 119.561 53.5397 119.644 53.3335C119.729 53.1314 119.731 52.8313 119.652 52.4335L119.531 51.7953C119.482 51.5442 119.439 51.2723 119.402 50.9795C119.371 50.6894 119.376 50.4024 119.417 50.1186C119.462 49.8334 119.573 49.5734 119.748 49.3386C119.923 49.1038 120.192 48.921 120.554 48.7904C120.995 48.6315 121.414 48.6124 121.812 48.7332C122.215 48.8566 122.575 49.0976 122.892 49.4563C123.213 49.8135 123.471 50.2605 123.666 50.7975C123.847 51.2934 123.938 51.7731 123.939 52.2364C123.944 52.6982 123.854 53.1177 123.67 53.4947C123.491 53.8744 123.209 54.1802 122.823 54.4122L121.869 52.8646C122.027 52.7751 122.166 52.6626 122.284 52.5271C122.404 52.3958 122.479 52.2318 122.51 52.0352C122.545 51.8371 122.512 51.5987 122.411 51.32C122.296 51.0044 122.142 50.7746 121.95 50.6306C121.76 50.4907 121.557 50.4594 121.343 50.5366C121.187 50.593 121.078 50.6903 121.017 50.8284C120.957 50.9706 120.928 51.143 120.932 51.3456C120.942 51.5508 120.968 51.7756 121.01 52.02L121.143 52.7509C121.214 53.1242 121.235 53.4946 121.205 53.8622C121.182 54.2324 121.075 54.5654 120.884 54.8613C120.694 55.1571 120.385 55.3823 119.957 55.5367C119.483 55.7075 119.037 55.7224 118.618 55.5815C118.2 55.4446 117.826 55.1833 117.494 54.7974C117.169 54.4142 116.904 53.9418 116.699 53.3802Z" fill="#033F2D"/>
<path d="M119.046 61.13L128.437 60.0254L129.22 66.6232L127.518 66.8234L126.973 62.2322L125.036 62.46L125.498 66.3564L123.868 66.5482L123.406 62.6518L120.986 62.9364L121.542 67.6185L119.84 67.8187L119.046 61.13Z" fill="#033F2D"/>
<path d="M119.853 68.6584L123.403 71.5086L126.93 69.1608L126.835 71.3428L124.418 72.8157L126.702 74.3937L126.605 76.6083L123.162 73.874L119.517 76.3737L119.615 74.1264L122.153 72.5934L119.757 70.86L119.853 68.6584Z" fill="#033F2D"/>
<path d="M116.836 76.6045L126.281 78.5937L125.898 80.3978L124.504 80.1042L124.61 80.1066C125.065 80.4519 125.366 80.8473 125.513 81.2926C125.663 81.7431 125.686 82.2158 125.581 82.7105C125.458 83.2906 125.206 83.761 124.825 84.1219C124.447 84.488 123.96 84.7284 123.363 84.8433C122.77 84.959 122.092 84.9366 121.33 84.776C120.567 84.6154 119.939 84.3605 119.445 84.0114C118.954 83.6674 118.611 83.2498 118.415 82.7586C118.223 82.2726 118.19 81.7353 118.315 81.1467C118.424 80.6349 118.638 80.2034 118.959 79.8521C119.283 79.5059 119.739 79.2656 120.327 79.131L120.302 79.3128L116.434 78.4982L116.836 76.6045ZM119.904 80.773C119.806 81.2379 119.922 81.65 120.253 82.0093C120.588 82.3696 121.102 82.6227 121.796 82.7689C122.482 82.9132 123.042 82.8886 123.477 82.695C123.915 82.5066 124.184 82.1779 124.283 81.7087C124.346 81.4144 124.323 81.1312 124.216 80.859C124.107 80.591 123.905 80.3524 123.609 80.1431C123.317 79.9389 122.927 79.7854 122.438 79.6826C121.706 79.5283 121.124 79.5617 120.692 79.7826C120.26 80.0036 119.998 80.3337 119.904 80.773Z" fill="#033F2D"/>
<path d="M115.974 88.5084C116.232 87.8644 116.604 87.3409 117.09 86.9379C117.575 86.5389 118.136 86.292 118.772 86.1972C119.411 86.108 120.084 86.2038 120.792 86.4845C121.496 86.7635 122.047 87.1513 122.447 87.6477C122.846 88.1483 123.084 88.7073 123.162 89.3248C123.238 89.9464 123.146 90.5832 122.885 91.2353C122.741 91.5957 122.541 91.9384 122.283 92.2634C122.025 92.5925 121.692 92.8573 121.287 93.0578C120.886 93.26 120.397 93.357 119.82 93.3489C119.248 93.3425 118.576 93.186 117.803 92.8795L119.956 87.4972L120.993 87.9085L119.486 91.6749L119.238 91.3584C119.69 91.5002 120.077 91.5595 120.397 91.5364C120.717 91.5133 120.978 91.4267 121.18 91.2766C121.381 91.1266 121.531 90.928 121.63 90.681C121.758 90.361 121.773 90.0574 121.676 89.7702C121.579 89.483 121.387 89.2193 121.102 88.9793C120.819 88.745 120.461 88.5423 120.03 88.3713C119.379 88.1132 118.816 88.0307 118.341 88.1236C117.864 88.2207 117.524 88.5223 117.321 89.0285C117.19 89.3566 117.163 89.6719 117.24 89.9746C117.315 90.2813 117.503 90.5668 117.802 90.831L116.725 92.3043C116.331 91.9697 116.052 91.5893 115.888 91.1629C115.724 90.7365 115.654 90.2934 115.678 89.8336C115.704 89.3794 115.803 88.9377 115.974 88.5084Z" fill="#033F2D"/>
<path d="M114.128 92.955L120.292 96.4472L119.357 98.0841L117.97 97.2983L118.192 97.3336C118.538 97.7855 118.721 98.2502 118.74 98.7276C118.763 99.2072 118.656 99.6554 118.418 100.072C118.351 100.19 118.273 100.304 118.185 100.414C118.096 100.525 117.995 100.627 117.88 100.723L116.505 99.7708C116.714 99.5633 116.883 99.3459 117.013 99.1186C117.119 98.9329 117.198 98.7194 117.251 98.4782C117.301 98.2407 117.294 97.9885 117.23 97.7215C117.167 97.4604 117.019 97.1909 116.785 96.9129C116.553 96.6408 116.208 96.3754 115.752 96.1167L113.16 94.6487L114.128 92.955Z" fill="#033F2D"/>
<path d="M111.28 97.6621L117.104 101.693L115.987 103.293L110.163 99.2622L111.28 97.6621ZM117.241 102.974C117.463 102.656 117.739 102.467 118.068 102.408C118.397 102.349 118.722 102.43 119.042 102.652C119.365 102.875 119.555 103.15 119.61 103.475C119.67 103.803 119.588 104.126 119.366 104.445C119.141 104.767 118.865 104.955 118.539 105.011C118.213 105.072 117.889 104.991 117.565 104.767C117.245 104.546 117.055 104.271 116.996 103.943C116.935 103.619 117.016 103.296 117.241 102.974Z" fill="#033F2D"/>
<path d="M107.006 102.853C107.467 102.334 107.994 101.966 108.589 101.749C109.18 101.537 109.791 101.492 110.423 101.617C111.054 101.747 111.656 102.064 112.227 102.565C112.795 103.064 113.183 103.615 113.391 104.216C113.597 104.821 113.632 105.428 113.496 106.035C113.358 106.646 113.055 107.215 112.589 107.741C112.331 108.032 112.026 108.287 111.674 108.507C111.319 108.73 110.917 108.867 110.467 108.92C110.021 108.976 109.528 108.903 108.988 108.702C108.451 108.503 107.871 108.13 107.247 107.582L111.097 103.238L111.934 103.973L109.24 107.014L109.114 106.632C109.491 106.918 109.835 107.103 110.144 107.189C110.454 107.275 110.729 107.281 110.969 107.207C111.209 107.133 111.418 106.997 111.595 106.797C111.824 106.539 111.941 106.259 111.947 105.956C111.952 105.653 111.861 105.34 111.674 105.018C111.486 104.702 111.219 104.392 110.871 104.086C110.346 103.625 109.843 103.358 109.364 103.286C108.882 103.217 108.46 103.387 108.098 103.795C107.864 104.06 107.731 104.348 107.701 104.659C107.668 104.973 107.748 105.304 107.94 105.654L106.427 106.679C106.17 106.232 106.036 105.78 106.026 105.323C106.016 104.867 106.1 104.426 106.278 104.001C106.456 103.582 106.699 103.2 107.006 102.853Z" fill="#033F2D"/>
<path d="M103.771 106.498L108.257 111.968L106.792 113.159L105.758 111.898L105.98 112.097C106.11 112.593 106.107 113.068 105.971 113.523C105.837 113.98 105.555 114.384 105.125 114.734C104.697 115.081 104.269 115.269 103.84 115.297C103.407 115.328 102.985 115.227 102.573 114.993C102.161 114.76 101.773 114.42 101.407 113.974L98.6743 110.641L100.19 109.409L102.844 112.646C103.163 113.034 103.473 113.282 103.777 113.39C104.083 113.501 104.395 113.428 104.714 113.168C105.09 112.862 105.254 112.462 105.205 111.968C105.152 111.476 104.854 110.899 104.311 110.237L102.255 107.73L103.771 106.498Z" fill="#033F2D"/>
<path d="M94.4303 112.971C95.0747 112.6 95.7094 112.409 96.3344 112.396C96.9555 112.386 97.5322 112.548 98.0644 112.881C98.5966 113.214 99.0544 113.711 99.4378 114.372C99.819 115.028 100.022 115.669 100.046 116.295C100.07 116.92 99.9218 117.497 99.6008 118.024C99.2819 118.555 98.8003 119.006 98.1559 119.377C97.6935 119.643 97.2151 119.807 96.7207 119.87C96.2263 119.933 95.7455 119.88 95.2782 119.711C94.8093 119.548 94.3834 119.254 94.0007 118.83L95.4069 117.567C95.7422 117.954 96.0822 118.191 96.4269 118.279C96.7738 118.372 97.1141 118.322 97.4476 118.13C97.9063 117.866 98.1423 117.489 98.1556 116.998C98.1651 116.509 97.9968 115.966 97.6507 115.37C97.3067 114.777 96.9219 114.367 96.4961 114.139C96.0725 113.914 95.6276 113.936 95.1614 114.204C94.8392 114.39 94.624 114.642 94.5159 114.961C94.4062 115.286 94.4163 115.678 94.5462 116.137L92.8264 116.741C92.6875 116.328 92.632 115.932 92.66 115.553C92.6902 115.178 92.7857 114.829 92.9465 114.505C93.1056 114.187 93.3127 113.899 93.5678 113.641C93.8206 113.38 94.1082 113.156 94.4303 112.971Z" fill="#033F2D"/>
<path d="M87.3539 116.263C88.0046 116.016 88.6434 115.935 89.2705 116.02C89.8935 116.106 90.4552 116.35 90.9556 116.753C91.4535 117.162 91.8377 117.72 92.1085 118.429C92.3776 119.134 92.4637 119.801 92.3666 120.43C92.2655 121.061 92.0128 121.614 91.6086 122.088C91.2003 122.565 90.6668 122.928 90.0079 123.177C89.6437 123.315 89.2544 123.399 88.84 123.43C88.4215 123.463 88.0011 123.398 87.5786 123.236C87.1577 123.079 86.7554 122.785 86.3717 122.357C85.9896 121.933 85.6507 121.333 85.3551 120.559L90.7937 118.5L91.1904 119.539L87.3846 120.98L87.4512 120.584C87.652 121.012 87.8692 121.335 88.1028 121.555C88.3365 121.774 88.5769 121.907 88.8241 121.953C89.0713 122 89.3197 121.976 89.5693 121.881C89.8926 121.759 90.1277 121.565 90.2745 121.299C90.4214 121.034 90.4871 120.715 90.4716 120.343C90.4535 119.977 90.362 119.578 90.1971 119.146C89.9482 118.494 89.6286 118.025 89.2384 117.739C88.844 117.455 88.3911 117.409 87.8796 117.603C87.5481 117.728 87.2964 117.922 87.1244 118.183C86.9483 118.445 86.8637 118.776 86.8706 119.174L85.0523 119.38C85.0335 118.864 85.1265 118.403 85.3311 117.994C85.5357 117.585 85.8162 117.234 86.1726 116.941C86.5263 116.653 86.9201 116.427 87.3539 116.263Z" fill="#033F2D"/>
<path d="M79.0292 123.587L80.3293 124.265L79.3354 125.638L80.9756 125.691L80.7267 127.121L79.0954 126.584L79.5704 128.201L78.1277 128.41L78.1206 126.726L76.704 127.704L76.0627 126.402L77.6197 125.886L76.2807 124.851L77.3331 123.833L78.4245 125.353L79.0292 123.587Z" fill="#033F2D"/>
<path d="M69.7279 119.66L69.6392 120.873L66.0879 123.337C65.6945 123.614 65.3748 123.875 65.1286 124.119C64.8825 124.364 64.6972 124.617 64.5727 124.879C64.4482 125.141 64.3742 125.433 64.3506 125.754C64.3233 126.128 64.3625 126.433 64.4682 126.668C64.574 126.903 64.7302 127.078 64.9368 127.193C65.1434 127.309 65.3843 127.377 65.6594 127.397C66.0655 127.426 66.3862 127.362 66.6216 127.204C66.8523 127.05 67.0232 126.844 67.1343 126.586C67.2451 126.331 67.3214 126.068 67.3633 125.796L69.3592 126.504C69.2634 126.974 69.0433 127.404 68.6987 127.794C68.3494 128.188 67.9034 128.495 67.3607 128.713C66.818 128.932 66.2126 129.017 65.5445 128.968C65.1471 128.94 64.7472 128.856 64.3447 128.718C63.9375 128.583 63.57 128.386 63.2423 128.126C62.9101 127.866 62.6506 127.544 62.4636 127.158C62.2767 126.773 62.2023 126.32 62.2404 125.798C62.2942 125.063 62.5749 124.406 63.0825 123.827C63.5899 123.252 64.2877 122.712 65.1762 122.208L67.6401 120.748L68.0457 121.144L62.616 120.751L62.7329 119.153L69.7279 119.66Z" fill="#033F2D"/>
<path d="M58.1284 117.958C58.7334 118.1 59.2739 118.344 59.7498 118.689C60.2247 119.038 60.5833 119.47 60.8256 119.984C61.068 120.498 61.1418 121.077 61.047 121.722L58.9229 121.659C59.0286 121.119 58.9865 120.652 58.7967 120.258C58.6068 119.864 58.2584 119.608 57.7514 119.488C57.4148 119.409 57.1113 119.418 56.8407 119.516C56.569 119.617 56.3376 119.787 56.1463 120.024C55.954 120.265 55.8176 120.556 55.737 120.895C55.6191 121.392 55.6639 121.819 55.8713 122.177C56.0787 122.535 56.4274 122.771 56.9173 122.887C57.2667 122.969 57.5713 122.955 57.8311 122.846C58.0867 122.736 58.3112 122.568 58.5048 122.34L60.4816 122.967L58.8335 127.974L52.8517 126.566L53.222 125.007L57.6061 126.039L58.4965 123.312L58.7351 123.53C58.39 123.865 57.9862 124.088 57.5235 124.199C57.0599 124.313 56.5575 124.307 56.0164 124.18C55.3688 124.027 54.8526 123.767 54.4677 123.398C54.0785 123.029 53.8228 122.59 53.7006 122.082C53.5773 121.578 53.5837 121.04 53.7197 120.467C53.891 119.746 54.2043 119.175 54.6598 118.753C55.1153 118.332 55.6485 118.057 56.2596 117.927C56.8707 117.798 57.4936 117.808 58.1284 117.958Z" fill="#033F2D"/>
<path d="M50.9799 116.894L49.9085 119.403L52.3501 120.437L51.7284 121.893L49.2868 120.859L48.2154 123.369L46.5957 122.683L47.6671 120.174L45.2255 119.14L45.8473 117.684L48.2889 118.717L49.3602 116.208L50.9799 116.894Z" fill="#033F2D"/>
<path d="M40.3931 109.836L38.2701 112.672L37.3645 119.332L35.6479 118.058L36.5415 113.045L36.7837 113.225L32.2148 115.511L30.4982 114.237L36.6352 111.476L38.766 108.629L40.3931 109.836Z" fill="#033F2D"/>
<path d="M34.3625 104.35C34.8496 104.845 35.1796 105.396 35.3528 106.002C35.5229 106.605 35.5227 107.215 35.3521 107.833C35.1753 108.451 34.8147 109.025 34.2704 109.556C33.7293 110.083 33.1498 110.429 32.532 110.592C31.9111 110.752 31.3013 110.742 30.7026 110.563C30.1008 110.381 29.5534 110.04 29.0602 109.538C28.7876 109.261 28.5542 108.94 28.3599 108.574C28.1626 108.205 28.0539 107.795 28.0339 107.345C28.0107 106.898 28.1196 106.413 28.3604 105.892C28.598 105.373 29.014 104.824 29.6084 104.245L33.6791 108.384L32.8814 109.162L30.0328 106.265L30.4239 106.168C30.1106 106.522 29.8997 106.85 29.7913 107.151C29.6829 107.452 29.6568 107.724 29.713 107.968C29.7693 108.212 29.8908 108.429 30.0776 108.619C30.3196 108.866 30.5922 109.002 30.8953 109.03C31.1984 109.058 31.518 108.991 31.854 108.828C32.1839 108.665 32.5147 108.421 32.8462 108.098C33.3467 107.61 33.6505 107.131 33.7577 106.66C33.8617 106.187 33.7223 105.755 33.3395 105.366C33.0914 105.114 32.8128 104.961 32.5037 104.909C32.1916 104.853 31.8536 104.908 31.4896 105.074L30.5729 103.497C31.0396 103.273 31.502 103.173 31.9599 103.197C32.4179 103.22 32.8532 103.335 33.2658 103.543C33.6723 103.751 34.0379 104.02 34.3625 104.35Z" fill="#033F2D"/>
<path d="M29.9373 99.1375C30.1977 99.5041 30.3735 99.8875 30.4648 100.288C30.5525 100.691 30.5347 101.077 30.4113 101.447C30.2854 101.813 30.0295 102.132 29.6434 102.404C29.2288 102.696 28.7921 102.825 28.3332 102.79C27.8743 102.756 27.4079 102.563 26.9342 102.214C26.4569 101.866 25.9895 101.371 25.5319 100.726L24.9555 99.9149L25.1685 99.9091L24.8361 100.143C24.4536 100.413 24.2188 100.682 24.1315 100.952C24.0407 101.224 24.109 101.52 24.3366 101.841C24.554 102.147 24.803 102.324 25.0838 102.372C25.3584 102.418 25.6584 102.354 25.984 102.178L26.858 103.997C26.4933 104.163 26.1065 104.23 25.6974 104.198C25.2823 104.165 24.8626 104.012 24.4384 103.739C24.0142 103.467 23.6049 103.053 23.2105 102.497C22.849 101.989 22.6253 101.5 22.5394 101.032C22.45 100.566 22.5231 100.114 22.7587 99.676C22.9919 99.2341 23.414 98.798 24.0252 98.3675L25.9929 96.9817C26.1144 96.8961 26.1834 96.8235 26.2 96.7637C26.214 96.7005 26.1819 96.6136 26.1035 96.5033L25.9177 96.2417L27.0865 95.4185L27.625 96.1766C27.9208 96.593 28.0421 96.9828 27.989 97.3459C27.9298 97.708 27.7036 98.0275 27.3105 98.3044L27.037 98.497L26.9471 98.1438C27.1336 98.0818 27.3461 98.0337 27.5844 97.9993C27.8228 97.9649 28.0775 97.9724 28.3485 98.0218C28.6134 98.0702 28.8819 98.1801 29.1539 98.3517C29.4259 98.5232 29.687 98.7851 29.9373 99.1375ZM28.5174 99.4487C28.3405 99.1995 28.1265 99.0191 27.8756 98.9075C27.6247 98.7959 27.3457 98.7654 27.0386 98.8162C26.7279 98.8695 26.401 99.017 26.0579 99.2587L25.9345 99.3455L26.4124 100.018C26.6829 100.399 26.944 100.661 27.1958 100.804C27.445 100.944 27.6732 101.004 27.8805 100.987C28.0841 100.971 28.2538 100.916 28.3897 100.82C28.4969 100.745 28.59 100.642 28.669 100.511C28.7454 100.377 28.78 100.222 28.7727 100.046C28.7593 99.8684 28.6742 99.6693 28.5174 99.4487Z" fill="#033F2D"/>
<path d="M26.6623 94.4458L20.3832 97.7295L19.5038 96.0623L20.9166 95.3234L20.7672 95.4902C20.1983 95.5366 19.7067 95.4391 19.2926 95.1977C18.8746 94.9584 18.5537 94.6265 18.3297 94.2019C18.2666 94.0823 18.2122 93.9556 18.1664 93.822C18.1207 93.6884 18.0885 93.5476 18.0698 93.3998L19.6168 92.7607C19.6794 93.048 19.7717 93.3075 19.8939 93.5391C19.9936 93.7282 20.1314 93.9097 20.3072 94.0837C20.481 94.2537 20.698 94.384 20.9583 94.4744C21.2127 94.5629 21.5206 94.5841 21.882 94.5379C22.2374 94.4899 22.6477 94.3443 23.1128 94.101L25.7523 92.7206L26.6623 94.4458Z" fill="#033F2D"/>
<path d="M23.4151 87.009C23.6014 87.5075 23.7052 88.004 23.7264 88.4984C23.7436 88.9944 23.6548 89.4506 23.46 89.8669C23.2653 90.2833 22.937 90.6235 22.4751 90.8877L21.5199 89.3438C21.8795 89.1687 22.1138 88.9331 22.2227 88.6369C22.3259 88.3382 22.2989 87.9784 22.1417 87.5576C21.9905 87.1531 21.7983 86.8825 21.565 86.7456C21.3276 86.6103 21.1001 86.583 20.8827 86.6635C20.6898 86.735 20.5527 86.8742 20.4712 87.0811C20.3881 87.284 20.3881 87.584 20.4711 87.9812L20.5971 88.6182C20.6487 88.8689 20.6941 89.1405 20.7333 89.4329C20.7669 89.7228 20.7644 90.0098 20.7257 90.2939C20.683 90.5795 20.575 90.8405 20.4017 91.0768C20.2284 91.3131 19.9612 91.4981 19.6001 91.6319C19.1611 91.7946 18.7421 91.8172 18.3433 91.6999C17.9388 91.58 17.5766 91.342 17.2568 90.9861C16.9328 90.6317 16.6708 90.1869 16.4708 89.6516C16.2861 89.1573 16.1912 88.6784 16.1863 88.2151C16.1772 87.7533 16.2631 87.3331 16.4439 86.9545C16.6191 86.5733 16.8987 86.2651 17.2826 86.0298L18.2501 87.5691C18.0926 87.66 17.9552 87.7737 17.8381 87.9101C17.7194 88.0425 17.6454 88.2071 17.6162 88.404C17.5829 88.6024 17.6181 88.8405 17.722 89.1183C17.8395 89.4329 17.995 89.6614 18.1883 89.8037C18.3801 89.942 18.5827 89.9716 18.796 89.8925C18.9519 89.8348 19.0601 89.7366 19.1204 89.5979C19.1792 89.4552 19.2057 89.2826 19.2001 89.08C19.1888 88.8749 19.161 88.6503 19.1165 88.4063L18.977 87.6766C18.9031 87.3039 18.8792 86.9337 18.9053 86.5659C18.9257 86.1955 19.0298 85.8616 19.2176 85.5641C19.4054 85.2666 19.7127 85.0388 20.1394 84.8807C20.6113 84.7059 21.0574 84.6871 21.4777 84.8244C21.8965 84.9576 22.2732 85.2157 22.6079 85.5987C22.9369 85.9792 23.206 86.4493 23.4151 87.009Z" fill="#033F2D"/>
<path d="M21.0017 79.2801L11.6204 80.4648L10.7809 73.874L12.4813 73.6592L13.0654 78.2456L15.0003 78.0012L14.5046 74.109L16.1333 73.9033L16.629 77.7956L19.046 77.4903L18.4503 72.8131L20.1507 72.5984L21.0017 79.2801Z" fill="#033F2D"/>
<path d="M20.13 71.7652L16.5553 68.9456L13.0487 71.3235L13.125 69.1408L15.5297 67.6472L13.2317 66.0889L13.3092 63.8735L16.7761 66.5781L20.3998 64.0473L20.3212 66.2954L17.7961 67.8501L20.207 69.5629L20.13 71.7652Z" fill="#033F2D"/>
<path d="M23.0782 63.7925L13.6166 61.8853L13.984 60.0779L15.3807 60.3595L15.2738 60.3579C14.8161 60.0166 14.5118 59.6239 14.3609 59.1798C14.2065 58.7306 14.1797 58.2582 14.2805 57.7626C14.3986 57.1815 14.6466 56.7089 15.0244 56.3447C15.3987 55.9754 15.884 55.7307 16.4801 55.6107C17.072 55.4898 17.7498 55.5063 18.5136 55.6603C19.2774 55.8143 19.9079 56.0637 20.4051 56.4085C20.8988 56.7482 21.2456 57.1628 21.4454 57.6523C21.6417 58.1367 21.6799 58.6737 21.5601 59.2633C21.4558 59.776 21.2449 60.2094 20.9272 60.5635C20.6061 60.9124 20.1522 61.1567 19.5655 61.2964L19.5891 61.1144L23.4638 61.8954L23.0782 63.7925ZM19.9737 59.6507C20.0684 59.185 19.9488 58.7739 19.6147 58.4175C19.2764 58.0602 18.7597 57.8115 18.0646 57.6714C17.378 57.533 16.8181 57.5625 16.3849 57.7598C15.9483 57.952 15.6822 58.2831 15.5867 58.7531C15.5268 59.0479 15.5518 59.331 15.662 59.6022C15.773 59.8692 15.9772 60.1061 16.2746 60.3128C16.5687 60.5144 16.9603 60.6645 17.4494 60.7631C18.1832 60.911 18.765 60.8726 19.1948 60.6479C19.6246 60.4232 19.8843 60.0908 19.9737 59.6507Z" fill="#033F2D"/>
<path d="M23.8379 51.8778C23.5859 52.5239 23.2185 53.0506 22.7356 53.4578C22.2543 53.8609 21.6959 54.1126 21.0603 54.2129C20.4222 54.3075 19.7481 54.2176 19.038 53.943C18.332 53.6699 17.7769 53.2869 17.3727 52.7939C16.9701 52.2968 16.7271 51.7399 16.6436 51.123C16.5617 50.5021 16.6484 49.8645 16.9035 49.2103C17.0446 48.8486 17.2423 48.5042 17.4967 48.177C17.7527 47.8457 18.0826 47.5781 18.4862 47.3741C18.8857 47.1685 19.3737 47.0673 19.9502 47.0704C20.5226 47.0719 21.1965 47.2226 21.9719 47.5225L19.8655 52.9231L18.8249 52.5207L20.2988 48.7415L20.5496 49.0559C20.0961 48.918 19.7094 48.8619 19.3893 48.8878C19.0693 48.9137 18.8092 49.0025 18.6091 49.1543C18.409 49.3061 18.2606 49.5059 18.1639 49.7538C18.0387 50.0748 18.0259 50.3785 18.1256 50.6649C18.2252 50.9513 18.4189 51.2133 18.7067 51.4508C18.992 51.6827 19.3509 51.8823 19.7835 52.0496C20.4365 52.3021 21.0003 52.3799 21.4749 52.2828C21.9511 52.1817 22.2883 51.8771 22.4864 51.3692C22.6148 51.04 22.6393 50.7245 22.5598 50.4225C22.4819 50.1164 22.292 49.8326 21.9902 49.5709L23.0544 48.0884C23.4513 48.4196 23.7336 48.7977 23.9013 49.2226C24.069 49.6476 24.143 50.0901 24.1233 50.5501C24.101 51.0045 24.0059 51.447 23.8379 51.8778Z" fill="#033F2D"/>
<path d="M25.645 47.4145L19.4504 43.9754L20.3714 42.3305L21.7652 43.1043L21.5433 43.0709C21.1931 42.622 21.0063 42.1589 20.9828 41.6817C20.9555 41.2023 21.0591 40.7533 21.2936 40.3344C21.3597 40.2164 21.4364 40.1018 21.5237 39.9905C21.6111 39.8793 21.7118 39.7755 21.8259 39.6791L23.2092 40.6193C23.0018 40.8286 22.8342 41.0475 22.7063 41.2759C22.6018 41.4625 22.5245 41.6766 22.4744 41.9183C22.4264 42.1562 22.4356 42.4084 22.5019 42.6748C22.5666 42.9353 22.7171 43.2036 22.9536 43.4796C23.1883 43.7496 23.5351 44.012 23.994 44.2668L26.598 45.7125L25.645 47.4145Z" fill="#033F2D"/>
<path d="M28.4514 42.6839L22.5928 38.7034L23.6958 37.0938L29.5544 41.0742L28.4514 42.6839ZM22.4446 37.4232C22.225 37.7437 21.9509 37.9348 21.6223 37.9966C21.2938 38.0583 20.9686 37.9799 20.6468 37.7612C20.3213 37.5401 20.1293 37.2672 20.0709 36.9425C20.0089 36.6154 20.0877 36.2916 20.3073 35.9711C20.5294 35.647 20.8034 35.4559 21.1295 35.3977C21.4544 35.3334 21.7796 35.4119 22.1051 35.633C22.4269 35.8517 22.6189 36.1246 22.6809 36.4518C22.7454 36.7753 22.6666 37.0991 22.4446 37.4232Z" fill="#033F2D"/>
<path d="M32.6806 37.4592C32.2245 37.9828 31.7002 38.3553 31.1077 38.5765C30.5181 38.7944 29.9071 38.8438 29.2748 38.7248C28.6421 38.5997 28.0379 38.2886 27.4624 37.7916C26.8902 37.2975 26.4974 36.7506 26.2838 36.1507C26.0732 35.5476 26.033 34.9416 26.1633 34.3329C26.2965 33.7208 26.594 33.1497 27.0558 32.6194C27.3111 32.3263 27.6139 32.0684 27.9642 31.8459C28.3174 31.62 28.7185 31.4788 29.1676 31.4222C29.6133 31.3629 30.107 31.4314 30.6487 31.6279C31.187 31.8216 31.7704 32.1897 32.3988 32.7324L28.5868 37.1094L27.7434 36.3811L30.411 33.3182L30.5405 33.6984C30.1604 33.4163 29.8152 33.2337 29.5052 33.1505C29.1951 33.0674 28.9201 33.0637 28.6804 33.1394C28.4406 33.2151 28.2332 33.3534 28.0583 33.5543C27.8317 33.8145 27.7168 34.0961 27.7136 34.3992C27.7104 34.7023 27.8041 35.014 27.9945 35.3342C28.1846 35.6483 28.4549 35.9568 28.8055 36.2595C29.3347 36.7165 29.8391 36.979 30.3188 37.047C30.8014 37.1117 31.2219 36.9382 31.5805 36.5266C31.8128 36.2598 31.9427 35.9709 31.9701 35.6599C32.0005 35.3457 31.9179 35.0147 31.7223 34.6669L33.2263 33.6287C33.4878 34.0737 33.6255 34.5244 33.6395 34.9808C33.6534 35.4372 33.5732 35.8786 33.3989 36.3051C33.224 36.7254 32.9846 37.1101 32.6806 37.4592Z" fill="#033F2D"/>
<path d="M35.884 33.7853L31.3514 28.3534L32.8061 27.1499L33.8511 28.4022L33.6269 28.2052C33.4925 27.7099 33.4915 27.2346 33.6239 26.7793C33.7535 26.3207 34.0321 25.9145 34.4598 25.5607C34.8841 25.2096 35.3107 25.0183 35.7395 24.9865C36.1718 24.952 36.5948 25.0497 37.0087 25.2797C37.4226 25.5097 37.8143 25.846 38.1836 26.2886L40.9451 29.598L39.4399 30.8433L36.7581 27.6295C36.4364 27.2439 36.1234 26.9984 35.8191 26.893C35.5121 26.7843 35.2004 26.8609 34.8838 27.1227C34.51 27.432 34.35 27.8336 34.4036 28.3277C34.4607 28.8189 34.7634 29.3932 35.3117 30.0504L37.3892 32.54L35.884 33.7853Z" fill="#033F2D"/>
<path d="M45.1694 27.2317C44.5282 27.608 43.8952 27.805 43.2704 27.8226C42.6493 27.838 42.0712 27.6814 41.5362 27.3528C41.0011 27.0242 40.5391 26.5313 40.15 25.8741C39.7631 25.2207 39.5549 24.5813 39.5252 23.9561C39.4955 23.3308 39.6389 22.7532 39.9554 22.2233C40.2697 21.6897 40.7474 21.2347 41.3885 20.8583C41.8486 20.5883 42.3256 20.4196 42.8194 20.3524C43.3133 20.2852 43.7945 20.3341 44.2633 20.4992C44.7336 20.6584 45.1619 20.9484 45.5483 21.3693L44.1531 22.6437C43.8145 22.2606 43.4724 22.0262 43.1269 21.9405C42.7792 21.8511 42.4394 21.9038 42.1076 22.0986C41.6512 22.3665 41.4185 22.746 41.4094 23.2371C41.4041 23.7261 41.5771 24.2672 41.9284 24.8606C42.2774 25.4502 42.6658 25.8573 43.0936 26.0819C43.5191 26.3027 43.9638 26.277 44.4277 26.0047C44.7483 25.8165 44.9612 25.5624 45.0666 25.2425C45.1735 24.9166 45.16 24.5247 45.0262 24.0669L46.7407 23.4476C46.8831 23.8599 46.942 24.2555 46.9173 24.6344C46.8903 25.0095 46.7979 25.3598 46.6399 25.6853C46.4835 26.0048 46.2789 26.2945 46.0261 26.5542C45.7755 26.8177 45.4899 27.0435 45.1694 27.2317Z" fill="#033F2D"/>
<path d="M52.2189 23.8802C51.5704 24.1321 50.9323 24.2186 50.3045 24.1395C49.6808 24.0589 49.117 23.8193 48.6131 23.4208C48.1118 23.0166 47.7226 22.4611 47.4458 21.7545C47.1706 21.0519 47.0787 20.3856 47.1703 19.7558C47.266 19.1243 47.5139 18.5695 47.9139 18.0912C48.3181 17.6114 48.8485 17.2439 49.5051 16.9889C49.8682 16.8479 50.2567 16.7601 50.6708 16.7256C51.089 16.6895 51.51 16.7506 51.9339 16.9088C52.3561 17.063 52.7609 17.3526 53.1483 17.7777C53.5341 18.1987 53.8782 18.7951 54.1805 19.5667L48.7599 21.6722L48.3542 20.6366L52.1474 19.1632L52.0842 19.5597C51.8798 19.1338 51.6598 18.8121 51.4242 18.5948C51.1887 18.3774 50.9472 18.2467 50.6996 18.2025C50.452 18.1582 50.2038 18.1845 49.955 18.2811C49.6328 18.4063 49.3994 18.6022 49.2548 18.8689C49.1102 19.1356 49.0473 19.4549 49.0661 19.8266C49.0873 20.1927 49.1822 20.591 49.3509 21.0215C49.6055 21.6713 49.9291 22.1375 50.3218 22.4202C50.7185 22.7013 51.1718 22.7428 51.6817 22.5447C52.012 22.4164 52.2621 22.221 52.4318 21.9586C52.6057 21.6945 52.6874 21.3633 52.677 20.9649L54.4935 20.7436C54.5167 21.2587 54.4278 21.7214 54.2267 22.1318C54.0256 22.5421 53.7481 22.8955 53.3944 23.192C53.0431 23.4829 52.6513 23.7123 52.2189 23.8802Z" fill="#033F2D"/>
<path d="M60.481 16.4829L59.1751 15.8167L60.1572 14.4353L58.5166 14.3961L58.7532 12.9637L60.389 13.4866L59.9001 11.8745L61.341 11.6533L61.3626 13.3371L62.7707 12.3468L63.4232 13.6426L61.8706 14.1722L63.2186 15.1958L62.1749 16.2228L61.0705 14.7119L60.481 16.4829Z" fill="#033F2D"/>
<circle cx="70" cy="70" r="35" fill="#033F2D"/>
<path d="M62.659 69.3667C64.3153 70.7973 66.1703 71.5384 67.3492 71.8966C67.0901 71.5682 66.8604 71.2376 66.6613 70.9049C65.487 70.4527 63.9872 69.69 62.7037 68.4494L62.2166 67.9785L62.1085 68.6474C62.1016 68.6889 61.3485 72.9069 56.1759 75.9171C56.007 76.0154 55.9498 76.232 56.0481 76.4009C56.1138 76.5138 56.2324 76.5768 56.3542 76.5768C56.4146 76.5768 56.4759 76.5614 56.5319 76.5288C60.8777 73.9997 62.2588 70.7107 62.659 69.3667Z" fill="#C7F268"/>
<path d="M59.7829 58.0108C63.209 58.21 63.1658 64.0073 63.165 64.0659L63.1618 64.2923L63.366 64.3901C64.5789 64.9709 65.3621 65.5836 65.865 66.1054C65.932 65.8444 66.0136 65.5947 66.107 65.3572C65.5863 64.8721 64.8664 64.3472 63.8707 63.8492C63.8592 63.3524 63.7926 62.1177 63.4277 60.8494C62.7891 58.6301 61.543 57.4043 59.824 57.3044C59.6303 57.2926 59.4615 57.442 59.4502 57.637C59.4388 57.8321 59.5878 57.9995 59.7829 58.0108Z" fill="#C7F268"/>
<path d="M73.7353 66.1054C74.2382 65.5836 75.0215 64.9709 76.2344 64.3901L76.4386 64.2923L76.4354 64.0659C76.4345 64.0074 76.3914 58.21 79.8175 58.0108C80.0126 57.9994 80.1616 57.8321 80.1502 57.637C80.1389 57.442 79.9701 57.2926 79.7764 57.3044C78.0574 57.4043 76.8113 58.6301 76.1727 60.8494C75.8078 62.1177 75.7412 63.3524 75.7297 63.8492C74.734 64.3472 74.0141 64.8721 73.4934 65.3572C73.5867 65.5946 73.6683 65.8444 73.7353 66.1054Z" fill="#C7F268"/>
<path d="M77.5844 78.8715C76.9641 76.4507 77.0087 74.571 77.0093 74.5525L77.0272 73.9365L76.4861 74.2317C75.8078 74.6016 74.7981 74.5216 73.9843 74.3596C74.1552 74.5958 74.3251 74.8604 74.4877 75.1541C75.09 75.2239 75.7376 75.2248 76.3075 75.0618C76.3331 75.8059 76.4446 77.2654 76.8933 79.025C77.486 81.3496 78.8069 84.6463 81.7332 87.1512C81.7999 87.2083 81.8817 87.2363 81.9632 87.2363C82.063 87.2363 82.1622 87.1943 82.2321 87.1125C82.3592 86.9641 82.3419 86.7407 82.1934 86.6136C79.4142 84.2347 78.153 81.0903 77.5844 78.8715Z" fill="#C7F268"/>
<path d="M83.4238 75.9171C78.2513 72.9069 77.4982 68.6889 77.4912 68.6474L77.3832 67.9785L76.896 68.4494C75.6126 69.69 74.1127 70.4527 72.9384 70.9049C72.7393 71.2376 72.5097 71.5682 72.2505 71.8966C73.4294 71.5384 75.2845 70.7973 76.9407 69.3667C77.3409 70.7107 78.722 73.9997 83.0678 76.5288C83.1238 76.5614 83.185 76.5768 83.2454 76.5768C83.3673 76.5768 83.4859 76.5138 83.5516 76.4009C83.6499 76.232 83.5927 76.0154 83.4238 75.9171Z" fill="#C7F268"/>
<path d="M65.1121 75.1541C65.2747 74.8604 65.4445 74.5958 65.6155 74.3596C64.8017 74.5216 63.7919 74.6015 63.1136 74.2317L62.5726 73.9365L62.5905 74.5525C62.591 74.571 62.6356 76.4508 62.0153 78.8715C61.4467 81.0903 60.1855 84.2347 57.4063 86.6136C57.2579 86.7407 57.2406 86.9641 57.3676 87.1125C57.4376 87.1943 57.5367 87.2363 57.6366 87.2363C57.718 87.2363 57.7998 87.2083 57.8665 87.1512C60.7929 84.6463 62.1137 81.3496 62.7065 79.025C63.1552 77.2654 63.2666 75.8059 63.2923 75.0618C63.8622 75.2248 64.5097 75.2239 65.1121 75.1541Z" fill="#C7F268"/>
<path d="M71.0828 72.5522C76.479 67.0677 71.0828 62.7332 71.0828 62.7332C71.0828 62.7332 74.7097 63.5293 73.4713 60.3447C73.1691 59.5676 72.7957 59.0122 72.4039 58.6159C72.747 58.2675 73.3278 57.8746 74.26 57.7475L74.5964 57.7015L74.4707 57.3861C74.4588 57.3563 73.296 54.3833 74.4535 52.3991C74.5273 52.2726 74.4845 52.11 74.358 52.0362C74.2313 51.9623 74.0688 52.0052 73.995 52.1317C72.9252 53.9656 73.5831 56.42 73.8678 57.2767C72.9608 57.4661 72.3707 57.8863 72.0041 58.2673C71.646 58.0011 71.2873 57.8471 70.9664 57.7605C71.2616 56.2587 70.2866 55.7448 70.2866 55.7448C70.917 56.447 70.7298 57.2756 70.5766 57.6827C70.1154 57.6222 69.8001 57.691 69.8001 57.691C69.8001 57.691 69.4848 57.6222 69.0235 57.6827C68.8704 57.2756 68.6832 56.447 69.3135 55.7448C69.3135 55.7448 68.3385 56.2587 68.6338 57.7605C68.3129 57.847 67.9542 58.0011 67.5961 58.2673C67.2294 57.8863 66.6394 57.4661 65.7324 57.2767C66.0171 56.42 66.675 53.9656 65.6052 52.1317C65.5313 52.0052 65.3689 51.9623 65.2422 52.0362C65.1156 52.11 65.0728 52.2726 65.1467 52.3991C66.3042 54.3833 65.1414 57.3564 65.1295 57.3861L65.0037 57.7015L65.3401 57.7475C66.2723 57.8746 66.8531 58.2675 67.1962 58.6159C66.8045 59.0122 66.4311 59.5676 66.1289 60.3447C64.8904 63.5293 68.5174 62.7332 68.5174 62.7332C68.5174 62.7332 63.1212 67.0677 68.5174 72.5522C68.5174 72.5522 64.5366 73.8791 64.3596 79.9387C64.1827 85.9982 69.0924 88.5193 69.8 88.9616C70.5077 88.5193 75.4174 85.9982 75.2404 79.9387C75.0635 73.8791 71.0828 72.5522 71.0828 72.5522ZM65.9078 83.0495C64.0501 76.6509 68.5321 73.7612 68.5321 73.7612C65.9667 77.1522 65.9078 83.0495 65.9078 83.0495Z" fill="#C7F268"/>
</svg>
