<svg width="30" height="30" viewBox="0 0 30 30" fill="none" xmlns="http://www.w3.org/2000/svg">
<g clip-path="url(#clip0_352_5496)">
<path d="M5.66712 18.8768C5.622 18.8344 5.56892 18.8013 5.51095 18.7795C5.45297 18.7577 5.39126 18.7477 5.32936 18.7499C5.26747 18.7521 5.20662 18.7665 5.15035 18.7924C5.09407 18.8182 5.04347 18.855 5.00148 18.9005C4.95948 18.946 4.92693 18.9994 4.90569 19.0576C4.88445 19.1158 4.87496 19.1776 4.87775 19.2394C4.88054 19.3013 4.89557 19.362 4.92196 19.418C4.94834 19.4741 4.98558 19.5243 5.0315 19.5659C5.86444 20.3533 6.57537 21.2604 7.14087 22.2574C8.96384 25.414 8.9615 28.2434 7.81587 28.9043C6.67025 29.5652 4.21868 28.1534 2.39618 24.9963C1.60452 23.6915 1.11103 22.2279 0.951028 20.7101C0.869935 19.5382 1.15118 18.679 1.72118 18.3499C2.29118 18.0209 3.02618 18.2562 3.54368 18.5084C3.59918 18.5382 3.66012 18.5565 3.72287 18.5623C3.78561 18.568 3.84887 18.5611 3.90887 18.5418C3.96886 18.5226 4.02436 18.4914 4.07204 18.4502C4.11972 18.4091 4.15861 18.3587 4.18639 18.3021C4.21416 18.2456 4.23025 18.184 4.23368 18.1211C4.23712 18.0582 4.22784 17.9952 4.2064 17.936C4.18495 17.8767 4.15178 17.8224 4.10887 17.7763C4.06596 17.7301 4.01419 17.6931 3.95665 17.6674C2.92165 17.1588 1.9879 17.1143 1.25243 17.5376C0.34681 18.0602 -0.0938153 19.2101 0.0158722 20.7748C0.185928 22.4348 0.721397 24.0365 1.58384 25.4651C3.18743 28.2452 5.43743 29.9998 7.18165 29.9993C7.56743 30.0049 7.94776 29.9078 8.28369 29.7181C10.0687 28.6868 9.92431 25.2049 7.95228 21.7901C7.33955 20.7108 6.56937 19.729 5.66712 18.8768Z" fill="#033F2D"/>
<path d="M2.00688 19.4173C1.72 20.0918 1.79266 22.0756 3.20735 24.5267C4.6286 26.9881 6.27672 28.0231 7.03797 28.1182C7.05741 28.1207 7.07698 28.1219 7.09657 28.122C7.18815 28.1219 7.27772 28.095 7.35419 28.0446C7.43067 27.9942 7.4907 27.9225 7.52688 27.8384C7.8161 27.1653 7.74672 25.1825 6.32829 22.7253C4.91922 20.2878 3.26829 19.2425 2.50235 19.137C2.4005 19.1233 2.29698 19.1433 2.20754 19.1939C2.11811 19.2445 2.04764 19.323 2.00688 19.4173ZM5.51641 23.1935C6.24109 24.3438 6.65832 25.6608 6.72813 27.0185C5.58324 26.2838 4.64972 25.2632 4.01969 24.0575C3.29521 22.9073 2.87815 21.5904 2.80844 20.2329C3.95422 20.9663 4.88787 21.9871 5.51641 23.1935Z" fill="#033F2D"/>
<path d="M28.7473 17.5332C26.9623 16.502 24.019 18.37 22.0475 21.7843C20.0759 25.1987 19.9311 28.6811 21.7161 29.7123C22.052 29.9021 22.4323 29.9992 22.8181 29.9936C24.5619 29.9936 26.8109 28.239 28.4159 25.4593C29.2784 24.0308 29.8138 22.429 29.9839 20.769C30.0936 19.2057 29.6529 18.0559 28.7473 17.5332ZM29.0487 20.7057C28.8887 22.2235 28.3952 23.6872 27.6036 24.992C25.7811 28.149 23.3304 29.5623 22.1848 28.9C21.0392 28.2376 21.0369 25.4096 22.8598 22.2531C24.6828 19.0965 27.1334 17.6837 28.2786 18.3456C28.8486 18.6746 29.1298 19.5348 29.0487 20.7057Z" fill="#033F2D"/>
<path d="M27.5018 19.1325C26.7406 19.2263 25.0925 20.2627 23.6717 22.7236C22.2509 25.1846 22.1834 27.1636 22.4726 27.8368C22.5088 27.9209 22.5688 27.9926 22.6453 28.043C22.7218 28.0934 22.8113 28.1203 22.9029 28.1204C22.9225 28.1203 22.9421 28.119 22.9615 28.1166C23.7223 28.0229 25.3704 26.9869 26.7921 24.525C28.2139 22.0632 28.28 20.0855 27.9907 19.4124C27.9506 19.3191 27.8812 19.2413 27.793 19.1908C27.7048 19.1404 27.6026 19.1199 27.5018 19.1325ZM25.9798 24.0544C25.3499 25.2602 24.4164 26.2809 23.2714 27.0155C23.3412 25.6577 23.7586 24.3407 24.4836 23.1905C25.1135 21.9849 26.0471 20.9644 27.192 20.2299C27.1225 21.5882 26.7051 22.9058 25.9798 24.0563V24.0544Z" fill="#033F2D"/>
<path d="M22.8469 19.0603C22.8876 19.0141 22.9189 18.9604 22.9389 18.9022C22.9588 18.8439 22.9672 18.7823 22.9633 18.7208C22.9595 18.6594 22.9436 18.5993 22.9165 18.544C22.8895 18.4886 22.8518 18.4392 22.8056 18.3984C22.7595 18.3577 22.7057 18.3264 22.6475 18.3064C22.5892 18.2865 22.5276 18.2782 22.4661 18.282C22.4047 18.2858 22.3446 18.3017 22.2893 18.3288C22.2339 18.3558 22.1845 18.3935 22.1438 18.4397C21.4923 19.1838 20.9162 19.9908 20.4239 20.8486C19.4064 22.5232 18.7838 24.4076 18.6033 26.3587C17.4797 26.902 16.2478 27.1842 14.9998 27.1842C13.7517 27.1842 12.5198 26.902 11.3963 26.3587C11.2159 24.4076 10.5934 22.5232 9.57609 20.8486C8.29688 18.63 6.56719 16.8797 4.80234 16.0036C4.72652 15.3593 4.68817 14.7112 4.6875 14.0625C4.6875 6.67078 10.2309 0.9375 15 0.9375C19.7691 0.9375 25.3125 6.67078 25.3125 14.0625C25.3118 14.7112 25.2735 15.3593 25.1977 16.0036C24.6594 16.2743 24.1508 16.6001 23.6798 16.9758C23.6298 17.0133 23.5878 17.0604 23.5562 17.1144C23.5246 17.1684 23.5042 17.2281 23.4961 17.2901C23.488 17.3521 23.4924 17.4151 23.509 17.4754C23.5256 17.5357 23.5541 17.5921 23.5928 17.6412C23.6315 17.6903 23.6797 17.7312 23.7344 17.7614C23.7892 17.7916 23.8494 17.8105 23.9116 17.8171C23.9738 17.8237 24.0367 17.8177 24.0965 17.7996C24.1564 17.7815 24.212 17.7516 24.2602 17.7117C24.74 17.3271 25.265 17.0023 25.8234 16.7447C25.8962 16.7119 25.9593 16.661 26.0069 16.5969C26.0545 16.5329 26.0849 16.4577 26.0953 16.3786C26.1976 15.6108 26.2493 14.8371 26.25 14.0625C26.25 6.14062 20.2031 0 15 0C9.79688 0 3.75 6.14062 3.75 14.0625C3.75069 14.8371 3.80236 15.6108 3.90469 16.3786C3.9151 16.4577 3.94553 16.5329 3.99311 16.5969C4.04068 16.661 4.10383 16.7119 4.17656 16.7447C5.84906 17.4975 7.52062 19.1644 8.76375 21.3173C9.75909 22.9373 10.3458 24.7749 10.4733 26.6719C10.4759 26.7555 10.5009 26.837 10.5457 26.9077C10.5905 26.9784 10.6533 27.0359 10.7278 27.0741C12.046 27.7647 13.5119 28.1255 15 28.1255C16.4881 28.1255 17.954 27.7647 19.2722 27.0741C19.3467 27.0359 19.4095 26.9784 19.4543 26.9077C19.4991 26.837 19.5241 26.7555 19.5267 26.6719C19.6537 24.775 20.2397 22.9375 21.2344 21.3173C21.6958 20.5135 22.236 19.7574 22.8469 19.0603Z" fill="#033F2D"/>
<path d="M22.0312 15.9375C22.1556 15.9375 22.2748 15.8881 22.3627 15.8002C22.4506 15.7123 22.5 15.5931 22.5 15.4688V13.5938C22.5 8.07375 19.2056 3.75 15 3.75C10.7944 3.75 7.5 8.07375 7.5 13.5938V15.4688C7.5 15.5931 7.54939 15.7123 7.63729 15.8002C7.7252 15.8881 7.84443 15.9375 7.96875 15.9375C8.09307 15.9375 8.2123 15.8881 8.30021 15.8002C8.38811 15.7123 8.4375 15.5931 8.4375 15.4688V13.5938C8.4375 8.68266 11.3813 4.6875 15 4.6875C18.6187 4.6875 21.5625 8.68266 21.5625 13.5938V15.4688C21.5625 15.5931 21.6119 15.7123 21.6998 15.8002C21.7877 15.8881 21.9069 15.9375 22.0312 15.9375Z" fill="#033F2D"/>
<path d="M16.875 8.4375C16.9993 8.4375 17.1185 8.38811 17.2065 8.30021C17.2944 8.2123 17.3438 8.09307 17.3438 7.96875C17.3438 7.84443 17.2944 7.7252 17.2065 7.63729C17.1185 7.54939 16.9993 7.5 16.875 7.5H13.125C13.0007 7.5 12.8815 7.54939 12.7935 7.63729C12.7056 7.7252 12.6562 7.84443 12.6562 7.96875C12.6562 8.09307 12.7056 8.2123 12.7935 8.30021C12.8815 8.38811 13.0007 8.4375 13.125 8.4375H16.875Z" fill="#033F2D"/>
<path d="M11.25 10.7812C11.25 10.9056 11.2994 11.0248 11.3873 11.1127C11.4752 11.2006 11.5944 11.25 11.7188 11.25H18.2812C18.4056 11.25 18.5248 11.2006 18.6127 11.1127C18.7006 11.0248 18.75 10.9056 18.75 10.7812C18.75 10.6569 18.7006 10.5377 18.6127 10.4498C18.5248 10.3619 18.4056 10.3125 18.2812 10.3125H11.7188C11.5944 10.3125 11.4752 10.3619 11.3873 10.4498C11.2994 10.5377 11.25 10.6569 11.25 10.7812Z" fill="#033F2D"/>
<path d="M20.1562 13.5938C20.1562 13.4694 20.1069 13.3502 20.019 13.2623C19.931 13.1744 19.8118 13.125 19.6875 13.125H10.3125C10.1882 13.125 10.069 13.1744 9.98104 13.2623C9.89314 13.3502 9.84375 13.4694 9.84375 13.5938C9.84375 13.7181 9.89314 13.8373 9.98104 13.9252C10.069 14.0131 10.1882 14.0625 10.3125 14.0625H19.6875C19.8118 14.0625 19.931 14.0131 20.019 13.9252C20.1069 13.8373 20.1562 13.7181 20.1562 13.5938Z" fill="#033F2D"/>
<path d="M11.7188 22.0312C11.7188 22.6802 11.9112 23.3146 12.2717 23.8542C12.6323 24.3938 13.1448 24.8144 13.7443 25.0627C14.3439 25.3111 15.0036 25.3761 15.6401 25.2495C16.2766 25.1228 16.8613 24.8103 17.3202 24.3514C17.7791 23.8926 18.0916 23.3079 18.2182 22.6714C18.3448 22.0349 18.2798 21.3751 18.0315 20.7756C17.7831 20.176 17.3626 19.6635 16.823 19.303C16.2834 18.9424 15.649 18.75 15 18.75C14.1301 18.751 13.296 19.097 12.6809 19.7122C12.0658 20.3273 11.7197 21.1613 11.7188 22.0312ZM17.3438 22.0312C17.3438 22.4948 17.2063 22.9479 16.9488 23.3334C16.6912 23.7188 16.3252 24.0192 15.8969 24.1966C15.4687 24.374 14.9974 24.4204 14.5428 24.33C14.0881 24.2395 13.6705 24.0163 13.3427 23.6885C13.0149 23.3608 12.7917 22.9431 12.7013 22.4885C12.6109 22.0339 12.6573 21.5626 12.8347 21.1343C13.0121 20.7061 13.3125 20.34 13.6979 20.0825C14.0833 19.825 14.5365 19.6875 15 19.6875C15.6214 19.6882 16.2171 19.9354 16.6565 20.3748C17.0958 20.8142 17.343 21.4099 17.3438 22.0312Z" fill="#033F2D"/>
</g>
<defs>
<clipPath id="clip0_352_5496">
<rect width="30" height="30" fill="white"/>
</clipPath>
</defs>
</svg>
