<svg width="24" height="24" viewBox="0 0 24 24" fill="none" xmlns="http://www.w3.org/2000/svg">
<path d="M15.75 9.375C15.7499 9.3448 15.7463 9.31472 15.7391 9.28537C15.5095 8.36221 14.982 7.54045 14.2383 6.94725C13.4946 6.35404 12.5761 6.02244 11.625 6.00375V5.181C11.8436 5.10372 12.033 4.96079 12.1672 4.77176C12.3015 4.58274 12.374 4.35685 12.375 4.125V1.875C12.375 1.57663 12.2565 1.29048 12.0455 1.0795C11.8345 0.868526 11.5484 0.75 11.25 0.75H9.75C9.45163 0.75 9.16548 0.868526 8.9545 1.0795C8.74353 1.29048 8.625 1.57663 8.625 1.875V4.125C8.62596 4.35685 8.69853 4.58274 8.83278 4.77176C8.96703 4.96079 9.15641 5.10372 9.375 5.181V6.00375C8.42414 6.02243 7.50593 6.35385 6.76233 6.94676C6.01873 7.53968 5.49118 8.36105 5.26125 9.28387C5.25378 9.31367 5.25 9.34428 5.25 9.375V22.875C5.25 23.1734 5.36853 23.4595 5.5795 23.6705C5.79048 23.8815 6.07663 24 6.375 24H14.625C14.9234 24 15.2095 23.8815 15.4205 23.6705C15.6315 23.4595 15.75 23.1734 15.75 22.875V21.75C15.75 21.6505 15.7105 21.5552 15.6402 21.4848C15.5698 21.4145 15.4745 21.375 15.375 21.375C15.2755 21.375 15.1802 21.4145 15.1098 21.4848C15.0395 21.5552 15 21.6505 15 21.75V22.875C15 22.9745 14.9605 23.0698 14.8902 23.1402C14.8198 23.2105 14.7245 23.25 14.625 23.25H6.375C6.27554 23.25 6.18016 23.2105 6.10983 23.1402C6.03951 23.0698 6 22.9745 6 22.875V9.75H7.875C7.97446 9.75 8.06984 9.71049 8.14017 9.64017C8.21049 9.56984 8.25 9.47446 8.25 9.375C8.25 9.27554 8.21049 9.18016 8.14017 9.10983C8.06984 9.03951 7.97446 9 7.875 9H6.1425C6.40799 8.33546 6.8667 7.76583 7.45933 7.36473C8.05196 6.96363 8.75127 6.74949 9.46688 6.75H11.5331C12.2487 6.74954 12.948 6.9637 13.5406 7.36479C14.1332 7.76589 14.592 8.33549 14.8575 9H9.375C9.27554 9 9.18016 9.03951 9.10983 9.10983C9.03951 9.18016 9 9.27554 9 9.375C9 9.47446 9.03951 9.56984 9.10983 9.64017C9.18016 9.71049 9.27554 9.75 9.375 9.75H15V20.25H15.75V9.375ZM10.875 5.25V6H10.125V5.25H10.875ZM9.375 1.875C9.375 1.77554 9.41451 1.68016 9.48483 1.60984C9.55516 1.53951 9.65054 1.5 9.75 1.5H11.25C11.3495 1.5 11.4448 1.53951 11.5152 1.60984C11.5855 1.68016 11.625 1.77554 11.625 1.875V4.125C11.625 4.22446 11.5855 4.31984 11.5152 4.39016C11.4448 4.46049 11.3495 4.5 11.25 4.5H9.75C9.65054 4.5 9.55516 4.46049 9.48483 4.39016C9.41451 4.31984 9.375 4.22446 9.375 4.125V1.875Z" fill="#033F2D"/>
<path d="M10.5 13.5007C10.795 13.5007 11.0884 13.5443 11.3707 13.63C11.4656 13.6581 11.5678 13.6474 11.6549 13.6004C11.7421 13.5534 11.8071 13.4739 11.8358 13.3791C11.8645 13.2844 11.8546 13.1822 11.8082 13.0947C11.7618 13.0072 11.6827 12.9417 11.5882 12.9123C10.7891 12.6692 9.93175 12.6999 9.15217 12.9997C8.37258 13.2995 7.71548 13.8511 7.28517 14.5669C6.85486 15.2828 6.67602 16.1219 6.77702 16.951C6.87803 17.7801 7.25311 18.5517 7.8427 19.1433C7.84387 19.1467 7.84579 19.1498 7.84833 19.1523C7.85086 19.1548 7.85394 19.1567 7.85732 19.1579C8.56723 19.8306 9.51182 20.1993 10.4897 20.1854C11.4675 20.1716 12.4013 19.7763 13.0919 19.0838C13.7824 18.3913 14.1752 17.4564 14.1863 16.4786C14.1975 15.5007 13.8262 14.5571 13.1516 13.849C13.0813 13.7787 12.9859 13.7393 12.8864 13.7393C12.787 13.7393 12.6916 13.7787 12.6213 13.849L11.2781 15.1923C10.4347 14.5135 9.44283 14.3752 8.90882 14.9095C8.37483 15.4439 8.5132 16.4358 9.19157 17.2788L8.13295 18.3382C7.78753 17.8954 7.57353 17.3645 7.51537 16.806C7.45722 16.2474 7.55725 15.6838 7.80406 15.1794C8.05086 14.675 8.4345 14.2501 8.91119 13.9533C9.38787 13.6565 9.9384 13.4996 10.5 13.5007ZM10.5 19.5007C9.83395 19.5008 9.18709 19.2779 8.66245 18.8677L9.71958 17.8105C10.1408 18.1764 10.6722 18.3911 11.2293 18.4203C11.3877 18.426 11.5457 18.3998 11.6938 18.3434C11.842 18.287 11.9773 18.2014 12.0918 18.0918C12.6258 17.5574 12.4874 16.5655 11.8091 15.7225L12.8681 14.6632C13.2128 15.1062 13.4262 15.6371 13.4839 16.1955C13.5416 16.7539 13.4414 17.3172 13.1946 17.8214C12.9478 18.3256 12.5643 18.7503 12.0879 19.0472C11.6115 19.3441 11.0613 19.5012 10.5 19.5007ZM11.2751 16.2558C11.6771 16.7905 11.7727 17.3493 11.5608 17.5615C11.349 17.7738 10.7898 17.6774 10.2551 17.2758L11.2751 16.2558ZM9.43757 15.4398C9.52913 15.3609 9.64811 15.3213 9.7687 15.3295C10.1267 15.3589 10.4671 15.4975 10.7437 15.7267L9.72483 16.7455C9.32283 16.2104 9.2272 15.652 9.43907 15.4398H9.43757Z" fill="#033F2D"/>
<path d="M18.7099 1.15571C18.6313 0.822571 18.4412 0.52632 18.171 0.316136C17.9009 0.105951 17.567 -0.00552578 17.2248 0.000210842C16.8826 0.00594747 16.5526 0.128553 16.2896 0.347673C16.0267 0.566794 15.8466 0.86925 15.7792 1.20483C15.7497 1.39077 15.6552 1.5602 15.5125 1.68304C15.3699 1.80587 15.1883 1.87414 15 1.87571H13.875C13.7755 1.87571 13.6802 1.91522 13.6098 1.98554C13.5395 2.05587 13.5 2.15125 13.5 2.25071C13.5 2.35016 13.5395 2.44555 13.6098 2.51587C13.6802 2.5862 13.7755 2.62571 13.875 2.62571H15.018C15.3795 2.62169 15.7281 2.49039 16.0024 2.25488C16.2767 2.01937 16.4593 1.69471 16.518 1.33796C16.5582 1.15775 16.6635 0.99871 16.8136 0.891288C16.9638 0.783865 17.1483 0.735611 17.3319 0.755767C17.5154 0.775922 17.6851 0.86307 17.8083 1.00052C17.9316 1.13797 17.9999 1.31607 18 1.50071C18 1.60016 18.0395 1.69555 18.1098 1.76587C18.1802 1.8362 18.2755 1.87571 18.375 1.87571C18.6734 1.87571 18.9595 1.99423 19.1705 2.20521C19.3815 2.41619 19.5 2.70234 19.5 3.00071C19.5 3.29908 19.3815 3.58522 19.1705 3.7962C18.9595 4.00718 18.6734 4.12571 18.375 4.12571C18.2755 4.12571 18.1802 4.16522 18.1098 4.23554C18.0395 4.30587 18 4.40125 18 4.50071C18.0001 4.61065 17.976 4.71926 17.9294 4.81886C17.8829 4.91846 17.815 5.0066 17.7306 5.07705C17.6462 5.1475 17.5473 5.19853 17.441 5.22653C17.3347 5.25453 17.2235 5.25882 17.1154 5.23908C16.9686 5.21119 16.8333 5.14053 16.7265 5.03598C16.6198 4.93142 16.5463 4.79765 16.5154 4.65146C16.455 4.29699 16.2719 3.97502 15.9982 3.74183C15.7245 3.50863 15.3776 3.37904 15.018 3.37571H15C14.9512 3.3759 14.903 3.38579 14.8581 3.40482C14.8132 3.42384 14.7725 3.45161 14.7384 3.48652C14.7044 3.52142 14.6776 3.56276 14.6597 3.60812C14.6417 3.65347 14.633 3.70195 14.634 3.75071C14.6361 3.85108 14.6775 3.94662 14.7493 4.01676C14.8211 4.0869 14.9176 4.12602 15.018 4.12571C15.207 4.13218 15.3876 4.20537 15.5277 4.33229C15.6679 4.45921 15.7586 4.63167 15.7837 4.81908C15.8467 5.10997 15.9948 5.37555 16.2092 5.58202C16.4235 5.7885 16.6945 5.92654 16.9875 5.97858C17.0729 5.99319 17.1593 6.00059 17.2459 6.00071C17.5842 6.00132 17.9128 5.88755 18.1782 5.67788C18.4437 5.46821 18.6306 5.17494 18.7084 4.84571C19.1407 4.76743 19.5318 4.53983 19.8134 4.20263C20.095 3.86543 20.2493 3.44005 20.2493 3.00071C20.2493 2.56137 20.095 2.13598 19.8134 1.79878C19.5318 1.46158 19.1407 1.23398 18.7084 1.15571H18.7099Z" fill="#033F2D"/>
</svg>
