<svg width="30" height="30" viewBox="0 0 30 30" fill="none" xmlns="http://www.w3.org/2000/svg">
<path d="M21.1566 14.0691L17.2125 12.2081C16.9718 12.0938 16.7684 11.9138 16.6257 11.6887C16.483 11.4637 16.4069 11.2029 16.4062 10.9364V6.28781L18.9441 3.75H19.6875V8.35734C19.4135 8.26004 19.1763 8.08036 19.0085 7.84294C18.8406 7.60553 18.7504 7.322 18.75 7.03125C18.75 6.90693 18.7006 6.7877 18.6127 6.69979C18.5248 6.61189 18.4056 6.5625 18.2812 6.5625C18.1569 6.5625 18.0377 6.61189 17.9498 6.69979C17.8619 6.7877 17.8125 6.90693 17.8125 7.03125C17.8132 7.65262 18.0604 8.24833 18.4998 8.68771C18.9392 9.12709 19.5349 9.37426 20.1562 9.375C20.2806 9.375 20.3998 9.32561 20.4877 9.23771C20.5756 9.1498 20.625 9.03057 20.625 8.90625V3.75H21.5625C21.6868 3.75 21.806 3.70061 21.894 3.61271C21.9819 3.5248 22.0312 3.40557 22.0312 3.28125V0.46875C22.0312 0.34443 21.9819 0.225201 21.894 0.137294C21.806 0.049386 21.6868 0 21.5625 0L12.5681 0C12.1984 0.00039337 11.8341 0.087916 11.5045 0.255469L8.22328 1.92609C8.14652 1.96553 8.08214 2.0254 8.03723 2.09909C7.99231 2.17279 7.96862 2.25745 7.96875 2.34375V4.21875C7.96875 4.34307 8.01814 4.4623 8.10604 4.55021C8.19395 4.63811 8.31318 4.6875 8.4375 4.6875C9.29443 4.69097 10.1158 5.03059 10.7249 5.63333C11.3341 6.23607 11.6823 7.05378 11.6948 7.91062L11.715 8.76469L7.91813 14.2491C7.64544 14.6413 7.49952 15.1077 7.5 15.5855V23.9062C7.5 24.0306 7.54939 24.1498 7.63729 24.2377C7.7252 24.3256 7.84443 24.375 7.96875 24.375C8.09307 24.375 8.2123 24.3256 8.30021 24.2377C8.38812 24.1498 8.4375 24.0306 8.4375 23.9062V15.5855C8.43726 15.2995 8.52444 15.0203 8.68735 14.7853L12.4331 9.375H15.4688V10.9364C15.4699 11.3805 15.5967 11.8152 15.8344 12.1902C16.0721 12.5653 16.4111 12.8655 16.8122 13.0561L20.7562 14.9166C20.9969 15.031 21.2004 15.2111 21.343 15.4363C21.4857 15.6614 21.5618 15.9222 21.5625 16.1887V27.6562C21.5625 28.0292 21.4143 28.3869 21.1506 28.6506C20.8869 28.9143 20.5292 29.0625 20.1562 29.0625H9.84375C9.47079 29.0625 9.11311 28.9143 8.84938 28.6506C8.58566 28.3869 8.4375 28.0292 8.4375 27.6562V25.7812C8.4375 25.6569 8.38812 25.5377 8.30021 25.4498C8.2123 25.3619 8.09307 25.3125 7.96875 25.3125C7.84443 25.3125 7.7252 25.3619 7.63729 25.4498C7.54939 25.5377 7.5 25.6569 7.5 25.7812V27.6562C7.50075 28.2776 7.74791 28.8733 8.18729 29.3127C8.62667 29.7521 9.22238 29.9993 9.84375 30H20.1562C20.7776 29.9993 21.3733 29.7521 21.8127 29.3127C22.2521 28.8733 22.4993 28.2776 22.5 27.6562V16.1887C22.4989 15.7447 22.3722 15.31 22.1344 14.9349C21.8967 14.5598 21.5577 14.2596 21.1566 14.0691ZM21.0938 2.8125H19.2188V0.9375H21.0938V2.8125ZM12.6455 8.4375L12.6323 7.89375C12.6159 6.87238 12.229 5.89176 11.5436 5.13435C10.8581 4.37693 9.92091 3.8943 8.90625 3.77625V2.63109L11.9297 1.09078C12.1275 0.990359 12.3462 0.937853 12.5681 0.9375H18.2812V3.08719L15.6061 5.76234C15.5182 5.85023 15.4688 5.96944 15.4688 6.09375V8.4375H12.6455Z" fill="#033F2D"/>
<path d="M15.0004 17.8131C15.3693 17.8134 15.7362 17.8678 16.0893 17.9749C16.2072 18.0073 16.3331 17.9923 16.4401 17.9332C16.5472 17.874 16.6269 17.7754 16.6622 17.6584C16.6976 17.5413 16.6858 17.4151 16.6293 17.3066C16.5729 17.1981 16.4763 17.1159 16.3602 17.0777C15.3616 16.774 14.2902 16.8125 13.316 17.1871C12.3418 17.5616 11.5206 18.2508 10.9826 19.1452C10.4447 20.0396 10.2209 21.0881 10.3466 22.1242C10.4724 23.1603 10.9406 24.1248 11.6769 24.8645C11.6807 24.8683 11.6816 24.8739 11.6858 24.8777C11.69 24.8814 11.6952 24.8828 11.6989 24.8866C12.5866 25.7271 13.7674 26.1877 14.9898 26.1701C16.2121 26.1524 17.3792 25.6579 18.2422 24.7921C19.1051 23.9262 19.5957 22.7575 19.6093 21.5351C19.6229 20.3128 19.1584 19.1334 18.3149 18.2486C18.227 18.1607 18.1078 18.1114 17.9835 18.1114C17.8592 18.1114 17.74 18.1607 17.6521 18.2486L15.9749 19.9258C15.5862 19.6027 15.1327 19.3666 14.645 19.2334C14.3691 19.1253 14.0677 19.0999 13.7776 19.1605C13.4875 19.2211 13.2213 19.365 13.0118 19.5746C12.8022 19.7841 12.6583 20.0502 12.5977 20.3403C12.5372 20.6304 12.5625 20.9319 12.6707 21.2078C12.8038 21.6955 13.0399 22.1489 13.363 22.5377L12.0416 23.86C11.6098 23.3066 11.3423 22.6429 11.2696 21.9448C11.1969 21.2466 11.322 20.5421 11.6305 19.9116C11.939 19.281 12.4185 18.75 13.0144 18.3789C13.6103 18.0079 14.2984 17.8118 15.0004 17.8131ZM15.0004 25.3131C14.1679 25.3132 13.3593 25.0347 12.7035 24.5219L14.0249 23.2005C14.4136 23.5236 14.8671 23.7597 15.3547 23.8928C15.5348 23.9387 15.7197 23.9625 15.9055 23.9636C16.1043 23.9704 16.3024 23.9375 16.4882 23.8667C16.6741 23.7959 16.8439 23.6888 16.9879 23.5516C17.1825 23.3329 17.3164 23.0671 17.3763 22.7805C17.4362 22.494 17.4199 22.1967 17.3291 21.9184C17.196 21.4308 16.9599 20.9773 16.6368 20.5886L17.9605 19.2663C18.3914 19.82 18.6581 20.4837 18.7303 21.1817C18.8025 21.8796 18.6771 22.5838 18.3686 23.214C18.0601 23.8442 17.5808 24.3752 16.9853 24.7463C16.3898 25.1174 15.702 25.3138 15.0004 25.3131ZM15.9693 21.257C16.1762 21.5209 16.3295 21.8226 16.4207 22.1453C16.468 22.2673 16.4842 22.3991 16.4678 22.5289C16.4515 22.6587 16.403 22.7824 16.3269 22.8888C16.2204 22.9645 16.0967 23.0127 15.967 23.0291C15.8373 23.0455 15.7055 23.0294 15.5835 22.9825C15.2608 22.8914 14.9591 22.738 14.6952 22.5311L15.9693 21.257ZM13.5786 20.9809C13.5313 20.859 13.5151 20.7272 13.5315 20.5974C13.5479 20.4676 13.5963 20.3439 13.6724 20.2375C13.7868 20.1376 13.9361 20.0871 14.0877 20.0969C14.1985 20.0982 14.3086 20.113 14.4158 20.1409C14.7385 20.2321 15.0403 20.3854 15.3041 20.5924L14.0291 21.8674C13.8232 21.6039 13.6707 21.3028 13.58 20.9809H13.5786Z" fill="#033F2D"/>
</svg>
