<svg width="40" height="40" viewBox="0 0 40 40" fill="none" xmlns="http://www.w3.org/2000/svg">
<path d="M34.2857 5.71484H37.1429C37.5218 5.71484 37.8851 5.86535 38.153 6.13326C38.4209 6.40117 38.5714 6.76453 38.5714 7.14342V30.0006C38.5714 30.3794 38.4209 30.7428 38.153 31.0107C37.8851 31.2786 37.5218 31.4291 37.1429 31.4291H2.85716C2.47828 31.4291 2.11492 31.2786 1.84701 31.0107C1.5791 30.7428 1.42859 30.3794 1.42859 30.0006V7.14342C1.42859 6.76453 1.5791 6.40117 1.84701 6.13326C2.11492 5.86535 2.47828 5.71484 2.85716 5.71484H5.7143" stroke="#033F2D" stroke-width="1.5" stroke-linecap="round" stroke-linejoin="round"/>
<path d="M17.1428 31.4297L14.2857 38.5725" stroke="#033F2D" stroke-width="1.5" stroke-linecap="round" stroke-linejoin="round"/>
<path d="M22.8572 31.4297L25.7143 38.5725" stroke="#033F2D" stroke-width="1.5" stroke-linecap="round" stroke-linejoin="round"/>
<path d="M11.4286 38.5723H28.5714" stroke="#033F2D" stroke-width="1.5" stroke-linecap="round" stroke-linejoin="round"/>
<path d="M20.0858 5.71484V10.0006" stroke="#033F2D" stroke-width="1.5" stroke-linecap="round" stroke-linejoin="round"/>
<path d="M11.4286 10.7148L15.1429 12.8577" stroke="#033F2D" stroke-width="1.5" stroke-linecap="round" stroke-linejoin="round"/>
<path d="M11.4286 20.7151L15.1429 18.5723" stroke="#033F2D" stroke-width="1.5" stroke-linecap="round" stroke-linejoin="round"/>
<path d="M20.0858 25.7154V21.4297" stroke="#033F2D" stroke-width="1.5" stroke-linecap="round" stroke-linejoin="round"/>
<path d="M28.7429 20.7151L25.0286 18.5723" stroke="#033F2D" stroke-width="1.5" stroke-linecap="round" stroke-linejoin="round"/>
<path d="M28.7429 10.7148L25.0286 12.8577" stroke="#033F2D" stroke-width="1.5" stroke-linecap="round" stroke-linejoin="round"/>
<path d="M20.0857 21.4286C23.2417 21.4286 25.8 18.8702 25.8 15.7143C25.8 12.5584 23.2417 10 20.0857 10C16.9298 10 14.3715 12.5584 14.3715 15.7143C14.3715 18.8702 16.9298 21.4286 20.0857 21.4286Z" stroke="#033F2D" stroke-width="1.5" stroke-linecap="round" stroke-linejoin="round"/>
</svg>
