<svg width="30" height="30" viewBox="0 0 30 30" fill="none" xmlns="http://www.w3.org/2000/svg">
<path d="M26.1912 3.63239C26.2308 3.66767 26.2703 3.70294 26.3111 3.73928C26.6651 4.0739 26.9558 4.4731 27.2459 4.86286C27.2709 4.89639 27.2959 4.92992 27.3217 4.96446C28.0321 5.93152 28.5226 7.04576 28.8279 8.20271C28.8463 8.27137 28.8648 8.34002 28.8837 8.41076C29.4738 10.872 29.0146 13.5744 27.7105 15.7345C27.5998 15.9042 27.4842 16.0676 27.3631 16.2301C27.318 16.2917 27.2729 16.3533 27.2264 16.4168C26.7681 17.0338 26.2645 17.6222 25.6638 18.1051C25.61 18.1494 25.5561 18.1937 25.5006 18.2394C23.9739 19.4719 21.9456 20.3317 19.9661 20.3435C19.9211 20.3438 19.8761 20.3442 19.8298 20.3445C19.735 20.3451 19.6401 20.3455 19.5453 20.3457C19.404 20.3463 19.2628 20.3481 19.1215 20.3499C17.6841 20.3597 16.3859 19.9881 15.084 19.3992C14.9005 19.3174 14.7157 19.2387 14.531 19.1597C14.4832 19.2077 14.4355 19.2557 14.3862 19.3052C13.2508 20.4457 12.1148 21.5856 10.978 22.7247C10.8379 22.8651 10.6978 23.0055 10.5578 23.1459C10.5299 23.1738 10.502 23.2017 10.4733 23.2305C10.0225 23.6824 9.57206 24.1346 9.1218 24.587C8.65942 25.0516 8.19658 25.5157 7.73334 25.9795C7.47332 26.2398 7.21351 26.5003 6.95419 26.7614C6.7099 27.0072 6.46507 27.2526 6.21981 27.4975C6.13009 27.5872 6.04057 27.6772 5.95126 27.7674C5.28572 28.4394 4.63493 29.0747 3.63324 29.0895C3.5871 29.0889 3.54096 29.0883 3.49343 29.0877C3.42048 29.0871 3.42048 29.0871 3.34605 29.0864C2.60911 29.0667 2.01543 28.7613 1.50856 28.2308C1.03961 27.6703 0.85958 27.0138 0.885775 26.2871C1.02488 25.0882 1.95196 24.3472 2.75759 23.5437C2.846 23.4553 2.9344 23.3669 3.02279 23.2785C3.26123 23.04 3.49985 22.8017 3.73851 22.5635C3.98846 22.3139 4.23825 22.0642 4.48805 21.8144C4.96043 21.3422 5.43296 20.8702 5.90554 20.3982C6.44384 19.8605 6.98198 19.3227 7.5201 18.7849C8.62642 17.6792 9.73295 16.5737 10.8396 15.4683C10.8143 15.4107 10.8143 15.4107 10.7885 15.3519C10.7113 15.1757 10.6342 14.9994 10.5572 14.8231C10.5306 14.7627 10.5041 14.7022 10.4768 14.64C9.43233 12.2469 9.32576 9.5783 10.2485 7.12316C10.6976 6.00308 11.3018 5.00577 12.1223 4.11877C12.2336 3.99736 12.3386 3.87272 12.4436 3.74592C12.6983 3.4552 12.9956 3.22362 13.3006 2.98786C13.332 2.96285 13.3634 2.93784 13.3957 2.91208C17.2593 -0.157937 22.6405 0.441403 26.1912 3.63239ZM15.8201 2.6363C15.7646 2.66107 15.7646 2.66107 15.7079 2.68634C14.7509 3.11714 13.9324 3.722 13.1834 4.45271C13.143 4.48949 13.1025 4.52627 13.0609 4.56417C11.5242 6.0003 10.6708 8.24393 10.5959 10.3155C10.5354 12.7272 11.4106 14.9505 13.0662 16.6988C13.1338 16.7711 13.1338 16.7711 13.2028 16.8448C14.7952 18.4963 17.0578 19.364 19.3321 19.4088C21.7779 19.3609 23.9942 18.4135 25.7129 16.6705C27.2643 15.0436 28.1632 12.7963 28.1248 10.5465C28.0564 8.67769 27.5048 6.8008 26.3084 5.33161C26.2838 5.30129 26.2593 5.27096 26.234 5.23972C24.771 3.44153 22.7219 2.19457 20.3904 1.93318C18.8232 1.77539 17.2584 1.97882 15.8201 2.6363ZM11.3273 16.4384C11.2635 16.5025 11.2635 16.5025 11.1984 16.5678C11.1262 16.6399 11.1262 16.6399 11.0526 16.7135C11.0004 16.7661 10.9481 16.8186 10.8943 16.8728C10.8145 16.9527 10.8145 16.9527 10.733 17.0343C10.5912 17.1764 10.4495 17.3186 10.3079 17.4609C10.1635 17.6059 10.0189 17.7508 9.87431 17.8956C9.59045 18.1801 9.30677 18.4648 9.02321 18.7496C9.10385 18.9307 9.19616 19.0541 9.33658 19.1934C9.37646 19.2333 9.41633 19.2732 9.45742 19.3143C9.50039 19.3566 9.54336 19.399 9.58763 19.4426C9.63169 19.4865 9.67574 19.5304 9.72113 19.5756C9.86175 19.7156 10.0028 19.8552 10.1438 19.9947C10.2393 20.0896 10.3347 20.1845 10.4301 20.2794C10.664 20.512 10.8982 20.7442 11.1326 20.9761C11.3269 20.8914 11.4544 20.7858 11.6033 20.6359C11.6491 20.5901 11.6948 20.5444 11.7419 20.4973C11.7907 20.4479 11.8395 20.3985 11.8897 20.3476C11.9653 20.2718 11.9653 20.2718 12.0424 20.1944C12.2033 20.0329 12.3637 19.871 12.5242 19.7091C12.6332 19.5995 12.7422 19.4899 12.8513 19.3804C13.1185 19.1118 13.3854 18.8429 13.6521 18.5738C13.4925 18.4121 13.3335 18.2537 13.1589 18.1083C12.5571 17.6009 12.0308 17.0739 11.559 16.4399C11.5219 16.3941 11.5219 16.3941 11.4841 16.3472C11.4104 16.3406 11.4104 16.3406 11.3273 16.4384ZM8.15265 19.6135C8.10631 19.6601 8.05998 19.7068 8.01224 19.7548C7.9622 19.8051 7.91216 19.8553 7.86061 19.907C7.808 19.9601 7.75539 20.0132 7.70119 20.0679C7.62194 20.1476 7.62194 20.1476 7.54109 20.2288C7.41 20.3606 7.27905 20.4925 7.14821 20.6246C7.22885 20.8057 7.32116 20.9291 7.46158 21.0684C7.50146 21.1083 7.54133 21.1482 7.58242 21.1893C7.62539 21.2316 7.66836 21.274 7.71263 21.3176C7.77871 21.3835 7.77871 21.3835 7.84613 21.4506C7.98675 21.5906 8.12778 21.7302 8.26882 21.8697C8.36429 21.9646 8.45973 22.0595 8.55515 22.1544C8.78899 22.387 9.02316 22.6192 9.25759 22.8511C9.4524 22.7588 9.58081 22.6589 9.73275 22.5046C9.77693 22.4601 9.82112 22.4155 9.86664 22.3696C9.91219 22.3231 9.95773 22.2765 10.0047 22.2286C10.0511 22.1816 10.0976 22.1346 10.1454 22.0862C10.2599 21.9704 10.3741 21.8542 10.4881 21.7379C10.2398 21.4416 9.98058 21.1632 9.70688 20.8903C9.6672 20.8506 9.62752 20.8108 9.58664 20.7699C9.50354 20.6868 9.42037 20.6037 9.33714 20.5207C9.20912 20.393 9.08142 20.265 8.95375 20.1369C8.87278 20.056 8.79179 19.9751 8.71079 19.8942C8.67246 19.8558 8.63413 19.8173 8.59465 19.7777C8.39061 19.5104 8.39061 19.5104 8.15265 19.6135ZM5.99629 21.7633C5.95551 21.8035 5.91473 21.8436 5.87272 21.8849C5.4447 22.3064 5.01853 22.7298 4.5925 23.1533C4.39043 23.3541 4.1878 23.5543 3.98465 23.754C3.73938 23.9951 3.49514 24.2372 3.25159 24.48C3.15876 24.5722 3.06557 24.6641 2.97203 24.7556C2.20037 25.4922 2.20037 25.4922 1.90773 26.4913C1.96971 27.0403 2.16108 27.4023 2.5779 27.773C2.96315 28.0259 3.35176 28.1115 3.80837 28.066C4.24493 27.946 4.53728 27.7391 4.84809 27.4177C4.88933 27.3766 4.93056 27.3354 4.97304 27.2929C5.10767 27.1581 5.24102 27.022 5.37438 26.8859C5.46805 26.7915 5.5618 26.6973 5.65562 26.6031C5.90127 26.3561 6.14584 26.1081 6.39019 25.8599C6.64016 25.6063 6.89114 25.3537 7.14203 25.1011C7.63336 24.606 8.12356 24.1098 8.61306 23.6129C8.34287 23.2935 8.34287 23.2935 8.05577 22.9894C8.01962 22.9531 7.98347 22.9167 7.94622 22.8793C7.90849 22.8417 7.87076 22.8041 7.83188 22.7653C7.7922 22.7256 7.75252 22.6858 7.71164 22.6449C7.62854 22.5618 7.54537 22.4787 7.46214 22.3957C7.33412 22.268 7.20642 22.14 7.07875 22.0119C6.99778 21.931 6.91679 21.8501 6.83579 21.7692C6.79746 21.7308 6.75913 21.6923 6.71965 21.6527C6.35182 21.2868 6.33378 21.4296 5.99629 21.7633Z" fill="#033F2D"/>
<path d="M16.4356 5.23828C16.8235 5.30755 17.0686 5.71734 17.3181 6.00732C17.3677 6.06454 17.3677 6.06454 17.4183 6.12291C17.5931 6.3253 17.7643 6.52951 17.9297 6.73975C18.0919 6.66191 18.241 6.57495 18.3911 6.47607C18.8144 6.2133 19.1932 6.16248 19.6875 6.2124C20.0407 6.30025 20.3634 6.41958 20.625 6.68115C20.654 6.73916 20.654 6.73916 20.6836 6.79834C21.0286 6.426 21.3599 6.05005 21.6735 5.6505C21.8499 5.44854 21.9977 5.29219 22.2656 5.24194C22.508 5.28738 22.5908 5.36943 22.7344 5.56787C22.7639 5.81293 22.756 5.94082 22.6309 6.15587C22.5829 6.21441 22.5349 6.27294 22.4854 6.33325C22.4467 6.38123 22.4467 6.38123 22.4073 6.43017C22.2603 6.61105 22.1079 6.78715 21.955 6.96313C21.9232 6.99984 21.8914 7.03654 21.8586 7.07436C21.7965 7.1455 21.734 7.21621 21.6708 7.28644C21.4709 7.51281 21.4709 7.51281 21.3867 7.79443C21.4364 7.94944 21.4894 8.09505 21.5515 8.24487C21.6882 8.57909 21.7866 8.9044 21.8555 9.25928C21.9161 9.26013 21.9767 9.26099 22.0391 9.26187C22.2646 9.26527 22.4901 9.2698 22.7156 9.27466C22.813 9.2766 22.9105 9.27824 23.008 9.27958C23.1484 9.28155 23.2887 9.28461 23.429 9.28789C23.4941 9.28845 23.4941 9.28845 23.5604 9.28902C23.8217 9.29641 23.9915 9.33257 24.1992 9.49365C24.318 9.65685 24.318 9.65685 24.4299 9.84888C24.4701 9.91739 24.5104 9.98591 24.5506 10.0544C24.6087 10.1539 24.6087 10.1539 24.668 10.2554C24.7037 10.3108 24.7394 10.3663 24.7762 10.4234C25.077 10.8912 25.077 10.8912 25.0195 11.1929C24.9704 11.3403 24.9276 11.4069 24.8071 11.5042C24.5898 11.5671 24.4067 11.5735 24.1992 11.4858C24.0127 11.2896 23.8867 11.0509 23.7819 10.8026C23.702 10.6314 23.6295 10.5072 23.4961 10.3726C23.232 10.2998 22.9838 10.3168 22.7124 10.3359C22.6413 10.3386 22.5703 10.3412 22.497 10.3439C22.322 10.3508 22.1475 10.3605 21.9727 10.3726C21.9733 10.4082 21.9739 10.4438 21.9746 10.4805C21.9782 10.8355 21.9578 11.1809 21.9177 11.5334C21.9101 11.6054 21.9101 11.6054 21.9023 11.6789C21.877 11.9106 21.8446 12.1364 21.7969 12.3647C21.838 12.3638 21.879 12.3629 21.9213 12.362C22.1081 12.3583 22.2949 12.356 22.4817 12.3538C22.5463 12.3523 22.6109 12.3508 22.6775 12.3493C22.74 12.3487 22.8025 12.3482 22.8669 12.3476C22.9243 12.3467 22.9817 12.3457 23.0408 12.3448C23.2334 12.3685 23.3401 12.4267 23.4961 12.5405C23.6149 12.7037 23.6149 12.7037 23.7268 12.8958C23.767 12.9643 23.8072 13.0329 23.8474 13.1015C23.8862 13.1678 23.9249 13.234 23.9649 13.3022C24.0006 13.357 24.0363 13.4118 24.0731 13.4682C24.2163 13.6885 24.3097 13.8507 24.3567 14.1116C24.3035 14.3584 24.2295 14.4466 24.0235 14.5913C23.8184 14.6279 23.8184 14.6279 23.6133 14.5913C23.4266 14.4386 23.3118 14.2991 23.2237 14.0775C23.1189 13.8215 23.0159 13.5924 22.793 13.4194C22.3682 13.2725 21.8722 13.2834 21.4453 13.4194C21.2619 13.579 21.2011 13.7036 21.1123 13.9282C20.9247 14.4008 20.4949 14.7858 20.0391 15.0015C19.5838 15.1785 19.1031 15.1796 18.6461 15.0076C17.9956 14.6847 17.5859 14.1211 17.2852 13.478C17.2852 13.4394 17.2852 13.4007 17.2852 13.3608C16.8211 13.3608 16.357 13.3608 15.8789 13.3608C15.8402 13.4575 15.8016 13.5542 15.7617 13.6538C15.6881 13.7959 15.613 13.9356 15.5347 14.075C15.5148 14.1118 15.495 14.1486 15.4745 14.1865C15.3623 14.386 15.2822 14.5215 15.0586 14.5913C14.8207 14.6267 14.7363 14.6123 14.5386 14.4705C14.4165 14.3017 14.3801 14.2201 14.3867 14.0148C14.4493 13.7254 14.6296 13.4776 14.7839 13.229C14.8362 13.1418 14.8362 13.1418 14.8896 13.0528C15.2509 12.4569 15.2509 12.4569 15.5274 12.3647C15.6355 12.3599 15.7439 12.3585 15.8521 12.359C15.915 12.3592 15.9779 12.3594 16.0427 12.3596C16.1083 12.3601 16.1739 12.3606 16.2415 12.3611C16.3409 12.3615 16.3409 12.3615 16.4423 12.3619C16.6061 12.3626 16.7698 12.3635 16.9336 12.3647C16.9155 12.3152 16.8974 12.2656 16.8787 12.2146C16.7472 11.7891 16.7504 11.3737 16.7542 10.9329C16.7544 10.8732 16.7547 10.8136 16.755 10.7522C16.7557 10.6061 16.7566 10.46 16.7578 10.314C15.8887 10.2068 15.8887 10.2068 15.1018 10.477C14.896 10.7299 14.76 11.0142 14.6448 11.3181C14.5899 11.4272 14.5899 11.4272 14.4141 11.5444C14.1585 11.5776 14.0451 11.5733 13.8318 11.4236C13.7136 11.2553 13.6774 11.1709 13.6837 10.9679C13.746 10.6785 13.9266 10.4307 14.0808 10.1821C14.1157 10.124 14.1505 10.0658 14.1865 10.0059C14.5478 9.41003 14.5478 9.41003 14.8242 9.31787C14.98 9.31289 15.1342 9.31108 15.29 9.31215C15.3353 9.31223 15.3805 9.31231 15.4272 9.3124C15.5717 9.31273 15.7161 9.31346 15.8606 9.31421C15.9586 9.3145 16.0566 9.31477 16.1546 9.31501C16.3947 9.31566 16.6349 9.31667 16.875 9.31787C16.8788 9.2681 16.8788 9.2681 16.8827 9.21732C16.9104 8.91366 16.9688 8.65563 17.0801 8.36938C17.2315 8.00378 17.2315 8.00378 17.2852 7.61865C17.1922 7.4615 17.0705 7.3362 16.9446 7.20483C16.8743 7.12737 16.8041 7.04978 16.734 6.97206C16.6987 6.9333 16.6633 6.89455 16.6269 6.85462C16.4732 6.68396 16.3263 6.50895 16.1829 6.32959C16.1116 6.24258 16.1116 6.24258 16.0389 6.15381C15.9156 5.9401 15.9088 5.81095 15.9375 5.56787C16.0894 5.35155 16.1743 5.28493 16.4356 5.23828ZM18.457 7.79443C17.707 9.05436 17.5236 10.6501 17.8528 12.0754C18.0313 12.7772 18.3153 13.6377 18.9624 14.0457C19.1798 14.1302 19.2828 14.1683 19.5117 14.1226C20.0792 13.856 20.3792 13.3837 20.6104 12.8188C21.1509 11.2915 21.1085 9.59161 20.4273 8.1167C20.2154 7.72296 19.9465 7.3597 19.5117 7.2085C19.0596 7.1252 18.7028 7.45429 18.457 7.79443Z" fill="#033F2D"/>
<path d="M16.289 3.45843C16.4852 3.60031 16.568 3.68544 16.6186 3.92351C16.57 4.16194 16.4697 4.29928 16.289 4.45452C16.1538 4.54121 16.015 4.62 15.8754 4.69965C14.3638 5.63316 13.1643 7.22967 12.7311 8.95954C12.6787 9.19048 12.6282 9.42141 12.5843 9.65414C12.5392 9.88114 12.507 10.043 12.3694 10.232C12.1723 10.3629 12.0054 10.3598 11.7773 10.3139C11.6052 10.1992 11.5551 10.125 11.502 9.92594C11.4799 9.67768 11.5218 9.47426 11.5796 9.23357C11.5905 9.18708 11.6014 9.14058 11.6126 9.09268C12.178 6.74983 13.5943 4.84328 15.6445 3.57561C15.8698 3.44874 16.0275 3.42631 16.289 3.45843Z" fill="#033F2D"/>
<path d="M18.2813 2.81338C18.4124 2.91911 18.4474 2.99492 18.4774 3.15922C18.494 3.38787 18.4847 3.4839 18.3325 3.66299C18.134 3.76655 18.0332 3.78766 17.8125 3.75088C17.6123 3.63522 17.5358 3.56424 17.4609 3.34439C17.4609 3.12828 17.502 3.03925 17.6367 2.87197C17.8446 2.70866 18.035 2.7507 18.2813 2.81338Z" fill="#033F2D"/>
</svg>
