<svg width="24" height="24" viewBox="0 0 24 24" fill="none" xmlns="http://www.w3.org/2000/svg">
<path d="M22.0243 9.0952H1.76141C0.801414 9.0952 0.389986 8.04949 1.14427 7.55235L11.2757 0.918062C11.4628 0.808024 11.6758 0.75 11.8928 0.75C12.1099 0.75 12.3229 0.808024 12.51 0.918062L22.6414 7.55235C23.3957 8.04949 22.9843 9.0952 22.0243 9.0952Z" stroke="#033F2D" stroke-width="1.5" stroke-linecap="round" stroke-linejoin="round"/>
<path d="M22.1786 18.5234H1.60714C1.13376 18.5234 0.75 18.9072 0.75 19.3806V21.952C0.75 22.4254 1.13376 22.8092 1.60714 22.8092H22.1786C22.652 22.8092 23.0357 22.4254 23.0357 21.952V19.3806C23.0357 18.9072 22.652 18.5234 22.1786 18.5234Z" stroke="#033F2D" stroke-width="1.5" stroke-linecap="round" stroke-linejoin="round"/>
<path d="M3.32141 9.0957V18.5243" stroke="#033F2D" stroke-width="1.5" stroke-linecap="round" stroke-linejoin="round"/>
<path d="M7.60712 9.0957V18.5243" stroke="#033F2D" stroke-width="1.5" stroke-linecap="round" stroke-linejoin="round"/>
<path d="M11.8929 9.0957V18.5243" stroke="#033F2D" stroke-width="1.5" stroke-linecap="round" stroke-linejoin="round"/>
<path d="M16.1786 9.0957V18.5243" stroke="#033F2D" stroke-width="1.5" stroke-linecap="round" stroke-linejoin="round"/>
<path d="M20.4643 9.0957V18.5243" stroke="#033F2D" stroke-width="1.5" stroke-linecap="round" stroke-linejoin="round"/>
</svg>
