<svg width="40" height="40" viewBox="0 0 40 40" fill="none" xmlns="http://www.w3.org/2000/svg">
<g clip-path="url(#clip0_314_23387)">
<path d="M7.556 25.1652C7.49584 25.1086 7.42507 25.0645 7.34777 25.0355C7.27047 25.0064 7.18818 24.993 7.10565 24.9959C7.02313 24.9988 6.942 25.0181 6.86696 25.0526C6.79193 25.087 6.72446 25.136 6.66847 25.1967C6.61248 25.2574 6.56907 25.3286 6.54076 25.4062C6.51244 25.4838 6.49978 25.5662 6.5035 25.6487C6.50723 25.7312 6.52726 25.8121 6.56244 25.8868C6.59763 25.9615 6.64727 26.0285 6.7085 26.0839C7.81909 27.1338 8.767 28.3433 9.521 29.6727C11.9516 33.8814 11.9485 37.6539 10.421 38.5352C8.8935 39.4164 5.62475 37.5339 3.19475 33.3245C2.13919 31.5848 1.48121 29.6333 1.26788 27.6095C1.15975 26.047 1.53475 24.9014 2.29475 24.4627C3.05475 24.0239 4.03475 24.3377 4.72475 24.6739C4.79875 24.7137 4.88 24.7381 4.96366 24.7458C5.04732 24.7535 5.13167 24.7442 5.21166 24.7185C5.29165 24.6929 5.36565 24.6513 5.42922 24.5964C5.4928 24.5415 5.54465 24.4743 5.58169 24.3989C5.61872 24.3235 5.64017 24.2414 5.64475 24.1575C5.64933 24.0736 5.63696 23.9897 5.60837 23.9107C5.57977 23.8317 5.53555 23.7593 5.47834 23.6978C5.42112 23.6363 5.35209 23.5869 5.27537 23.5527C3.89538 22.8745 2.65038 22.8152 1.66975 23.3795C0.46225 24.0764 -0.12525 25.6095 0.0210001 27.6958C0.247741 29.9091 0.9617 32.0448 2.11163 33.9495C4.24975 37.6564 7.24975 39.9958 9.57537 39.9952C10.0897 40.0026 10.5968 39.8732 11.0448 39.6202C13.4248 38.2452 13.2323 33.6027 10.6029 29.0495C9.78591 27.6105 8.759 26.3014 7.556 25.1652Z" fill="#033F2D"/>
<path d="M2.676 25.8871C2.2935 26.7865 2.39038 29.4315 4.27663 32.6996C6.17163 35.9815 8.36913 37.3615 9.38413 37.4884C9.41005 37.4916 9.43613 37.4933 9.46225 37.4934C9.58437 37.4933 9.70379 37.4574 9.80575 37.3902C9.90772 37.323 9.98776 37.2274 10.036 37.1153C10.4216 36.2178 10.3291 33.574 8.43788 30.2978C6.55913 27.0478 4.35788 25.654 3.33663 25.5134C3.20083 25.4952 3.0628 25.5219 2.94355 25.5893C2.8243 25.6568 2.73036 25.7614 2.676 25.8871ZM7.35538 30.9221C8.32162 32.4558 8.87792 34.2119 8.971 36.0221C7.44448 35.0424 6.19979 33.6816 5.35975 32.074C4.39378 30.5405 3.83769 28.7846 3.74475 26.9746C5.27245 27.9525 6.51732 29.3135 7.35538 30.9221Z" fill="#033F2D"/>
<path d="M38.3298 23.3816C35.9498 22.0066 32.0254 24.4972 29.3967 29.0497C26.7679 33.6022 26.5748 38.2453 28.9548 39.6203C29.4027 39.8734 29.9098 40.0028 30.4242 39.9953C32.7492 39.9953 35.7479 37.6559 37.8879 33.9497C39.0379 32.045 39.7518 29.9093 39.9786 27.6959C40.1248 25.6116 39.5373 24.0784 38.3298 23.3816ZM38.7317 27.6116C38.5183 29.6353 37.8604 31.5868 36.8048 33.3266C34.3748 37.5359 31.1073 39.4203 29.5798 38.5372C28.0523 37.6541 28.0492 33.8834 30.4798 29.6747C32.9104 25.4659 36.1779 23.5822 37.7048 24.4647C38.4648 24.9034 38.8398 26.0503 38.7317 27.6116Z" fill="#033F2D"/>
<path d="M36.6691 25.5088C35.6541 25.6338 33.4566 27.0156 31.5622 30.2969C29.6679 33.5781 29.5779 36.2169 29.9635 37.1144C30.0117 37.2266 30.0918 37.3222 30.1937 37.3894C30.2957 37.4566 30.4151 37.4924 30.5372 37.4925C30.5634 37.4924 30.5894 37.4907 30.6154 37.4875C31.6297 37.3625 33.8272 35.9813 35.7229 32.6988C37.6185 29.4163 37.7066 26.7794 37.321 25.8819C37.2674 25.7574 37.1749 25.6538 37.0573 25.5865C36.9398 25.5192 36.8035 25.4919 36.6691 25.5088ZM34.6397 32.0713C33.7999 33.679 32.5552 35.0399 31.0285 36.0194C31.1216 34.209 31.6781 32.4529 32.6447 30.9194C33.4847 29.3119 34.7294 27.9513 36.256 26.9719C36.1634 28.7829 35.6068 30.5398 34.6397 32.0738V32.0713Z" fill="#033F2D"/>
<path d="M30.4625 25.4137C30.5168 25.3522 30.5585 25.2805 30.5852 25.2029C30.6118 25.1252 30.6229 25.0431 30.6178 24.9611C30.6127 24.8792 30.5915 24.799 30.5554 24.7253C30.5193 24.6515 30.4691 24.5856 30.4075 24.5312C30.3459 24.4769 30.2743 24.4352 30.1966 24.4086C30.119 24.382 30.0368 24.3709 29.9549 24.376C29.8729 24.3811 29.7928 24.4023 29.719 24.4384C29.6453 24.4744 29.5793 24.5247 29.525 24.5863C28.6563 25.5784 27.8882 26.6543 27.2319 27.7981C25.8752 30.0309 25.0451 32.5435 24.8044 35.145C23.3063 35.8694 21.6637 36.2456 19.9997 36.2456C18.3356 36.2456 16.6931 35.8694 15.195 35.145C14.9546 32.5435 14.1246 30.031 12.7681 27.7981C11.0625 24.84 8.75625 22.5062 6.40312 21.3381C6.30203 20.4791 6.2509 19.6149 6.25 18.75C6.25 8.89437 13.6413 1.25 20 1.25C26.3587 1.25 33.75 8.89437 33.75 18.75C33.7491 19.6149 33.698 20.4791 33.5969 21.3381C32.8793 21.699 32.201 22.1334 31.5731 22.6344C31.5064 22.6844 31.4503 22.7472 31.4083 22.8192C31.3662 22.8912 31.3389 22.9708 31.3281 23.0535C31.3173 23.1362 31.3231 23.2202 31.3453 23.3006C31.3674 23.381 31.4054 23.4561 31.4571 23.5216C31.5087 23.5871 31.5729 23.6415 31.6459 23.6818C31.7189 23.7221 31.7992 23.7474 31.8822 23.7561C31.9651 23.7649 32.0489 23.757 32.1287 23.7328C32.2085 23.7087 32.2827 23.6689 32.3469 23.6156C32.9867 23.1028 33.6867 22.6698 34.4312 22.3263C34.5282 22.2825 34.6124 22.2147 34.6759 22.1292C34.7393 22.0438 34.7799 21.9436 34.7937 21.8381C34.9302 20.8144 34.9991 19.7828 35 18.75C35 8.1875 26.9375 0 20 0C13.0625 0 5 8.1875 5 18.75C5.00091 19.7828 5.06981 20.8144 5.20625 21.8381C5.22013 21.9436 5.26071 22.0438 5.32414 22.1292C5.38758 22.2147 5.47177 22.2825 5.56875 22.3263C7.79875 23.33 10.0275 25.5525 11.685 28.4231C13.0121 30.583 13.7944 33.0332 13.9644 35.5625C13.9679 35.674 14.0013 35.7826 14.0609 35.8769C14.1206 35.9712 14.2045 36.0478 14.3038 36.0988C16.0613 37.0196 18.0158 37.5006 20 37.5006C21.9841 37.5006 23.9387 37.0196 25.6962 36.0988C25.7955 36.0478 25.8794 35.9712 25.9391 35.8769C25.9987 35.7826 26.0321 35.674 26.0356 35.5625C26.2049 33.0334 26.9863 30.5833 28.3125 28.4231C28.9278 27.3513 29.648 26.3432 30.4625 25.4137Z" fill="#033F2D"/>
<path d="M29.375 21.25C29.5408 21.25 29.6997 21.1842 29.8169 21.0669C29.9342 20.9497 30 20.7908 30 20.625V18.125C30 10.765 25.6075 5 20 5C14.3925 5 10 10.765 10 18.125V20.625C10 20.7908 10.0658 20.9497 10.1831 21.0669C10.3003 21.1842 10.4592 21.25 10.625 21.25C10.7908 21.25 10.9497 21.1842 11.0669 21.0669C11.1842 20.9497 11.25 20.7908 11.25 20.625V18.125C11.25 11.5769 15.175 6.25 20 6.25C24.825 6.25 28.75 11.5769 28.75 18.125V20.625C28.75 20.7908 28.8158 20.9497 28.9331 21.0669C29.0503 21.1842 29.2092 21.25 29.375 21.25Z" fill="#033F2D"/>
<path d="M22.5 11.25C22.6658 11.25 22.8247 11.1842 22.9419 11.0669C23.0592 10.9497 23.125 10.7908 23.125 10.625C23.125 10.4592 23.0592 10.3003 22.9419 10.1831C22.8247 10.0658 22.6658 10 22.5 10H17.5C17.3342 10 17.1753 10.0658 17.0581 10.1831C16.9408 10.3003 16.875 10.4592 16.875 10.625C16.875 10.7908 16.9408 10.9497 17.0581 11.0669C17.1753 11.1842 17.3342 11.25 17.5 11.25H22.5Z" fill="#033F2D"/>
<path d="M15 14.375C15 14.5408 15.0658 14.6997 15.1831 14.8169C15.3003 14.9342 15.4592 15 15.625 15H24.375C24.5408 15 24.6997 14.9342 24.8169 14.8169C24.9342 14.6997 25 14.5408 25 14.375C25 14.2092 24.9342 14.0503 24.8169 13.9331C24.6997 13.8158 24.5408 13.75 24.375 13.75H15.625C15.4592 13.75 15.3003 13.8158 15.1831 13.9331C15.0658 14.0503 15 14.2092 15 14.375Z" fill="#033F2D"/>
<path d="M26.875 18.125C26.875 17.9592 26.8092 17.8003 26.6919 17.6831C26.5747 17.5658 26.4158 17.5 26.25 17.5H13.75C13.5842 17.5 13.4253 17.5658 13.3081 17.6831C13.1908 17.8003 13.125 17.9592 13.125 18.125C13.125 18.2908 13.1908 18.4497 13.3081 18.5669C13.4253 18.6842 13.5842 18.75 13.75 18.75H26.25C26.4158 18.75 26.5747 18.6842 26.6919 18.5669C26.8092 18.4497 26.875 18.2908 26.875 18.125Z" fill="#033F2D"/>
<path d="M15.625 29.375C15.625 30.2403 15.8816 31.0862 16.3623 31.8056C16.8431 32.5251 17.5263 33.0858 18.3258 33.417C19.1252 33.7481 20.0049 33.8347 20.8535 33.6659C21.7022 33.4971 22.4817 33.0804 23.0936 32.4686C23.7054 31.8567 24.1221 31.0772 24.2909 30.2285C24.4597 29.3799 24.3731 28.5002 24.042 27.7008C23.7108 26.9013 23.1501 26.2181 22.4306 25.7373C21.7112 25.2566 20.8653 25 20 25C18.8401 25.0013 17.7281 25.4627 16.9079 26.2829C16.0877 27.1031 15.6263 28.2151 15.625 29.375ZM23.125 29.375C23.125 29.9931 22.9417 30.5973 22.5983 31.1112C22.255 31.6251 21.7669 32.0256 21.1959 32.2621C20.6249 32.4986 19.9965 32.5605 19.3903 32.44C18.7842 32.3194 18.2273 32.0217 17.7903 31.5847C17.3533 31.1477 17.0556 30.5908 16.935 29.9847C16.8145 29.3785 16.8764 28.7501 17.1129 28.1791C17.3494 27.6081 17.7499 27.12 18.2638 26.7767C18.7777 26.4333 19.3819 26.25 20 26.25C20.8285 26.251 21.6228 26.5806 22.2086 27.1664C22.7944 27.7522 23.124 28.5465 23.125 29.375Z" fill="#033F2D"/>
</g>
<defs>
<clipPath id="clip0_314_23387">
<rect width="40" height="40" fill="white"/>
</clipPath>
</defs>
</svg>
