<svg width="24" height="24" viewBox="0 0 24 24" fill="none" xmlns="http://www.w3.org/2000/svg">
<g clip-path="url(#clip0_352_5888)">
<path d="M20.25 1.875H15.375V0.375002C15.375 0.275545 15.3355 0.180163 15.2652 0.109836C15.1948 0.0395103 15.0995 1.5031e-06 15 1.5031e-06H7.41225C6.70374 -0.000667427 6.01304 0.221952 5.43827 0.636232C4.8635 1.05051 4.4339 1.63538 4.2105 2.30775L3.54825 4.29525C3.43331 4.63933 3.3748 4.99974 3.375 5.3625V19.5C3.375 19.5995 3.41451 19.6948 3.48484 19.7652C3.55516 19.8355 3.65054 19.875 3.75 19.875C3.84946 19.875 3.94484 19.8355 4.01517 19.7652C4.08549 19.6948 4.125 19.5995 4.125 19.5V8.25H13.125V22.875C13.125 22.9745 13.0855 23.0698 13.0152 23.1402C12.9448 23.2105 12.8495 23.25 12.75 23.25H4.5C4.40054 23.25 4.30516 23.2105 4.23484 23.1402C4.16451 23.0698 4.125 22.9745 4.125 22.875V21C4.125 20.9005 4.08549 20.8052 4.01517 20.7348C3.94484 20.6645 3.84946 20.625 3.75 20.625C3.65054 20.625 3.55516 20.6645 3.48484 20.7348C3.41451 20.8052 3.375 20.9005 3.375 21V22.875C3.375 23.1734 3.49353 23.4595 3.70451 23.6705C3.91548 23.8815 4.20163 24 4.5 24H12.75C13.0484 24 13.3345 23.8815 13.5455 23.6705C13.7565 23.4595 13.875 23.1734 13.875 22.875V6.75C13.875 6.65055 13.8355 6.55516 13.7652 6.48484C13.6948 6.41451 13.5995 6.375 13.5 6.375C13.4005 6.375 13.3052 6.41451 13.2348 6.48484C13.1645 6.55516 13.125 6.65055 13.125 6.75V7.5H4.125V5.3625C4.12495 5.08044 4.17041 4.80021 4.25963 4.53263L4.92188 2.54513C5.09567 2.02216 5.42982 1.56724 5.87688 1.24499C6.32393 0.922742 6.86116 0.749545 7.41225 0.750002H13.125V5.25C13.125 5.34946 13.1645 5.44484 13.2348 5.51517C13.3052 5.58549 13.4005 5.625 13.5 5.625C13.5995 5.625 13.6948 5.58549 13.7652 5.51517C13.8355 5.44484 13.875 5.34946 13.875 5.25V4.5H15C15.0995 4.5 15.1948 4.46049 15.2652 4.39017C15.3355 4.31984 15.375 4.22446 15.375 4.125V2.625H20.25C20.3495 2.625 20.4448 2.58549 20.5152 2.51517C20.5855 2.44484 20.625 2.34946 20.625 2.25C20.625 2.15055 20.5855 2.05516 20.5152 1.98484C20.4448 1.91451 20.3495 1.875 20.25 1.875ZM14.625 3.75H13.875V0.750002H14.625V3.75Z" fill="#033F2D"/>
<path d="M8.625 12.7507C8.92003 12.7507 9.21344 12.7943 9.49575 12.88C9.59069 12.9081 9.69286 12.8974 9.77998 12.8504C9.86711 12.8034 9.93211 12.7239 9.96082 12.6291C9.98953 12.5344 9.97961 12.4322 9.93323 12.3447C9.88685 12.2572 9.80778 12.1917 9.71325 12.1623C8.91418 11.9192 8.0568 11.9499 7.27721 12.2497C6.49763 12.5495 5.84052 13.1011 5.41021 13.8169C4.97991 14.5328 4.80106 15.3719 4.90207 16.201C5.00308 17.0301 5.37815 17.8017 5.96775 18.3933C5.96891 18.3967 5.97084 18.3998 5.97337 18.4023C5.97591 18.4048 5.97898 18.4067 5.98237 18.4079C6.69227 19.0806 7.63686 19.4493 8.61472 19.4354C9.59259 19.4216 10.5264 19.0263 11.2169 18.3338C11.9075 17.6413 12.3002 16.7064 12.3114 15.7286C12.3225 14.7507 11.9512 13.8071 11.2766 13.099C11.2063 13.0287 11.1109 12.9893 11.0115 12.9893C10.9121 12.9893 10.8167 13.0287 10.7464 13.099L9.40312 14.4423C8.56012 13.7635 7.56787 13.6252 7.03387 14.1595C6.49987 14.6939 6.63825 15.6858 7.31662 16.5288L6.258 17.5882C5.91257 17.1454 5.69857 16.6145 5.64042 16.056C5.58226 15.4974 5.6823 14.9338 5.9291 14.4294C6.17591 13.925 6.55955 13.5001 7.03623 13.2033C7.51292 12.9065 8.06345 12.7496 8.625 12.7507ZM8.625 18.7507C7.959 18.7508 7.31214 18.5279 6.7875 18.1177L7.84462 17.0605C8.26581 17.4264 8.79721 17.6411 9.35437 17.6703C9.51279 17.676 9.67074 17.6498 9.81888 17.5934C9.96702 17.537 10.1024 17.4514 10.2169 17.3418C10.7509 16.8074 10.6125 15.8155 9.93412 14.9725L10.9931 13.9132C11.3379 14.3562 11.5512 14.8871 11.609 15.4455C11.6667 16.0039 11.5664 16.5672 11.3196 17.0714C11.0728 17.5756 10.6894 18.0003 10.213 18.2972C9.73655 18.5941 9.18634 18.7512 8.625 18.7507ZM9.40012 15.5058C9.80212 16.0409 9.89775 16.5993 9.68587 16.8115C9.474 17.0238 8.91487 16.9274 8.38012 16.5258L9.40012 15.5058ZM7.56262 14.6898C7.65417 14.6109 7.77316 14.5713 7.89375 14.5795C8.25176 14.6089 8.59212 14.7475 8.86875 14.9767L7.84987 15.9955C7.44787 15.4604 7.35225 14.902 7.56412 14.6898H7.56262Z" fill="#033F2D"/>
</g>
<defs>
<clipPath id="clip0_352_5888">
<rect width="24" height="24" fill="white"/>
</clipPath>
</defs>
</svg>
