<svg width="50" height="50" viewBox="0 0 50 50" fill="none" xmlns="http://www.w3.org/2000/svg">
<path d="M5.3572 21.4297H8.92862C9.40223 21.4297 9.85643 21.6178 10.1913 21.9527C10.5262 22.2876 10.7143 22.7418 10.7143 23.2154V32.144C10.7143 32.6176 10.5262 33.0718 10.1913 33.4067C9.85643 33.7416 9.40223 33.9297 8.92862 33.9297H5.3572C4.40999 33.9297 3.50159 33.5534 2.83181 32.8836C2.16204 32.2139 1.78577 31.3055 1.78577 30.3583V25.0011C1.78577 24.0539 2.16204 23.1455 2.83181 22.4757C3.50159 21.806 4.40999 21.4297 5.3572 21.4297V21.4297Z" stroke="#C7F268" stroke-width="1.5" stroke-linecap="round" stroke-linejoin="round"/>
<path d="M44.6429 33.9297H41.0715C40.5979 33.9297 40.1437 33.7415 39.8088 33.4067C39.4739 33.0718 39.2858 32.6176 39.2858 32.144V23.2154C39.2858 22.7418 39.4739 22.2876 39.8088 21.9527C40.1437 21.6178 40.5979 21.4297 41.0715 21.4297H44.6429C45.5901 21.4297 46.4985 21.806 47.1683 22.4757C47.8381 23.1455 48.2144 24.0539 48.2144 25.0011V30.3583C48.2144 31.3055 47.8381 32.2139 47.1683 32.8836C46.4985 33.5534 45.5901 33.9297 44.6429 33.9297V33.9297Z" stroke="#C7F268" stroke-width="1.5" stroke-linecap="round" stroke-linejoin="round"/>
<path d="M33.9286 43.7511C35.823 43.7511 37.6398 42.9986 38.9794 41.659C40.3189 40.3195 41.0714 38.5027 41.0714 36.6083V33.9297" stroke="#C7F268" stroke-width="1.5" stroke-linecap="round" stroke-linejoin="round"/>
<path d="M29.4644 39.2852C30.6484 39.2852 31.7839 39.7555 32.6211 40.5927C33.4583 41.4299 33.9287 42.5654 33.9287 43.7494C33.9287 44.9334 33.4583 46.069 32.6211 46.9062C31.7839 47.7434 30.6484 48.2137 29.4644 48.2137H24.1072C22.9232 48.2137 21.7877 47.7434 20.9505 46.9062C20.1133 46.069 19.6429 44.9334 19.6429 43.7494C19.6429 42.5654 20.1133 41.4299 20.9505 40.5927C21.7877 39.7555 22.9232 39.2852 24.1072 39.2852H29.4644Z" stroke="#C7F268" stroke-width="1.5" stroke-linecap="round" stroke-linejoin="round"/>
<path d="M8.92859 21.428V17.8566C8.92859 13.5942 10.6218 9.50635 13.6358 6.49237C16.6498 3.47839 20.7376 1.78516 25 1.78516C29.2624 1.78516 33.3503 3.47839 36.3642 6.49237C39.3782 9.50635 41.0714 13.5942 41.0714 17.8566V21.428" stroke="#C7F268" stroke-width="1.5" stroke-linecap="round" stroke-linejoin="round"/>
<path d="M19.6429 14.2852V19.6423" stroke="#C7F268" stroke-width="1.5" stroke-linecap="round" stroke-linejoin="round"/>
<path d="M30.3572 14.2852V19.6423" stroke="#C7F268" stroke-width="1.5" stroke-linecap="round" stroke-linejoin="round"/>
<path d="M19.6429 26.7852C19.6429 31.5352 30.3572 31.5352 30.3572 26.7852" stroke="#C7F268" stroke-width="1.5" stroke-linecap="round" stroke-linejoin="round"/>
</svg>
