<svg width="24" height="24" viewBox="0 0 24 24" fill="none" xmlns="http://www.w3.org/2000/svg">
<g clip-path="url(#clip0_352_5897)">
<path d="M14.7002 3.74258C14.7485 3.73273 14.7943 3.71347 14.8351 3.6859C14.8759 3.65833 14.9109 3.62299 14.9381 3.58191C14.9652 3.54082 14.984 3.49478 14.9934 3.44642C15.0028 3.39807 15.0025 3.34834 14.9927 3.30008C14.9828 3.25182 14.9636 3.20597 14.936 3.16515C14.9084 3.12433 14.8731 3.08934 14.832 3.06218C14.7909 3.03502 14.7449 3.01622 14.6965 3.00685C14.6482 2.99748 14.5985 2.99773 14.5502 3.00758C14.0254 3.11278 13.5279 3.32531 13.0891 3.63183C12.6503 3.93835 12.2796 4.33226 12.0002 4.78883C11.7209 4.3322 11.3502 3.93825 10.9113 3.63172C10.4725 3.32519 9.97505 3.11269 9.45019 3.00758C9.35273 2.98769 9.25135 3.00733 9.16836 3.06218C9.08538 3.11704 9.02758 3.20261 9.00769 3.30008C8.9878 3.39754 9.00744 3.49892 9.0623 3.58191C9.11715 3.66489 9.20272 3.72268 9.30019 3.74258C9.74911 3.83156 10.1732 4.01751 10.5428 4.28741C10.9123 4.55732 11.2185 4.90467 11.4399 5.3052C10.6127 5.46083 10.1252 5.9727 10.1252 6.75008C10.1031 7.3846 10.3217 8.00402 10.7372 8.48408C10.4836 8.62097 10.2651 8.81473 10.0988 9.05018C9.93262 9.28563 9.82317 9.55638 9.77907 9.8412C8.64319 10.2046 3.84732 11.8058 2.70469 13.2691C2.54981 13.4912 2.45694 13.7505 2.43565 14.0204C2.41436 14.2904 2.46542 14.5611 2.58357 14.8047C2.75569 15.158 3.23382 15.7501 4.50019 15.7501C7.04682 15.7501 8.94094 13.0943 9.85782 11.4792C9.88977 11.5721 9.92863 11.6625 9.97407 11.7496C9.99662 11.794 10.0278 11.8335 10.0658 11.8658C10.1038 11.898 10.1478 11.9224 10.1953 11.9374C10.2428 11.9525 10.2929 11.9579 10.3425 11.9534C10.3921 11.9488 10.4404 11.9345 10.4844 11.9111C10.5284 11.8877 10.5673 11.8558 10.5989 11.8172C10.6304 11.7786 10.6539 11.7341 10.6681 11.6863C10.6822 11.6385 10.6867 11.5884 10.6812 11.5389C10.6758 11.4893 10.6605 11.4414 10.6363 11.3978C10.5485 11.2375 10.5018 11.0579 10.5002 10.8751V10.1251C10.5002 9.82671 10.6187 9.54056 10.8297 9.32958C11.0407 9.1186 11.3268 9.00008 11.6252 9.00008H12.3752C12.558 9.00168 12.7376 9.04844 12.8979 9.1362C12.9834 9.17402 13.0798 9.1786 13.1684 9.14903C13.2571 9.11947 13.3315 9.05789 13.3771 8.97635C13.4227 8.89482 13.4362 8.7992 13.415 8.70821C13.3938 8.61723 13.3394 8.53743 13.2624 8.48445C13.6784 8.00445 13.8973 7.38484 13.8752 6.75008C13.8752 5.9727 13.3877 5.46083 12.5589 5.3052C12.7805 4.90453 13.087 4.5571 13.4568 4.28719C13.8267 4.01728 14.251 3.83141 14.7002 3.74258ZM4.50019 15.0001C3.85444 15.0001 3.42469 14.819 3.25782 14.4751C3.20192 14.3574 3.17608 14.2277 3.18263 14.0976C3.18917 13.9675 3.22789 13.841 3.29532 13.7296C4.09707 12.7028 7.44094 11.4147 9.39469 10.7551C8.63907 12.167 6.83044 15.0001 4.50019 15.0001ZM13.1252 6.75008C13.1252 7.00058 13.0708 8.25008 12.0002 8.25008C10.9296 8.25008 10.8752 7.00058 10.8752 6.75008C10.8752 6.56258 10.8752 6.00008 12.0002 6.00008C13.1252 6.00008 13.1252 6.56445 13.1252 6.75008Z" fill="#033F2D"/>
<path d="M16.6099 4.23417L15.8599 4.98417C15.7895 5.05448 15.75 5.14985 15.75 5.2493V5.9993C15.75 6.09875 15.7895 6.19414 15.8598 6.26446C15.9302 6.33479 16.0255 6.3743 16.125 6.3743C16.2245 6.3743 16.3198 6.33479 16.3902 6.26446C16.4605 6.19414 16.5 6.09875 16.5 5.9993V5.40455L17.1401 4.76442C17.2084 4.6937 17.2462 4.59897 17.2454 4.50065C17.2445 4.40232 17.2051 4.30827 17.1356 4.23874C17.066 4.16921 16.972 4.12977 16.8737 4.12892C16.7753 4.12807 16.6806 4.16586 16.6099 4.23417Z" fill="#033F2D"/>
<path d="M8.14013 4.98417L7.39013 4.23417C7.3194 4.16586 7.22467 4.12807 7.12635 4.12892C7.02803 4.12977 6.93397 4.16921 6.86444 4.23874C6.79492 4.30827 6.75548 4.40232 6.75462 4.50065C6.75377 4.59897 6.79157 4.6937 6.85988 4.76442L7.5 5.40455V6.7493C7.50002 6.84875 7.53954 6.94411 7.60988 7.01442L9.10987 8.51442C9.1806 8.58273 9.27533 8.62053 9.37365 8.61968C9.47197 8.61882 9.56603 8.57938 9.63556 8.50986C9.70509 8.44033 9.74452 8.34627 9.74538 8.24795C9.74623 8.14962 9.70843 8.0549 9.64013 7.98417L8.25 6.59405V5.2493C8.24998 5.14985 8.21046 5.05448 8.14013 4.98417Z" fill="#033F2D"/>
<path d="M16.5 18.5948V16.125C16.4999 16.051 16.478 15.9786 16.437 15.9169L15.687 14.7919C15.6318 14.7092 15.546 14.6517 15.4485 14.6323C15.3509 14.6128 15.2496 14.6329 15.1669 14.688C15.0841 14.7432 15.0267 14.8291 15.0072 14.9266C14.9878 15.0241 15.0078 15.1254 15.063 15.2082L15.75 16.2375V18.75C15.75 18.8495 15.7896 18.9449 15.8599 19.0152L17.3599 20.5152C17.4306 20.5835 17.5253 20.6213 17.6237 20.6204C17.722 20.6196 17.816 20.5801 17.8856 20.5106C17.9551 20.4411 17.9945 20.347 17.9954 20.2487C17.9963 20.1504 17.9585 20.0556 17.8901 19.9849L16.5 18.5948Z" fill="#033F2D"/>
<path d="M13.4605 12.2126C13.4124 12.2236 13.367 12.244 13.3268 12.2726C13.2866 12.3012 13.2525 12.3374 13.2263 12.3792C13.2002 12.421 13.1825 12.4675 13.1744 12.5162C13.1662 12.5648 13.1677 12.6146 13.1789 12.6626C13.3993 13.677 13.507 14.7127 13.5002 15.7507C13.5056 17.317 12.9764 18.8383 12.0002 20.0632C11.0727 18.8987 10.5492 17.464 10.5089 15.9757C10.5073 15.9265 10.4961 15.878 10.4758 15.8331C10.4555 15.7882 10.4266 15.7477 10.3907 15.714C10.3547 15.6803 10.3125 15.654 10.2664 15.6366C10.2204 15.6191 10.1713 15.611 10.122 15.6125C10.0728 15.6141 10.0243 15.6253 9.97943 15.6456C9.93453 15.6659 9.89406 15.6948 9.86033 15.7307C9.82661 15.7666 9.80029 15.8089 9.78288 15.8549C9.76547 15.901 9.7573 15.9501 9.75885 15.9993C9.79098 17.8211 10.4975 19.5662 11.7419 20.8972C11.8115 20.9631 11.9037 20.9997 11.9995 20.9997C12.0953 20.9997 12.1875 20.9631 12.2571 20.8972C13.5636 19.505 14.2783 17.6598 14.2502 15.7507C14.2572 14.656 14.143 13.5638 13.9097 12.4942C13.8875 12.3973 13.8277 12.3132 13.7434 12.2604C13.6592 12.2076 13.5574 12.1904 13.4605 12.2126Z" fill="#033F2D"/>
<path d="M21.2953 13.2693C20.461 12.2006 17.7328 11.0677 15.5882 10.3068C15.4945 10.2735 15.3913 10.2788 15.3015 10.3215C15.2117 10.3642 15.1425 10.4409 15.1092 10.5346C15.0758 10.6284 15.0811 10.7315 15.1238 10.8213C15.1666 10.9112 15.2432 10.9804 15.337 11.0137C18.1918 12.0292 20.1482 13.0203 20.7043 13.7328C20.772 13.8441 20.8109 13.9705 20.8174 14.1006C20.824 14.2307 20.798 14.3604 20.7418 14.4779C20.5753 14.8188 20.1456 14.9999 19.4998 14.9999C17.4133 14.9999 15.7382 12.6989 14.9248 11.3272C14.8997 11.2848 14.8665 11.2478 14.8271 11.2183C14.7877 11.1887 14.7428 11.1672 14.6951 11.155C14.6474 11.1428 14.5977 11.1401 14.549 11.1471C14.5002 11.1541 14.4533 11.1706 14.4109 11.1958C14.3685 11.2209 14.3315 11.2541 14.302 11.2935C14.2724 11.3329 14.251 11.3778 14.2387 11.4255C14.2265 11.4732 14.2239 11.5229 14.2308 11.5716C14.2378 11.6204 14.2544 11.6673 14.2795 11.7097C15.3722 13.5528 17.1643 15.7499 19.4998 15.7499C20.7662 15.7499 21.2443 15.1578 21.4165 14.8046C21.5346 14.561 21.5857 14.2904 21.5644 14.0205C21.5431 13.7506 21.4502 13.4913 21.2953 13.2693Z" fill="#033F2D"/>
<path d="M8.24982 17.25C8.15036 17.25 8.05498 17.2895 7.98465 17.3598C7.91433 17.4302 7.87482 17.5255 7.87482 17.625V18.5947L6.48469 19.9849C6.44888 20.0195 6.42031 20.0608 6.40065 20.1066C6.381 20.1523 6.37066 20.2016 6.37022 20.2513C6.36979 20.3011 6.37928 20.3505 6.39813 20.3966C6.41699 20.4427 6.44483 20.4846 6.48004 20.5198C6.51525 20.555 6.55712 20.5828 6.60321 20.6017C6.6493 20.6205 6.69868 20.63 6.74847 20.6296C6.79826 20.6292 6.84747 20.6188 6.89322 20.5992C6.93897 20.5795 6.98035 20.5509 7.01494 20.5151L8.51494 19.0151C8.58527 18.9448 8.6248 18.8494 8.62482 18.75V17.625C8.62482 17.5255 8.58531 17.4302 8.51498 17.3598C8.44466 17.2895 8.34927 17.25 8.24982 17.25Z" fill="#033F2D"/>
<path d="M20.4851 3.51492C20.4147 3.44462 20.3194 3.40513 20.2199 3.40513C20.1205 3.40513 20.0251 3.44462 19.9548 3.51492L3.79006 19.6797C1.86502 17.623 0.781993 14.9188 0.75524 12.1019C0.728488 9.28506 1.75996 6.56074 3.64559 4.46793C5.53122 2.37511 8.13366 1.06624 10.9381 0.800259C13.7425 0.534274 16.5446 1.33055 18.7901 3.03155C18.8292 3.06208 18.8741 3.08452 18.922 3.09759C18.9699 3.11065 19.0199 3.11407 19.0691 3.10764C19.1184 3.10122 19.1658 3.08508 19.2088 3.06017C19.2517 3.03525 19.2893 3.00205 19.3193 2.9625C19.3493 2.92295 19.3712 2.87783 19.3836 2.82976C19.3961 2.78169 19.3989 2.73163 19.3918 2.68248C19.3847 2.63333 19.368 2.58607 19.3425 2.54344C19.317 2.50082 19.2834 2.46368 19.2434 2.43417C17.1624 0.848066 14.6165 -0.00749258 11.9999 4.94393e-05C9.62918 -0.00123231 7.31122 0.700122 5.33886 2.01552C3.3665 3.33092 1.82822 5.20135 0.918329 7.39054C0.0084385 9.57974 -0.232243 11.9895 0.226688 14.3154C0.685618 16.6413 1.82357 18.779 3.49681 20.4585C3.50393 20.4672 3.50693 20.4773 3.51481 20.4852C3.52268 20.493 3.53281 20.496 3.54143 20.5032C5.79796 22.7314 8.84499 23.9755 12.0162 23.9635C15.1875 23.9515 18.225 22.6842 20.4645 20.4389C22.7041 18.1935 23.9634 15.1528 23.9673 11.9815C23.9711 8.81023 22.7191 5.76644 20.4851 3.51567V3.51492ZM11.9999 23.25C9.14631 23.2516 6.39963 22.1643 4.32031 20.2099L20.2124 4.31667C21.7112 5.91765 22.7092 7.92188 23.0836 10.0827C23.4581 12.2435 23.1926 14.4667 22.3199 16.4786C21.4473 18.4905 20.0054 20.2034 18.1718 21.4065C16.3383 22.6096 14.193 23.2504 11.9999 23.25Z" fill="#033F2D"/>
</g>
<defs>
<clipPath id="clip0_352_5897">
<rect width="24" height="24" fill="white"/>
</clipPath>
</defs>
</svg>
