<svg width="24" height="24" viewBox="0 0 24 24" fill="none" xmlns="http://www.w3.org/2000/svg">
<g clip-path="url(#clip0_177_98)">
<path d="M12 23.1431C18.154 23.1431 23.1429 18.1543 23.1429 12.0003C23.1429 5.84625 18.154 0.857422 12 0.857422C5.84597 0.857422 0.857147 5.84625 0.857147 12.0003C0.857147 18.1543 5.84597 23.1431 12 23.1431Z" stroke="#033F2D" stroke-width="1.5" stroke-linecap="round" stroke-linejoin="round"/>
<path d="M0.857147 12H23.1429" stroke="#033F2D" stroke-width="1.5" stroke-linecap="round" stroke-linejoin="round"/>
<path d="M16.2857 12.0003C16.0752 16.0751 14.5743 19.9774 12 23.1431C9.4257 19.9774 7.92481 16.0751 7.71429 12.0003C7.92481 7.92544 9.4257 4.02311 12 0.857422C14.5743 4.02311 16.0752 7.92544 16.2857 12.0003V12.0003Z" stroke="#033F2D" stroke-width="1.5" stroke-linecap="round" stroke-linejoin="round"/>
</g>
<defs>
<clipPath id="clip0_177_98">
<rect width="24" height="24" fill="white"/>
</clipPath>
</defs>
</svg>
