<svg width="30" height="30" viewBox="0 0 30 30" fill="none" xmlns="http://www.w3.org/2000/svg">
<g clip-path="url(#clip0_314_23130)">
<path d="M25.3125 2.34375H19.2188V0.468752C19.2188 0.344432 19.1694 0.225203 19.0815 0.137296C18.9936 0.0493879 18.8743 1.87888e-06 18.75 1.87888e-06H9.26531C8.37968 -0.000834284 7.5163 0.27744 6.79784 0.79529C6.07938 1.31314 5.54237 2.04423 5.26313 2.88469L4.43531 5.36906C4.29164 5.79916 4.2185 6.24967 4.21875 6.70313V24.375C4.21875 24.4993 4.26814 24.6186 4.35604 24.7065C4.44395 24.7944 4.56318 24.8438 4.6875 24.8438C4.81182 24.8438 4.93105 24.7944 5.01896 24.7065C5.10686 24.6186 5.15625 24.4993 5.15625 24.375V10.3125H16.4063V28.5938C16.4063 28.7181 16.3569 28.8373 16.269 28.9252C16.1811 29.0131 16.0618 29.0625 15.9375 29.0625H5.625C5.50068 29.0625 5.38145 29.0131 5.29354 28.9252C5.20564 28.8373 5.15625 28.7181 5.15625 28.5938V26.25C5.15625 26.1257 5.10686 26.0065 5.01896 25.9185C4.93105 25.8306 4.81182 25.7813 4.6875 25.7813C4.56318 25.7813 4.44395 25.8306 4.35604 25.9185C4.26814 26.0065 4.21875 26.1257 4.21875 26.25V28.5938C4.21875 28.9667 4.36691 29.3244 4.63063 29.5881C4.89435 29.8518 5.25204 30 5.625 30H15.9375C16.3105 30 16.6681 29.8518 16.9319 29.5881C17.1956 29.3244 17.3438 28.9667 17.3438 28.5938V8.4375C17.3438 8.31318 17.2944 8.19395 17.2065 8.10604C17.1186 8.01814 16.9993 7.96875 16.875 7.96875C16.7507 7.96875 16.6315 8.01814 16.5435 8.10604C16.4556 8.19395 16.4063 8.31318 16.4063 8.4375V9.375H5.15625V6.70313C5.15618 6.35054 5.21301 6.00026 5.32453 5.66578L6.15234 3.18141C6.36959 2.52769 6.78728 1.95905 7.3461 1.55624C7.90492 1.15343 8.57645 0.936932 9.26531 0.937502H16.4063V6.5625C16.4063 6.68682 16.4556 6.80605 16.5435 6.89396C16.6315 6.98187 16.7507 7.03125 16.875 7.03125C16.9993 7.03125 17.1186 6.98187 17.2065 6.89396C17.2944 6.80605 17.3438 6.68682 17.3438 6.5625V5.625H18.75C18.8743 5.625 18.9936 5.57562 19.0815 5.48771C19.1694 5.3998 19.2188 5.28057 19.2188 5.15625V3.28125H25.3125C25.4368 3.28125 25.556 3.23187 25.644 3.14396C25.7319 3.05605 25.7812 2.93682 25.7812 2.8125C25.7812 2.68818 25.7319 2.56895 25.644 2.48105C25.556 2.39314 25.4368 2.34375 25.3125 2.34375ZM18.2813 4.6875H17.3438V0.937502H18.2813V4.6875Z" fill="#033F2D"/>
<path d="M10.7812 15.9383C11.15 15.9384 11.5168 15.9929 11.8697 16.1001C11.9884 16.1351 12.1161 16.1218 12.225 16.063C12.3339 16.0043 12.4151 15.9049 12.451 15.7864C12.4869 15.668 12.4745 15.5402 12.4165 15.4309C12.3586 15.3216 12.2597 15.2396 12.1416 15.2029C11.1427 14.899 10.071 14.9374 9.09652 15.3121C8.12204 15.6868 7.30066 16.3763 6.76277 17.2712C6.22489 18.166 6.00133 19.2148 6.12759 20.2512C6.25385 21.2876 6.72269 22.2521 7.45969 22.9916C7.46115 22.9959 7.46355 22.9997 7.46672 23.0029C7.46989 23.006 7.47373 23.0084 7.47797 23.0099C8.36535 23.8507 9.54608 24.3116 10.7684 24.2943C11.9907 24.2769 13.1579 23.7828 14.0212 22.9172C14.8844 22.0516 15.3753 20.8831 15.3892 19.6607C15.4032 18.4383 14.939 17.2589 14.0958 16.3738C14.0079 16.2859 13.8887 16.2366 13.7644 16.2366C13.6401 16.2366 13.5209 16.2859 13.433 16.3738L11.7539 18.0529C10.7002 17.2044 9.45984 17.0315 8.79234 17.6994C8.12484 18.3674 8.29781 19.6072 9.14578 20.661L7.8225 21.9852C7.39072 21.4318 7.12322 20.7681 7.05053 20.07C6.97783 19.3718 7.10288 18.6673 7.41138 18.0368C7.71989 17.4062 8.19944 16.8752 8.79529 16.5041C9.39115 16.1331 10.0793 15.937 10.7812 15.9383ZM10.7812 23.4383C9.94875 23.4384 9.14018 23.1599 8.48437 22.6471L9.80578 21.3257C10.3323 21.7831 10.9965 22.0513 11.693 22.0879C11.891 22.0949 12.0884 22.0622 12.2736 21.9917C12.4588 21.9212 12.6279 21.8143 12.7711 21.6772C13.4386 21.0093 13.2656 19.7694 12.4177 18.7157L13.7414 17.3915C14.1723 17.9452 14.439 18.6089 14.5112 19.3069C14.5833 20.0048 14.458 20.709 14.1495 21.3392C13.841 21.9694 13.3617 22.5004 12.7662 22.8715C12.1707 23.2426 11.4829 23.439 10.7812 23.4383ZM11.7502 19.3822C12.2527 20.0511 12.3722 20.7491 12.1073 21.0144C11.8425 21.2797 11.1436 21.1593 10.4752 20.6572L11.7502 19.3822ZM9.45328 18.3622C9.56772 18.2636 9.71645 18.2141 9.86719 18.2244C10.3147 18.2611 10.7402 18.4344 11.0859 18.7208L9.81234 19.9944C9.30984 19.3255 9.19031 18.6276 9.45515 18.3622H9.45328Z" fill="#033F2D"/>
</g>
<defs>
<clipPath id="clip0_314_23130">
<rect width="30" height="30" fill="white"/>
</clipPath>
</defs>
</svg>
