<svg width="50" height="50" viewBox="0 0 50 50" fill="none" xmlns="http://www.w3.org/2000/svg">
<path d="M5.35713 21.4277H8.92856C9.40216 21.4277 9.85637 21.6159 10.1913 21.9508C10.5261 22.2856 10.7143 22.7398 10.7143 23.2134V32.142C10.7143 32.6156 10.5261 33.0698 10.1913 33.4047C9.85637 33.7396 9.40216 33.9277 8.92856 33.9277H5.35713C4.40993 33.9277 3.50153 33.5515 2.83175 32.8817C2.16198 32.2119 1.78571 31.3035 1.78571 30.3563V24.9992C1.78571 24.052 2.16198 23.1436 2.83175 22.4738C3.50153 21.804 4.40993 21.4277 5.35713 21.4277V21.4277Z" stroke="white" stroke-width="1.5" stroke-linecap="round" stroke-linejoin="round"/>
<path d="M44.6428 33.9277H41.0714C40.5978 33.9277 40.1436 33.7396 39.8087 33.4047C39.4738 33.0698 39.2857 32.6156 39.2857 32.142V23.2134C39.2857 22.7398 39.4738 22.2856 39.8087 21.9508C40.1436 21.6159 40.5978 21.4277 41.0714 21.4277H44.6428C45.59 21.4277 46.4984 21.804 47.1682 22.4738C47.838 23.1436 48.2143 24.052 48.2143 24.9992V30.3563C48.2143 31.3035 47.838 32.2119 47.1682 32.8817C46.4984 33.5515 45.59 33.9277 44.6428 33.9277V33.9277Z" stroke="white" stroke-width="1.5" stroke-linecap="round" stroke-linejoin="round"/>
<path d="M33.9286 43.7492C35.823 43.7492 37.6398 42.9966 38.9793 41.6571C40.3189 40.3175 41.0714 38.5007 41.0714 36.6063V33.9277" stroke="white" stroke-width="1.5" stroke-linecap="round" stroke-linejoin="round"/>
<path d="M29.4643 39.2852C30.6483 39.2852 31.7838 39.7555 32.621 40.5927C33.4582 41.4299 33.9286 42.5654 33.9286 43.7494C33.9286 44.9334 33.4582 46.069 32.621 46.9062C31.7838 47.7434 30.6483 48.2137 29.4643 48.2137H24.1071C22.9231 48.2137 21.7876 47.7434 20.9504 46.9062C20.1132 46.069 19.6429 44.9334 19.6429 43.7494C19.6429 42.5654 20.1132 41.4299 20.9504 40.5927C21.7876 39.7555 22.9231 39.2852 24.1071 39.2852H29.4643Z" stroke="white" stroke-width="1.5" stroke-linecap="round" stroke-linejoin="round"/>
<path d="M8.92856 21.428V17.8566C8.92856 13.5942 10.6218 9.50635 13.6358 6.49237C16.6497 3.47839 20.7376 1.78516 25 1.78516C29.2624 1.78516 33.3502 3.47839 36.3642 6.49237C39.3782 9.50635 41.0714 13.5942 41.0714 17.8566V21.428" stroke="white" stroke-width="1.5" stroke-linecap="round" stroke-linejoin="round"/>
<path d="M19.6429 14.2852V19.6423" stroke="white" stroke-width="1.5" stroke-linecap="round" stroke-linejoin="round"/>
<path d="M30.3571 14.2852V19.6423" stroke="white" stroke-width="1.5" stroke-linecap="round" stroke-linejoin="round"/>
<path d="M19.6429 26.7852C19.6429 31.5352 30.3571 31.5352 30.3571 26.7852" stroke="white" stroke-width="1.5" stroke-linecap="round" stroke-linejoin="round"/>
</svg>
