<svg width="30" height="30" viewBox="0 0 30 30" fill="none" xmlns="http://www.w3.org/2000/svg">
<g clip-path="url(#clip0_352_5523)">
<path d="M26.1912 3.63239C26.2308 3.66767 26.2703 3.70294 26.3111 3.73928C26.6651 4.0739 26.9558 4.4731 27.2459 4.86286C27.2709 4.89639 27.2959 4.92992 27.3217 4.96446C28.0321 5.93152 28.5226 7.04576 28.8279 8.20271C28.8463 8.27137 28.8648 8.34002 28.8837 8.41076C29.4738 10.872 29.0146 13.5744 27.7105 15.7345C27.5998 15.9042 27.4842 16.0676 27.3631 16.2301C27.318 16.2917 27.2729 16.3533 27.2264 16.4168C26.7681 17.0338 26.2645 17.6222 25.6638 18.1051C25.61 18.1494 25.5561 18.1937 25.5006 18.2394C23.9739 19.4719 21.9456 20.3317 19.9661 20.3435C19.9211 20.3438 19.8761 20.3442 19.8298 20.3445C19.735 20.3451 19.6401 20.3455 19.5453 20.3457C19.404 20.3463 19.2628 20.3481 19.1215 20.3499C17.6841 20.3597 16.3859 19.9881 15.084 19.3992C14.9005 19.3174 14.7157 19.2387 14.531 19.1597C14.4832 19.2077 14.4355 19.2557 14.3862 19.3052C13.2508 20.4457 12.1148 21.5856 10.978 22.7247C10.8379 22.8651 10.6978 23.0055 10.5578 23.1459C10.5299 23.1738 10.502 23.2017 10.4733 23.2305C10.0225 23.6824 9.57206 24.1346 9.1218 24.587C8.65942 25.0516 8.19658 25.5157 7.73334 25.9795C7.47332 26.2398 7.21351 26.5003 6.95419 26.7614C6.7099 27.0072 6.46507 27.2526 6.21981 27.4975C6.13009 27.5872 6.04057 27.6772 5.95126 27.7674C5.28572 28.4394 4.63493 29.0747 3.63324 29.0895C3.5871 29.0889 3.54096 29.0883 3.49343 29.0877C3.42048 29.0871 3.42048 29.0871 3.34605 29.0864C2.60911 29.0667 2.01543 28.7613 1.50856 28.2308C1.03961 27.6703 0.85958 27.0138 0.885775 26.2871C1.02488 25.0882 1.95196 24.3472 2.75759 23.5437C2.846 23.4553 2.9344 23.3669 3.02279 23.2785C3.26123 23.04 3.49985 22.8017 3.73851 22.5635C3.98846 22.3139 4.23825 22.0642 4.48805 21.8144C4.96043 21.3422 5.43296 20.8702 5.90554 20.3982C6.44384 19.8605 6.98198 19.3227 7.5201 18.7849C8.62642 17.6792 9.73295 16.5737 10.8396 15.4683C10.8143 15.4107 10.8143 15.4107 10.7885 15.3519C10.7113 15.1757 10.6342 14.9994 10.5572 14.8231C10.5306 14.7627 10.5041 14.7022 10.4768 14.64C9.43233 12.2469 9.32576 9.5783 10.2485 7.12316C10.6976 6.00308 11.3018 5.00577 12.1223 4.11877C12.2336 3.99736 12.3386 3.87272 12.4436 3.74592C12.6983 3.4552 12.9956 3.22362 13.3006 2.98786C13.332 2.96285 13.3634 2.93784 13.3957 2.91208C17.2593 -0.157937 22.6405 0.441403 26.1912 3.63239ZM15.8201 2.6363C15.7646 2.66107 15.7646 2.66107 15.7079 2.68634C14.7509 3.11714 13.9324 3.722 13.1834 4.45271C13.143 4.48949 13.1025 4.52627 13.0609 4.56417C11.5242 6.0003 10.6708 8.24393 10.5959 10.3155C10.5354 12.7272 11.4106 14.9505 13.0662 16.6988C13.1338 16.7711 13.1338 16.7711 13.2028 16.8448C14.7952 18.4963 17.0578 19.364 19.3321 19.4088C21.7779 19.3609 23.9942 18.4135 25.7129 16.6705C27.2643 15.0436 28.1632 12.7963 28.1248 10.5465C28.0564 8.67769 27.5048 6.8008 26.3084 5.33161C26.2838 5.30129 26.2593 5.27096 26.234 5.23972C24.771 3.44153 22.7219 2.19457 20.3904 1.93318C18.8232 1.77539 17.2584 1.97882 15.8201 2.6363ZM11.3273 16.4384C11.2635 16.5025 11.2635 16.5025 11.1984 16.5678C11.1262 16.6399 11.1262 16.6399 11.0526 16.7135C11.0004 16.7661 10.9481 16.8186 10.8943 16.8728C10.8145 16.9527 10.8145 16.9527 10.733 17.0343C10.5912 17.1764 10.4495 17.3186 10.3079 17.4609C10.1635 17.6059 10.0189 17.7508 9.87431 17.8956C9.59045 18.1801 9.30677 18.4648 9.02321 18.7496C9.10385 18.9307 9.19616 19.0541 9.33658 19.1934C9.37646 19.2333 9.41633 19.2732 9.45742 19.3143C9.50039 19.3566 9.54336 19.399 9.58763 19.4426C9.63169 19.4865 9.67574 19.5304 9.72113 19.5756C9.86175 19.7156 10.0028 19.8552 10.1438 19.9947C10.2393 20.0896 10.3347 20.1845 10.4301 20.2794C10.664 20.512 10.8982 20.7442 11.1326 20.9761C11.3269 20.8914 11.4544 20.7858 11.6033 20.6359C11.6491 20.5901 11.6948 20.5444 11.7419 20.4973C11.7907 20.4479 11.8395 20.3985 11.8897 20.3476C11.9653 20.2718 11.9653 20.2718 12.0424 20.1944C12.2033 20.0329 12.3637 19.871 12.5242 19.7091C12.6332 19.5995 12.7422 19.4899 12.8513 19.3804C13.1185 19.1118 13.3854 18.8429 13.6521 18.5738C13.4925 18.4121 13.3335 18.2537 13.1589 18.1083C12.5571 17.6009 12.0308 17.0739 11.559 16.4399C11.5219 16.3941 11.5219 16.3941 11.4841 16.3472C11.4104 16.3406 11.4104 16.3406 11.3273 16.4384ZM8.15265 19.6135C8.10631 19.6601 8.05998 19.7068 8.01224 19.7548C7.9622 19.8051 7.91216 19.8553 7.86061 19.907C7.808 19.9601 7.75539 20.0132 7.70119 20.0679C7.62194 20.1476 7.62194 20.1476 7.54109 20.2288C7.41 20.3606 7.27905 20.4925 7.14821 20.6246C7.22885 20.8057 7.32116 20.9291 7.46158 21.0684C7.50146 21.1083 7.54133 21.1482 7.58242 21.1893C7.62539 21.2316 7.66836 21.274 7.71263 21.3176C7.77871 21.3835 7.77871 21.3835 7.84613 21.4506C7.98675 21.5906 8.12778 21.7302 8.26882 21.8697C8.36429 21.9646 8.45973 22.0595 8.55515 22.1544C8.78899 22.387 9.02316 22.6192 9.25759 22.8511C9.4524 22.7588 9.58081 22.6589 9.73275 22.5046C9.77693 22.4601 9.82112 22.4155 9.86664 22.3696C9.91219 22.3231 9.95773 22.2765 10.0047 22.2286C10.0511 22.1816 10.0976 22.1346 10.1454 22.0862C10.2599 21.9704 10.3741 21.8542 10.4881 21.7379C10.2398 21.4416 9.98058 21.1632 9.70688 20.8903C9.6672 20.8506 9.62752 20.8108 9.58664 20.7699C9.50354 20.6868 9.42037 20.6037 9.33714 20.5207C9.20912 20.393 9.08142 20.265 8.95375 20.1369C8.87278 20.056 8.79179 19.9751 8.71079 19.8942C8.67246 19.8558 8.63413 19.8173 8.59465 19.7777C8.39061 19.5104 8.39061 19.5104 8.15265 19.6135ZM5.99629 21.7633C5.95551 21.8035 5.91473 21.8436 5.87272 21.8849C5.4447 22.3064 5.01853 22.7298 4.5925 23.1533C4.39043 23.3541 4.1878 23.5543 3.98465 23.754C3.73938 23.9951 3.49514 24.2372 3.25159 24.48C3.15876 24.5722 3.06557 24.6641 2.97203 24.7556C2.20037 25.4922 2.20037 25.4922 1.90773 26.4913C1.96971 27.0403 2.16108 27.4023 2.5779 27.773C2.96315 28.0259 3.35176 28.1115 3.80837 28.066C4.24493 27.946 4.53728 27.7391 4.84809 27.4177C4.88933 27.3766 4.93056 27.3354 4.97304 27.2929C5.10767 27.1581 5.24102 27.022 5.37438 26.8859C5.46805 26.7915 5.5618 26.6973 5.65562 26.6031C5.90127 26.3561 6.14584 26.1081 6.39019 25.8599C6.64016 25.6063 6.89114 25.3537 7.14203 25.1011C7.63336 24.606 8.12356 24.1098 8.61306 23.6129C8.34287 23.2935 8.34287 23.2935 8.05577 22.9894C8.01962 22.9531 7.98347 22.9167 7.94622 22.8793C7.90849 22.8417 7.87076 22.8041 7.83188 22.7653C7.7922 22.7256 7.75252 22.6858 7.71164 22.6449C7.62854 22.5618 7.54537 22.4787 7.46214 22.3957C7.33412 22.268 7.20642 22.14 7.07875 22.0119C6.99778 21.931 6.91679 21.8501 6.83579 21.7692C6.79746 21.7308 6.75913 21.6923 6.71965 21.6527C6.35182 21.2868 6.33378 21.4296 5.99629 21.7633Z" fill="#033F2D"/>
<path d="M16.4356 5.23438C16.8235 5.30364 17.0686 5.71344 17.3181 6.00342C17.3677 6.06063 17.3677 6.06063 17.4183 6.119C17.5931 6.32139 17.7643 6.5256 17.9297 6.73584C18.0919 6.65801 18.241 6.57104 18.3911 6.47217C18.8144 6.20939 19.1932 6.15858 19.6875 6.2085C20.0407 6.29634 20.3634 6.41568 20.625 6.67725C20.654 6.73525 20.654 6.73525 20.6836 6.79443C21.0286 6.42209 21.3599 6.04614 21.6735 5.64659C21.8499 5.44463 21.9977 5.28828 22.2656 5.23804C22.508 5.28348 22.5908 5.36552 22.7344 5.56396C22.7639 5.80902 22.756 5.93692 22.6309 6.15196C22.5829 6.2105 22.5349 6.26904 22.4854 6.32935C22.4467 6.37732 22.4467 6.37732 22.4073 6.42626C22.2603 6.60715 22.1079 6.78325 21.955 6.95923C21.9232 6.99593 21.8914 7.03264 21.8586 7.07045C21.7965 7.14159 21.734 7.21231 21.6708 7.28254C21.4709 7.5089 21.4709 7.5089 21.3867 7.79053C21.4364 7.94553 21.4894 8.09114 21.5515 8.24097C21.6882 8.57519 21.7866 8.9005 21.8555 9.25537C21.9161 9.25623 21.9767 9.25708 22.0391 9.25796C22.2646 9.26137 22.4901 9.26589 22.7156 9.27075C22.813 9.27269 22.9105 9.27434 23.008 9.27567C23.1484 9.27764 23.2887 9.28071 23.429 9.28398C23.4941 9.28454 23.4941 9.28454 23.5604 9.28512C23.8217 9.2925 23.9915 9.32867 24.1992 9.48975C24.318 9.65294 24.318 9.65294 24.4299 9.84497C24.4701 9.91349 24.5104 9.982 24.5506 10.0505C24.6087 10.15 24.6087 10.15 24.668 10.2515C24.7037 10.3069 24.7394 10.3623 24.7762 10.4195C25.077 10.8873 25.077 10.8873 25.0195 11.189C24.9704 11.3363 24.9276 11.403 24.8071 11.5002C24.5898 11.5632 24.4067 11.5696 24.1992 11.4819C24.0127 11.2857 23.8867 11.047 23.7819 10.7987C23.702 10.6275 23.6295 10.5033 23.4961 10.3687C23.232 10.2959 22.9838 10.3129 22.7124 10.332C22.6413 10.3347 22.5703 10.3373 22.497 10.34C22.322 10.3469 22.1475 10.3565 21.9727 10.3687C21.9733 10.4043 21.9739 10.4399 21.9746 10.4766C21.9782 10.8316 21.9578 11.177 21.9177 11.5295C21.9101 11.6015 21.9101 11.6015 21.9023 11.675C21.877 11.9067 21.8446 12.1325 21.7969 12.3608C21.838 12.3599 21.879 12.359 21.9213 12.3581C22.1081 12.3544 22.2949 12.3521 22.4817 12.3499C22.5463 12.3484 22.6109 12.3469 22.6775 12.3454C22.74 12.3448 22.8025 12.3443 22.8669 12.3437C22.9243 12.3428 22.9817 12.3418 23.0408 12.3409C23.2334 12.3646 23.3401 12.4228 23.4961 12.5366C23.6149 12.6998 23.6149 12.6998 23.7268 12.8918C23.767 12.9604 23.8072 13.029 23.8474 13.0976C23.8862 13.1639 23.9249 13.2301 23.9649 13.2983C24.0006 13.3531 24.0363 13.4079 24.0731 13.4643C24.2163 13.6846 24.3097 13.8468 24.3567 14.1077C24.3035 14.3545 24.2295 14.4427 24.0235 14.5874C23.8184 14.624 23.8184 14.624 23.6133 14.5874C23.4266 14.4347 23.3118 14.2952 23.2237 14.0736C23.1189 13.8176 23.0159 13.5885 22.793 13.4155C22.3682 13.2686 21.8722 13.2795 21.4453 13.4155C21.2619 13.5751 21.2011 13.6997 21.1123 13.9243C20.9247 14.3969 20.4949 14.7819 20.0391 14.9976C19.5838 15.1746 19.1031 15.1757 18.6461 15.0037C17.9956 14.6808 17.5859 14.1172 17.2852 13.4741C17.2852 13.4354 17.2852 13.3968 17.2852 13.3569C16.8211 13.3569 16.357 13.3569 15.8789 13.3569C15.8402 13.4536 15.8016 13.5503 15.7617 13.6499C15.6881 13.792 15.613 13.9317 15.5347 14.071C15.5148 14.1079 15.495 14.1447 15.4745 14.1826C15.3623 14.3821 15.2822 14.5176 15.0586 14.5874C14.8207 14.6228 14.7363 14.6084 14.5386 14.4666C14.4165 14.2978 14.3801 14.2162 14.3867 14.0109C14.4493 13.7215 14.6296 13.4737 14.7839 13.2251C14.8362 13.1379 14.8362 13.1379 14.8896 13.0489C15.2509 12.453 15.2509 12.453 15.5274 12.3608C15.6355 12.356 15.7439 12.3545 15.8521 12.3551C15.915 12.3553 15.9779 12.3555 16.0427 12.3557C16.1083 12.3562 16.1739 12.3567 16.2415 12.3572C16.3409 12.3576 16.3409 12.3576 16.4423 12.358C16.6061 12.3587 16.7698 12.3596 16.9336 12.3608C16.9155 12.3113 16.8974 12.2617 16.8787 12.2107C16.7472 11.7852 16.7504 11.3698 16.7542 10.929C16.7544 10.8693 16.7547 10.8097 16.755 10.7483C16.7557 10.6022 16.7566 10.4561 16.7578 10.3101C15.8887 10.2029 15.8887 10.2029 15.1018 10.4731C14.896 10.726 14.76 11.0103 14.6448 11.3141C14.5899 11.4233 14.5899 11.4233 14.4141 11.5405C14.1585 11.5737 14.0451 11.5694 13.8318 11.4197C13.7136 11.2513 13.6774 11.167 13.6837 10.964C13.746 10.6746 13.9266 10.4268 14.0808 10.1782C14.1157 10.1201 14.1505 10.0619 14.1865 10.002C14.5478 9.40612 14.5478 9.40612 14.8242 9.31396C14.98 9.30899 15.1342 9.30717 15.29 9.30824C15.3353 9.30833 15.3805 9.30841 15.4272 9.30849C15.5717 9.30882 15.7161 9.30956 15.8606 9.3103C15.9586 9.3106 16.0566 9.31086 16.1546 9.3111C16.3947 9.31175 16.6349 9.31276 16.875 9.31396C16.8788 9.26419 16.8788 9.26419 16.8827 9.21341C16.9104 8.90975 16.9688 8.65173 17.0801 8.36548C17.2315 7.99987 17.2315 7.99987 17.2852 7.61475C17.1922 7.45759 17.0705 7.33229 16.9446 7.20093C16.8743 7.12347 16.8041 7.04587 16.734 6.96815C16.6987 6.9294 16.6633 6.89064 16.6269 6.85071C16.4732 6.68005 16.3263 6.50505 16.1829 6.32568C16.1116 6.23867 16.1116 6.23867 16.0389 6.1499C15.9156 5.93619 15.9088 5.80704 15.9375 5.56396C16.0894 5.34764 16.1743 5.28103 16.4356 5.23438ZM18.457 7.79053C17.707 9.05046 17.5236 10.6462 17.8528 12.0715C18.0313 12.7733 18.3153 13.6337 18.9624 14.0417C19.1798 14.1263 19.2828 14.1644 19.5117 14.1187C20.0792 13.8521 20.3792 13.3798 20.6104 12.8149C21.1509 11.2876 21.1085 9.58771 20.4273 8.11279C20.2154 7.71905 19.9465 7.3558 19.5117 7.20459C19.0596 7.1213 18.7028 7.45039 18.457 7.79053Z" fill="#033F2D"/>
<path d="M16.289 3.45843C16.4852 3.60031 16.568 3.68544 16.6186 3.92351C16.57 4.16194 16.4697 4.29928 16.289 4.45452C16.1538 4.54121 16.015 4.62 15.8754 4.69965C14.3638 5.63316 13.1643 7.22967 12.7311 8.95954C12.6787 9.19048 12.6282 9.42141 12.5843 9.65414C12.5392 9.88114 12.507 10.043 12.3694 10.232C12.1723 10.3629 12.0054 10.3598 11.7773 10.3139C11.6052 10.1992 11.5551 10.125 11.502 9.92594C11.4799 9.67768 11.5218 9.47426 11.5796 9.23357C11.5905 9.18708 11.6014 9.14058 11.6126 9.09268C12.178 6.74983 13.5943 4.84328 15.6445 3.57561C15.8698 3.44874 16.0275 3.42631 16.289 3.45843Z" fill="#033F2D"/>
<path d="M18.2813 2.81338C18.4124 2.91911 18.4474 2.99492 18.4774 3.15922C18.494 3.38787 18.4847 3.4839 18.3325 3.66299C18.134 3.76655 18.0332 3.78766 17.8125 3.75088C17.6123 3.63522 17.5358 3.56424 17.4609 3.34439C17.4609 3.12828 17.502 3.03925 17.6367 2.87197C17.8446 2.70866 18.035 2.7507 18.2813 2.81338Z" fill="#033F2D"/>
</g>
<defs>
<clipPath id="clip0_352_5523">
<rect width="30" height="30" fill="white"/>
</clipPath>
</defs>
</svg>
