<svg width="30" height="30" viewBox="0 0 30 30" fill="none" xmlns="http://www.w3.org/2000/svg">
<g clip-path="url(#clip0_352_5451)">
<path d="M18.3753 4.67822C18.4356 4.66591 18.4929 4.64184 18.5439 4.60738C18.5949 4.57292 18.6387 4.52874 18.6726 4.47738C18.7066 4.42602 18.7301 4.36847 18.7418 4.30803C18.7535 4.24758 18.7532 4.18542 18.7409 4.1251C18.7286 4.06477 18.7045 4.00746 18.67 3.95644C18.6356 3.90541 18.5914 3.86168 18.54 3.82773C18.4887 3.79378 18.4311 3.77027 18.3707 3.75856C18.3102 3.74685 18.2481 3.74716 18.1878 3.75947C17.5317 3.89097 16.9099 4.15663 16.3614 4.53979C15.8129 4.92294 15.3495 5.41532 15.0003 5.98603C14.6511 5.41525 14.1877 4.92281 13.6392 4.53965C13.0907 4.15648 12.4688 3.89086 11.8128 3.75947C11.6909 3.73461 11.5642 3.75916 11.4605 3.82773C11.3567 3.8963 11.2845 4.00326 11.2596 4.1251C11.2348 4.24693 11.2593 4.37365 11.3279 4.47738C11.3965 4.58111 11.5034 4.65336 11.6253 4.67822C12.1864 4.78946 12.7165 5.02189 13.1785 5.35927C13.6405 5.69665 14.0232 6.13084 14.2999 6.6315C13.2659 6.82603 12.6565 7.46588 12.6565 8.43759C12.6288 9.23075 12.9021 10.005 13.4215 10.6051C13.1045 10.7762 12.8314 11.0184 12.6236 11.3127C12.4158 11.607 12.279 11.9455 12.2239 12.3015C10.804 12.7557 4.80917 14.7573 3.38089 16.5863C3.18729 16.864 3.0712 17.1882 3.04459 17.5256C3.01798 17.863 3.0818 18.2013 3.22948 18.5059C3.44464 18.9474 4.04229 19.6876 5.62526 19.6876C8.80854 19.6876 11.1762 16.3679 12.3223 14.349C12.3622 14.4651 12.4108 14.5781 12.4676 14.687C12.4958 14.7425 12.5348 14.7919 12.5823 14.8322C12.6298 14.8725 12.6848 14.903 12.7442 14.9218C12.8036 14.9406 12.8661 14.9473 12.9282 14.9417C12.9902 14.936 13.0505 14.9181 13.1055 14.8888C13.1605 14.8596 13.2092 14.8197 13.2486 14.7715C13.288 14.7233 13.3174 14.6677 13.3351 14.6079C13.3528 14.5482 13.3584 14.4855 13.3516 14.4236C13.3448 14.3617 13.3257 14.3017 13.2954 14.2473C13.1857 14.0468 13.1272 13.8224 13.1253 13.5938V12.6563C13.1253 12.2834 13.2734 11.9257 13.5371 11.662C13.8009 11.3983 14.1586 11.2501 14.5315 11.2501H15.469C15.6975 11.2521 15.922 11.3106 16.1224 11.4203C16.2292 11.4675 16.3498 11.4732 16.4606 11.4363C16.5714 11.3993 16.6643 11.3224 16.7213 11.2204C16.7783 11.1185 16.7952 10.999 16.7687 10.8853C16.7422 10.7715 16.6743 10.6718 16.5781 10.6056C17.098 10.0056 17.3716 9.23105 17.344 8.43759C17.344 7.46588 16.7346 6.82603 15.6987 6.6315C15.9757 6.13066 16.3587 5.69637 16.8211 5.35899C17.2834 5.0216 17.8138 4.78926 18.3753 4.67822ZM5.62526 18.7501C4.81808 18.7501 4.28089 18.5237 4.07229 18.0938C4.00242 17.9468 3.97013 17.7846 3.97831 17.622C3.98649 17.4594 4.03489 17.3013 4.11917 17.162C5.12136 15.8785 9.3012 14.2684 11.7434 13.4438C10.7989 15.2087 8.53808 18.7501 5.62526 18.7501ZM16.4065 8.43759C16.4065 8.75072 16.3385 10.3126 15.0003 10.3126C13.662 10.3126 13.594 8.75072 13.594 8.43759C13.594 8.20322 13.594 7.50009 15.0003 7.50009C16.4065 7.50009 16.4065 8.20556 16.4065 8.43759Z" fill="#033F2D"/>
<path d="M20.7624 5.29174L19.8249 6.22924C19.737 6.31713 19.6876 6.43634 19.6876 6.56065V7.49815C19.6876 7.62247 19.7369 7.74169 19.8249 7.8296C19.9128 7.91751 20.032 7.9669 20.1563 7.9669C20.2806 7.9669 20.3999 7.91751 20.4878 7.8296C20.5757 7.74169 20.6251 7.62247 20.6251 7.49815V6.75471L21.4252 5.95455C21.5106 5.86614 21.5579 5.74774 21.5568 5.62483C21.5557 5.50193 21.5064 5.38436 21.4195 5.29745C21.3326 5.21054 21.215 5.16124 21.0921 5.16017C20.9692 5.15911 20.8508 5.20635 20.7624 5.29174Z" fill="#033F2D"/>
<path d="M10.1752 6.22924L9.2377 5.29174C9.14929 5.20635 9.03088 5.15911 8.90798 5.16017C8.78507 5.16124 8.6675 5.21054 8.58059 5.29745C8.49368 5.38436 8.44438 5.50193 8.44332 5.62483C8.44225 5.74774 8.4895 5.86615 8.57488 5.95455L9.37504 6.75471V8.43565C9.37507 8.55996 9.42447 8.67917 9.51238 8.76705L11.3874 10.6421C11.4758 10.7274 11.5942 10.7747 11.7171 10.7736C11.84 10.7726 11.9576 10.7233 12.0445 10.6363C12.1314 10.5494 12.1807 10.4319 12.1818 10.309C12.1828 10.1861 12.1356 10.0676 12.0502 9.97924L10.3125 8.24158V6.56065C10.3125 6.43634 10.2631 6.31713 10.1752 6.22924Z" fill="#033F2D"/>
<path d="M20.625 23.2435V20.1563C20.6249 20.0637 20.5975 19.9733 20.5463 19.8962L19.6088 18.4899C19.5398 18.3865 19.4325 18.3147 19.3106 18.2903C19.1886 18.266 19.062 18.2911 18.9586 18.3601C18.8552 18.4291 18.7834 18.5363 18.759 18.6582C18.7347 18.7802 18.7598 18.9068 18.8287 19.0102L19.6875 20.2969V23.4376C19.6875 23.5619 19.7369 23.6811 19.8248 23.769L21.6998 25.644C21.7883 25.7294 21.9067 25.7766 22.0296 25.7755C22.1525 25.7745 22.27 25.7252 22.3569 25.6383C22.4439 25.5513 22.4932 25.4338 22.4942 25.3109C22.4953 25.188 22.448 25.0696 22.3627 24.9812L20.625 23.2435Z" fill="#033F2D"/>
<path d="M16.8256 15.2657C16.7655 15.2795 16.7088 15.305 16.6586 15.3407C16.6083 15.3765 16.5656 15.4217 16.5329 15.474C16.5003 15.5262 16.4782 15.5844 16.468 15.6452C16.4578 15.706 16.4597 15.7682 16.4736 15.8282C16.7491 17.0963 16.8838 18.3908 16.8753 19.6884C16.882 21.6463 16.2205 23.5479 15.0003 25.079C13.8408 23.6234 13.1865 21.83 13.1361 19.9697C13.1342 19.9081 13.1201 19.8475 13.0948 19.7914C13.0694 19.7353 13.0333 19.6847 12.9884 19.6425C12.9435 19.6004 12.8907 19.5675 12.8331 19.5457C12.7755 19.5239 12.7141 19.5137 12.6526 19.5157C12.591 19.5176 12.5305 19.5317 12.4743 19.557C12.4182 19.5824 12.3676 19.6185 12.3254 19.6634C12.2833 19.7083 12.2504 19.7611 12.2286 19.8187C12.2069 19.8763 12.1967 19.9376 12.1986 19.9992C12.2388 22.2764 13.1219 24.4578 14.6773 26.1215C14.7644 26.2038 14.8796 26.2497 14.9994 26.2497C15.1191 26.2497 15.2344 26.2038 15.3214 26.1215C16.9546 24.3813 17.8478 22.0747 17.8128 19.6884C17.8215 18.32 17.6787 16.9548 17.3872 15.6178C17.3594 15.4966 17.2846 15.3915 17.1793 15.3255C17.074 15.2595 16.9468 15.238 16.8256 15.2657Z" fill="#033F2D"/>
<path d="M26.6191 16.5896C25.5761 15.2536 22.166 13.8375 19.4852 12.8865C19.368 12.8448 19.2391 12.8514 19.1268 12.9048C19.0145 12.9582 18.928 13.054 18.8864 13.1712C18.8447 13.2884 18.8513 13.4173 18.9047 13.5296C18.9581 13.6419 19.054 13.7284 19.1711 13.77C22.7397 15.0394 25.1852 16.2783 25.8804 17.169C25.965 17.3081 26.0136 17.4661 26.0217 17.6287C26.0299 17.7913 25.9974 17.9534 25.9272 18.1004C25.7191 18.5265 25.1819 18.7529 24.3747 18.7529C21.7666 18.7529 19.6727 15.8766 18.656 14.1619C18.6246 14.109 18.5831 14.0627 18.5338 14.0258C18.4845 13.9888 18.4285 13.962 18.3688 13.9467C18.3092 13.9315 18.2471 13.9281 18.1861 13.9368C18.1252 13.9456 18.0665 13.9662 18.0136 13.9976C17.9606 14.029 17.9143 14.0705 17.8774 14.1198C17.8405 14.1691 17.8136 14.2252 17.7984 14.2848C17.7831 14.3445 17.7798 14.4065 17.7885 14.4675C17.7972 14.5284 17.8179 14.5871 17.8493 14.64C19.2152 16.944 21.4554 19.6904 24.3747 19.6904C25.9577 19.6904 26.5554 18.9502 26.7705 18.5086C26.9182 18.2042 26.982 17.8659 26.9554 17.5285C26.9288 17.1912 26.8127 16.8671 26.6191 16.5896Z" fill="#033F2D"/>
<path d="M10.3123 21.5625C10.188 21.5625 10.0687 21.6119 9.98082 21.6998C9.89291 21.7877 9.84353 21.9069 9.84353 22.0312V23.2434L8.10587 24.9811C8.0611 25.0243 8.02539 25.0761 8.00083 25.1332C7.97626 25.1904 7.96333 25.2519 7.96279 25.3142C7.96225 25.3764 7.97411 25.4382 7.99767 25.4958C8.02124 25.5534 8.05605 25.6057 8.10006 25.6497C8.14407 25.6937 8.19641 25.7285 8.25402 25.7521C8.31163 25.7757 8.37335 25.7875 8.43559 25.787C8.49783 25.7865 8.55934 25.7735 8.61653 25.749C8.67372 25.7244 8.72544 25.6887 8.76869 25.6439L10.6437 23.7689C10.7316 23.681 10.781 23.5618 10.781 23.4375V22.0312C10.781 21.9069 10.7316 21.7877 10.6437 21.6998C10.5558 21.6119 10.4366 21.5625 10.3123 21.5625Z" fill="#033F2D"/>
<path d="M25.6064 4.39366C25.5185 4.30578 25.3993 4.25641 25.275 4.25641C25.1507 4.25641 25.0315 4.30578 24.9436 4.39366L4.73762 24.5996C2.33132 22.0288 0.977536 18.6485 0.944096 15.1274C0.910655 11.6063 2.19999 8.20093 4.55703 5.58491C6.91407 2.96889 10.1671 1.3328 13.6726 1.00032C17.1782 0.667843 20.6808 1.66318 23.4876 3.78944C23.5366 3.8276 23.5926 3.85565 23.6525 3.87198C23.7124 3.88831 23.7749 3.89259 23.8364 3.88456C23.898 3.87653 23.9573 3.85635 24.011 3.82521C24.0647 3.79407 24.1117 3.75257 24.1492 3.70313C24.1867 3.65369 24.2141 3.59729 24.2296 3.5372C24.2452 3.47711 24.2486 3.41453 24.2398 3.3531C24.231 3.29166 24.21 3.23259 24.1782 3.17931C24.1464 3.12603 24.1043 3.0796 24.0543 3.04272C21.4531 1.06008 18.2706 -0.00936573 15 6.17991e-05C12.0365 -0.00154039 9.13907 0.875153 6.67362 2.5194C4.20817 4.16365 2.28532 6.50169 1.14796 9.23818C0.0105939 11.9747 -0.290258 14.9869 0.283406 17.8942C0.857069 20.8016 2.27951 23.4738 4.37105 25.5732C4.37996 25.584 4.38371 25.5966 4.39355 25.6065C4.4034 25.6163 4.41605 25.6201 4.42684 25.629C7.2475 28.4143 11.0563 29.9694 15.0204 29.9544C18.9844 29.9393 22.7813 28.3553 25.5807 25.5486C28.3801 22.7419 29.9543 18.941 29.9592 14.9769C29.964 11.0128 28.399 7.20805 25.6064 4.39459V4.39366ZM15 29.0626C11.4329 29.0645 7.99959 27.7054 5.40043 25.2624L25.2656 5.39584C27.139 7.39707 28.3865 9.90235 28.8546 12.6034C29.3226 15.3044 28.9908 18.0834 27.9 20.5983C26.8091 23.1132 25.0068 25.2543 22.7148 26.7582C20.4229 28.262 17.7413 29.063 15 29.0626Z" fill="#033F2D"/>
</g>
<defs>
<clipPath id="clip0_352_5451">
<rect width="30" height="30" fill="white"/>
</clipPath>
</defs>
</svg>
