<svg width="24" height="24" viewBox="0 0 24 24" fill="none" xmlns="http://www.w3.org/2000/svg">
<g clip-path="url(#clip0_352_5912)">
<path d="M4.53358 15.0983C4.49748 15.0644 4.45501 15.0379 4.40864 15.0205C4.36226 15.0031 4.31288 14.995 4.26337 14.9968C4.21385 14.9985 4.16518 15.0101 4.12015 15.0308C4.07513 15.0514 4.03465 15.0808 4.00106 15.1173C3.96746 15.1537 3.94142 15.1964 3.92443 15.2429C3.90744 15.2895 3.89984 15.3389 3.90208 15.3884C3.90431 15.4379 3.91633 15.4865 3.93744 15.5313C3.95855 15.5761 3.98834 15.6163 4.02508 15.6496C4.69143 16.2795 5.26018 17.0052 5.71258 17.8028C7.17095 20.3281 7.16908 22.5916 6.25258 23.1203C5.33608 23.6491 3.37483 22.5196 1.91683 19.9939C1.28349 18.9501 0.888699 17.7792 0.760701 16.5649C0.695826 15.6274 0.920826 14.9401 1.37683 14.6768C1.83283 14.4136 2.42083 14.6018 2.83483 14.8036C2.87922 14.8274 2.92798 14.8421 2.97817 14.8467C3.02837 14.8513 3.07898 14.8457 3.12697 14.8303C3.17497 14.8149 3.21936 14.79 3.25751 14.7571C3.29566 14.7241 3.32677 14.6838 3.34899 14.6386C3.37121 14.5933 3.38407 14.5441 3.38683 14.4937C3.38958 14.4434 3.38215 14.393 3.365 14.3456C3.34784 14.2982 3.32131 14.2548 3.28698 14.2179C3.25265 14.181 3.21123 14.1514 3.1652 14.1308C2.3372 13.7239 1.5902 13.6883 1.00183 14.0269C0.277326 14.4451 -0.0751743 15.3649 0.0125757 16.6167C0.14862 17.9447 0.576996 19.2261 1.26695 20.3689C2.54983 22.5931 4.34983 23.9967 5.7452 23.9963C6.05382 24.0008 6.35808 23.9231 6.62683 23.7713C8.05483 22.9463 7.93933 20.1608 6.3617 17.4289C5.87152 16.5655 5.25537 15.78 4.53358 15.0983Z" fill="#033F2D"/>
<path d="M1.60556 15.5323C1.37606 16.0719 1.43419 17.6589 2.56594 19.6198C3.70294 21.5889 5.02144 22.4169 5.63044 22.493C5.64599 22.495 5.66164 22.496 5.67731 22.496C5.75059 22.496 5.82224 22.4745 5.88342 22.4341C5.94459 22.3938 5.99262 22.3365 6.02156 22.2692C6.25294 21.7307 6.19744 20.1444 5.06269 18.1787C3.93544 16.2287 2.61469 15.3924 2.00194 15.308C1.92046 15.2971 1.83765 15.3131 1.7661 15.3536C1.69455 15.3941 1.63818 15.4568 1.60556 15.5323ZM4.41319 18.5533C4.99293 19.4735 5.32672 20.5271 5.38256 21.6133C4.46665 21.0255 3.71984 20.209 3.21581 19.2444C2.63623 18.3243 2.30258 17.2708 2.24681 16.1848C3.16343 16.7715 3.91035 17.5881 4.41319 18.5533Z" fill="#033F2D"/>
<path d="M22.9978 14.0274C21.5698 13.2024 19.2152 14.6967 17.638 17.4282C16.0607 20.1597 15.9448 22.9456 17.3728 23.7706C17.6416 23.9225 17.9458 24.0001 18.2545 23.9956C19.6495 23.9956 21.4487 22.592 22.7327 20.3682C23.4227 19.2254 23.851 17.944 23.9871 16.616C24.0748 15.3654 23.7223 14.4455 22.9978 14.0274ZM23.239 16.5654C23.111 17.7796 22.7162 18.9505 22.0828 19.9944C20.6248 22.52 18.6643 23.6506 17.7478 23.1207C16.8313 22.5909 16.8295 20.3285 18.2878 17.8032C19.7462 15.278 21.7067 14.1477 22.6228 14.6772C23.0788 14.9405 23.3038 15.6286 23.239 16.5654Z" fill="#033F2D"/>
<path d="M22.0015 15.3076C21.3925 15.3826 20.074 16.2117 18.9373 18.1805C17.8007 20.1492 17.7467 21.7325 17.9781 22.271C18.007 22.3383 18.055 22.3956 18.1162 22.436C18.1774 22.4763 18.2491 22.4978 18.3223 22.4979C18.338 22.4978 18.3537 22.4968 18.3692 22.4949C18.9778 22.4199 20.2963 21.5911 21.4337 19.6216C22.5711 17.6521 22.624 16.07 22.3926 15.5315C22.3605 15.4568 22.3049 15.3946 22.2344 15.3542C22.1639 15.3139 22.0821 15.2975 22.0015 15.3076ZM20.7838 19.2451C20.2799 20.2098 19.5331 21.0263 18.6171 21.614C18.6729 20.5278 19.0068 19.4741 19.5868 18.554C20.0908 17.5895 20.8376 16.7731 21.7536 16.1855C21.698 17.2721 21.3641 18.3262 20.7838 19.2466V19.2451Z" fill="#033F2D"/>
<path d="M18.2775 15.2483C18.3101 15.2113 18.3351 15.1683 18.3511 15.1217C18.3671 15.0751 18.3737 15.0258 18.3707 14.9767C18.3676 14.9275 18.3549 14.8794 18.3332 14.8352C18.3116 14.7909 18.2814 14.7514 18.2445 14.7188C18.2076 14.6862 18.1646 14.6611 18.118 14.6452C18.0714 14.6292 18.0221 14.6225 17.9729 14.6256C17.9237 14.6287 17.8757 14.6414 17.8314 14.663C17.7872 14.6847 17.7476 14.7148 17.715 14.7518C17.1938 15.3471 16.7329 15.9926 16.3391 16.6789C15.5251 18.0186 15.027 19.5261 14.8826 21.087C13.9838 21.5216 12.9982 21.7474 11.9998 21.7474C11.0014 21.7474 10.0159 21.5216 9.117 21.087C8.97273 19.5261 8.47476 18.0186 7.66088 16.6789C6.6375 14.904 5.25375 13.5038 3.84187 12.8029C3.78122 12.2875 3.75054 11.769 3.75 11.25C3.75 5.33663 8.18475 0.75 12 0.75C15.8153 0.75 20.25 5.33663 20.25 11.25C20.2495 11.769 20.2188 12.2875 20.1581 12.8029C19.7276 13.0194 19.3206 13.2801 18.9439 13.5806C18.9038 13.6106 18.8702 13.6483 18.845 13.6915C18.8197 13.7347 18.8034 13.7825 18.7969 13.8321C18.7904 13.8817 18.7939 13.9321 18.8072 13.9804C18.8205 14.0286 18.8433 14.0737 18.8742 14.113C18.9052 14.1522 18.9437 14.1849 18.9875 14.2091C19.0313 14.2333 19.0795 14.2484 19.1293 14.2537C19.179 14.2589 19.2293 14.2542 19.2772 14.2397C19.3251 14.2252 19.3696 14.2013 19.4081 14.1694C19.792 13.8617 20.212 13.6019 20.6588 13.3958C20.7169 13.3695 20.7675 13.3288 20.8055 13.2775C20.8436 13.2263 20.8679 13.1662 20.8762 13.1029C20.9581 12.4886 20.9995 11.8697 21 11.25C21 4.9125 16.1625 0 12 0C7.8375 0 3 4.9125 3 11.25C3.00055 11.8697 3.04189 12.4886 3.12375 13.1029C3.13208 13.1662 3.15642 13.2263 3.19449 13.2775C3.23255 13.3288 3.28306 13.3695 3.34125 13.3958C4.67925 13.998 6.0165 15.3315 7.011 17.0539C7.80727 18.3498 8.27662 19.8199 8.37862 21.3375C8.38075 21.4044 8.40075 21.4696 8.43656 21.5261C8.47237 21.5827 8.52267 21.6287 8.58225 21.6593C9.63677 22.2118 10.8095 22.5004 12 22.5004C13.1905 22.5004 14.3632 22.2118 15.4177 21.6593C15.4773 21.6287 15.5276 21.5827 15.5634 21.5261C15.5992 21.4696 15.6193 21.4044 15.6214 21.3375C15.723 19.82 16.1918 18.35 16.9875 17.0539C17.3567 16.4108 17.7888 15.8059 18.2775 15.2483Z" fill="#033F2D"/>
<path d="M17.625 12.75C17.7245 12.75 17.8198 12.7105 17.8902 12.6402C17.9605 12.5698 18 12.4745 18 12.375V10.875C18 6.459 15.3645 3 12 3C8.6355 3 6 6.459 6 10.875V12.375C6 12.4745 6.03951 12.5698 6.10983 12.6402C6.18016 12.7105 6.27554 12.75 6.375 12.75C6.47446 12.75 6.56984 12.7105 6.64017 12.6402C6.71049 12.5698 6.75 12.4745 6.75 12.375V10.875C6.75 6.94613 9.105 3.75 12 3.75C14.895 3.75 17.25 6.94613 17.25 10.875V12.375C17.25 12.4745 17.2895 12.5698 17.3598 12.6402C17.4302 12.7105 17.5255 12.75 17.625 12.75Z" fill="#033F2D"/>
<path d="M13.5 6.75C13.5995 6.75 13.6948 6.71049 13.7652 6.64017C13.8355 6.56984 13.875 6.47446 13.875 6.375C13.875 6.27554 13.8355 6.18016 13.7652 6.10983C13.6948 6.03951 13.5995 6 13.5 6H10.5C10.4005 6 10.3052 6.03951 10.2348 6.10983C10.1645 6.18016 10.125 6.27554 10.125 6.375C10.125 6.47446 10.1645 6.56984 10.2348 6.64017C10.3052 6.71049 10.4005 6.75 10.5 6.75H13.5Z" fill="#033F2D"/>
<path d="M9 8.625C9 8.72446 9.03951 8.81984 9.10983 8.89017C9.18016 8.96049 9.27554 9 9.375 9H14.625C14.7245 9 14.8198 8.96049 14.8902 8.89017C14.9605 8.81984 15 8.72446 15 8.625C15 8.52554 14.9605 8.43016 14.8902 8.35983C14.8198 8.28951 14.7245 8.25 14.625 8.25H9.375C9.27554 8.25 9.18016 8.28951 9.10983 8.35983C9.03951 8.43016 9 8.52554 9 8.625Z" fill="#033F2D"/>
<path d="M16.125 10.875C16.125 10.7755 16.0855 10.6802 16.0152 10.6098C15.9448 10.5395 15.8495 10.5 15.75 10.5H8.25C8.15054 10.5 8.05516 10.5395 7.98483 10.6098C7.91451 10.6802 7.875 10.7755 7.875 10.875C7.875 10.9745 7.91451 11.0698 7.98483 11.1402C8.05516 11.2105 8.15054 11.25 8.25 11.25H15.75C15.8495 11.25 15.9448 11.2105 16.0152 11.1402C16.0855 11.0698 16.125 10.9745 16.125 10.875Z" fill="#033F2D"/>
<path d="M9.375 17.625C9.375 18.1442 9.52895 18.6517 9.81739 19.0834C10.1058 19.5151 10.5158 19.8515 10.9955 20.0502C11.4751 20.2489 12.0029 20.3008 12.5121 20.1996C13.0213 20.0983 13.489 19.8483 13.8562 19.4812C14.2233 19.114 14.4733 18.6463 14.5746 18.1371C14.6758 17.6279 14.6239 17.1001 14.4252 16.6205C14.2265 16.1408 13.8901 15.7308 13.4584 15.4424C13.0267 15.154 12.5192 15 12 15C11.3041 15.0008 10.6368 15.2776 10.1447 15.7697C9.65261 16.2618 9.37579 16.9291 9.375 17.625ZM13.875 17.625C13.875 17.9958 13.765 18.3584 13.559 18.6667C13.353 18.975 13.0601 19.2154 12.7175 19.3573C12.3749 19.4992 11.9979 19.5363 11.6342 19.464C11.2705 19.3916 10.9364 19.213 10.6742 18.9508C10.412 18.6886 10.2334 18.3545 10.161 17.9908C10.0887 17.6271 10.1258 17.2501 10.2677 16.9075C10.4096 16.5649 10.65 16.272 10.9583 16.066C11.2666 15.86 11.6292 15.75 12 15.75C12.4971 15.7506 12.9737 15.9483 13.3252 16.2998C13.6767 16.6513 13.8744 17.1279 13.875 17.625Z" fill="#033F2D"/>
</g>
<defs>
<clipPath id="clip0_352_5912">
<rect width="24" height="24" fill="white"/>
</clipPath>
</defs>
</svg>
