<svg width="40" height="40" viewBox="0 0 40 40" fill="none" xmlns="http://www.w3.org/2000/svg">
<path d="M34.9216 4.8445C34.9743 4.89153 35.0271 4.93856 35.0815 4.98701C35.5535 5.43317 35.9411 5.96543 36.3278 6.48512C36.3612 6.52982 36.3946 6.57452 36.429 6.62058C37.3761 7.91 38.0301 9.39565 38.4372 10.9382C38.4618 11.0298 38.4863 11.1213 38.5117 11.2157C39.2984 14.4974 38.6861 18.1005 36.9473 20.9807C36.7997 21.2069 36.6456 21.4248 36.4841 21.6414C36.424 21.7236 36.3638 21.8057 36.3019 21.8904C35.6908 22.713 35.0193 23.4975 34.2185 24.1414C34.1466 24.2005 34.0748 24.2596 34.0009 24.3205C31.9652 25.9638 29.2607 27.1102 26.6214 27.126C26.5615 27.1264 26.5015 27.1269 26.4398 27.1273C26.3133 27.1281 26.1869 27.1286 26.0604 27.1289C25.872 27.1296 25.6837 27.1321 25.4953 27.1345C23.5788 27.1476 21.8478 26.6521 20.1119 25.867C19.8673 25.7578 19.621 25.653 19.3747 25.5476C19.311 25.6116 19.2473 25.6756 19.1817 25.7415C17.6678 27.2622 16.153 28.7821 14.6373 30.301C14.4506 30.4881 14.2638 30.6753 14.077 30.8624C14.0399 30.8997 14.0027 30.937 13.9644 30.9754C13.3633 31.5778 12.7627 32.1808 12.1624 32.784C11.5459 33.4035 10.9288 34.0223 10.3111 34.6406C9.96442 34.9877 9.61801 35.3351 9.27225 35.6831C8.94654 36.011 8.62009 36.338 8.29308 36.6646C8.17345 36.7843 8.05409 36.9043 7.93502 37.0246C7.04763 37.9205 6.17991 38.7675 4.84433 38.7873C4.78281 38.7865 4.72129 38.7857 4.6579 38.7849C4.56064 38.784 4.56064 38.784 4.46141 38.7831C3.47882 38.7569 2.68724 38.3498 2.01142 37.6423C1.38615 36.895 1.14611 36.0197 1.18103 35.0508C1.36651 33.4523 2.60262 32.4643 3.67678 31.3929C3.79466 31.2751 3.91253 31.1572 4.03038 31.0393C4.3483 30.7213 4.66647 30.4036 4.98468 30.086C5.31795 29.7532 5.651 29.4202 5.98407 29.0872C6.61391 28.4576 7.24394 27.8282 7.87405 27.1989C8.59179 26.482 9.3093 25.7649 10.0268 25.0478C11.5019 23.5736 12.9773 22.0996 14.4528 20.6257C14.4191 20.5489 14.4191 20.5489 14.3847 20.4705C14.2817 20.2356 14.179 20.0005 14.0762 19.7655C14.0409 19.6849 14.0055 19.6043 13.969 19.5212C12.5764 16.3305 12.4343 12.7724 13.6646 9.49885C14.2635 8.00541 15.069 6.67566 16.163 5.49299C16.3114 5.33111 16.4514 5.16493 16.5915 4.99586C16.9311 4.60824 17.3275 4.29947 17.7341 3.98512C17.7759 3.95177 17.8178 3.91843 17.861 3.88407C23.0124 -0.209281 30.1874 0.58984 34.9216 4.8445ZM21.0935 3.51637C21.0194 3.5494 21.0194 3.5494 20.9439 3.58309C19.6679 4.15749 18.5765 4.96397 17.5778 5.93825C17.5239 5.98729 17.4701 6.03634 17.4146 6.08687C15.3656 8.00171 14.2278 10.9932 14.1278 13.7553C14.0472 16.9709 15.2142 19.9353 17.4216 22.2664C17.5118 22.3628 17.5118 22.3628 17.6038 22.4611C19.7269 24.6631 22.7437 25.8199 25.7761 25.8797C29.0372 25.8159 31.9923 24.5527 34.2838 22.2287C36.3525 20.0595 37.551 17.063 37.4997 14.0632C37.4086 11.5716 36.6731 9.06904 35.0778 7.11012C35.0451 7.06969 35.0124 7.02925 34.9786 6.98759C33.028 4.59 30.2958 2.9274 27.1872 2.57887C25.0976 2.36849 23.0112 2.63973 21.0935 3.51637ZM15.1031 21.9192C15.018 22.0046 15.018 22.0046 14.9312 22.0917C14.835 22.1879 14.835 22.1879 14.7369 22.286C14.6672 22.3561 14.5975 22.4261 14.5258 22.4983C14.4193 22.605 14.4193 22.605 14.3107 22.7138C14.1215 22.9032 13.9327 23.0928 13.7439 23.2825C13.5513 23.4758 13.3585 23.669 13.1657 23.8621C12.7873 24.2415 12.409 24.621 12.0309 25.0007C12.1385 25.2423 12.2615 25.4067 12.4488 25.5926C12.5019 25.6457 12.5551 25.6989 12.6099 25.7536C12.6672 25.8101 12.7245 25.8666 12.7835 25.9248C12.8423 25.9833 12.901 26.0419 12.9615 26.1021C13.149 26.2888 13.337 26.4748 13.5251 26.6609C13.6524 26.7874 13.7796 26.914 13.9069 27.0405C14.2187 27.3506 14.5309 27.6602 14.8434 27.9695C15.1025 27.8565 15.2725 27.7157 15.4711 27.5158C15.5321 27.4548 15.5931 27.3938 15.6559 27.331C15.7209 27.2652 15.786 27.1993 15.853 27.1315C15.9538 27.0304 15.9538 27.0304 16.0566 26.9272C16.2711 26.7119 16.485 26.496 16.6989 26.28C16.8442 26.1339 16.9896 25.9879 17.135 25.8418C17.4914 25.4837 17.8473 25.1252 18.2028 24.7664C17.99 24.5508 17.7781 24.3395 17.5452 24.1456C16.7428 23.4692 16.0411 22.7665 15.412 21.9212C15.3626 21.86 15.3626 21.86 15.3122 21.7976C15.2138 21.7888 15.2138 21.7888 15.1031 21.9192ZM10.8702 26.1526C10.8084 26.2148 10.7466 26.277 10.683 26.3411C10.6163 26.4081 10.5496 26.475 10.4808 26.544C10.4107 26.6148 10.3405 26.6856 10.2683 26.7586C10.1626 26.8648 10.1626 26.8648 10.0548 26.9731C9.88 27.1488 9.7054 27.3247 9.53095 27.5007C9.63846 27.7423 9.76154 27.9067 9.94877 28.0926C10.0019 28.1457 10.0551 28.1989 10.1099 28.2536C10.1672 28.3101 10.2245 28.3666 10.2835 28.4248C10.3716 28.5126 10.3716 28.5126 10.4615 28.6021C10.649 28.7888 10.837 28.9748 11.0251 29.1609C11.1524 29.2874 11.2796 29.414 11.4069 29.5405C11.7187 29.8506 12.0309 30.1602 12.3434 30.4695C12.6032 30.3464 12.7744 30.2131 12.977 30.0075C13.0359 29.948 13.0948 29.8886 13.1555 29.8274C13.2162 29.7654 13.277 29.7033 13.3395 29.6394C13.4015 29.5768 13.4634 29.5141 13.5272 29.4496C13.6799 29.2951 13.8321 29.1403 13.9841 28.9851C13.653 28.59 13.3074 28.2188 12.9425 27.8551C12.8896 27.8021 12.8367 27.7491 12.7822 27.6945C12.6714 27.5837 12.5605 27.4729 12.4495 27.3623C12.2788 27.192 12.1086 27.0213 11.9383 26.8506C11.8304 26.7427 11.7224 26.6348 11.6144 26.5269C11.5633 26.4757 11.5122 26.4244 11.4595 26.3716C11.1875 26.0151 11.1875 26.0151 10.8702 26.1526ZM7.99506 29.0191C7.94068 29.0726 7.88631 29.1261 7.83029 29.1812C7.2596 29.7432 6.69138 30.3077 6.12334 30.8724C5.8539 31.1401 5.58373 31.407 5.31287 31.6733C4.98584 31.9947 4.66019 32.3175 4.33545 32.6413C4.21168 32.7643 4.08743 32.8868 3.9627 33.0088C2.93382 33.991 2.93382 33.991 2.54364 35.323C2.62629 36.055 2.88144 36.5377 3.4372 37.032C3.95087 37.3692 4.46902 37.4832 5.07782 37.4226C5.65991 37.2627 6.04971 36.9867 6.46412 36.5583C6.5191 36.5034 6.57408 36.4485 6.63072 36.3919C6.81023 36.2121 6.98802 36.0306 7.16584 35.8491C7.29073 35.7234 7.41573 35.5977 7.54083 35.4721C7.86835 35.1428 8.19445 34.8121 8.52025 34.4811C8.85355 34.143 9.18818 33.8063 9.52271 33.4694C10.1778 32.8093 10.8314 32.1477 11.4841 31.4851C11.1238 31.0593 11.1238 31.0593 10.741 30.6538C10.6928 30.6054 10.6446 30.557 10.595 30.507C10.5447 30.4569 10.4943 30.4067 10.4425 30.3551C10.3896 30.3021 10.3367 30.2491 10.2822 30.1945C10.1714 30.0837 10.0605 29.9729 9.94952 29.8623C9.77883 29.692 9.60856 29.5213 9.43833 29.3506C9.33037 29.2427 9.22239 29.1348 9.11438 29.0269C9.06328 28.9757 9.01218 28.9244 8.95953 28.8716C8.46909 28.3837 8.44504 28.5741 7.99506 29.0191Z" fill="#033F2D"/>
<path d="M21.9141 6.98438C22.4313 7.07673 22.7582 7.62312 23.0908 8.00977C23.1569 8.08605 23.1569 8.08605 23.2243 8.16388C23.4574 8.43373 23.6858 8.70601 23.9062 8.98633C24.1224 8.88255 24.3213 8.7666 24.5215 8.63477C25.0858 8.28439 25.5909 8.21664 26.25 8.2832C26.7209 8.40033 27.1512 8.55945 27.5 8.9082C27.5387 8.98555 27.5387 8.98555 27.5781 9.06445C28.0381 8.568 28.4798 8.06673 28.898 7.534C29.1332 7.26472 29.3302 7.05625 29.6875 6.98926C30.0106 7.04984 30.1211 7.15924 30.3125 7.42383C30.3519 7.75057 30.3414 7.9211 30.1746 8.20782C30.1105 8.28587 30.0465 8.36392 29.9805 8.44434C29.929 8.5083 29.929 8.5083 29.8764 8.57356C29.6804 8.81474 29.4771 9.04954 29.2734 9.28418C29.231 9.33312 29.1885 9.38206 29.1448 9.43248C29.062 9.52733 28.9786 9.62162 28.8944 9.71526C28.6278 10.0171 28.6278 10.0171 28.5156 10.3926C28.5818 10.5992 28.6526 10.7934 28.7353 10.9932C28.9176 11.4388 29.0488 11.8725 29.1406 12.3457C29.2214 12.3468 29.3022 12.348 29.3854 12.3492C29.6861 12.3537 29.9868 12.3597 30.2874 12.3662C30.4174 12.3688 30.5473 12.371 30.6773 12.3728C30.8645 12.3754 31.0516 12.3795 31.2387 12.3839C31.3254 12.3846 31.3254 12.3846 31.4138 12.3854C31.7622 12.3952 31.9886 12.4434 32.2656 12.6582C32.424 12.8758 32.424 12.8758 32.5732 13.1318C32.6268 13.2232 32.6804 13.3145 32.7341 13.4059C32.8116 13.5385 32.8116 13.5385 32.8906 13.6738C32.9383 13.7477 32.9859 13.8217 33.035 13.8978C33.436 14.5216 33.436 14.5216 33.3594 14.9238C33.2939 15.1203 33.2367 15.2092 33.0762 15.3389C32.7864 15.4228 32.5423 15.4313 32.2656 15.3145C32.017 15.0528 31.8489 14.7345 31.7091 14.4035C31.6027 14.1753 31.506 14.0095 31.3281 13.8301C30.976 13.733 30.645 13.7558 30.2832 13.7813C30.1884 13.7848 30.0937 13.7883 29.996 13.7919C29.7626 13.8011 29.5299 13.8139 29.2969 13.8301C29.2977 13.8776 29.2986 13.9251 29.2994 13.974C29.3042 14.4473 29.277 14.9079 29.2236 15.3779C29.2134 15.4739 29.2134 15.4739 29.203 15.5719C29.1693 15.8808 29.1261 16.1819 29.0625 16.4863C29.1173 16.4851 29.172 16.4839 29.2284 16.4826C29.4775 16.4777 29.7265 16.4747 29.9756 16.4717C30.0617 16.4697 30.1479 16.4678 30.2367 16.4657C30.32 16.465 30.4033 16.4642 30.4892 16.4634C30.5657 16.4622 30.6422 16.461 30.721 16.4597C30.9779 16.4913 31.1202 16.5689 31.3281 16.7207C31.4865 16.9383 31.4865 16.9383 31.6357 17.1943C31.6893 17.2858 31.7429 17.3772 31.7966 17.4687C31.8482 17.557 31.8999 17.6453 31.9531 17.7363C32.0008 17.8093 32.0484 17.8824 32.0975 17.9576C32.2883 18.2513 32.4129 18.4676 32.4756 18.8154C32.4046 19.1445 32.306 19.2622 32.0312 19.4551C31.7578 19.5039 31.7578 19.5039 31.4844 19.4551C31.2354 19.2515 31.0824 19.0654 30.965 18.77C30.8252 18.4287 30.6879 18.1233 30.3906 17.8926C29.8243 17.6966 29.1629 17.7112 28.5937 17.8926C28.3491 18.1054 28.2682 18.2715 28.1497 18.571C27.8996 19.2011 27.3265 19.7144 26.7187 20.002C26.1117 20.238 25.4708 20.2395 24.8614 20.0102C23.9942 19.5796 23.4479 18.8282 23.0469 17.9707C23.0469 17.9191 23.0469 17.8676 23.0469 17.8145C22.4281 17.8145 21.8094 17.8145 21.1719 17.8145C21.1203 17.9434 21.0687 18.0723 21.0156 18.2051C20.9174 18.3945 20.8174 18.5808 20.7129 18.7666C20.6864 18.8157 20.6599 18.8648 20.6326 18.9154C20.483 19.1813 20.3763 19.3619 20.0781 19.4551C19.7609 19.5023 19.6484 19.4831 19.3848 19.2939C19.222 19.0689 19.1734 18.9601 19.1822 18.6864C19.2658 18.3005 19.5062 17.9701 19.7119 17.6387C19.7816 17.5224 19.7816 17.5224 19.8528 17.4037C20.3345 16.6092 20.3345 16.6092 20.7031 16.4863C20.8473 16.4799 20.9918 16.4779 21.1362 16.4787C21.22 16.479 21.3038 16.4792 21.3902 16.4795C21.4777 16.4801 21.5652 16.4808 21.6553 16.4814C21.7878 16.482 21.7878 16.482 21.9231 16.4825C22.1414 16.4834 22.3598 16.4847 22.5781 16.4863C22.554 16.4203 22.5298 16.3542 22.5049 16.2861C22.3295 15.7188 22.3339 15.1649 22.3389 14.5771C22.3392 14.4976 22.3396 14.4181 22.3399 14.3362C22.3408 14.1415 22.3421 13.9467 22.3437 13.752C21.1849 13.6091 21.1849 13.6091 20.1357 13.9693C19.8613 14.3066 19.68 14.6856 19.5264 15.0907C19.4531 15.2363 19.4531 15.2363 19.2187 15.3926C18.8779 15.4368 18.7268 15.4311 18.4424 15.2314C18.2848 15.007 18.2365 14.8945 18.2449 14.6239C18.328 14.2379 18.5687 13.9076 18.7744 13.5762C18.8209 13.4986 18.8674 13.4211 18.9153 13.3412C19.397 12.5467 19.397 12.5467 19.7656 12.4238C19.9734 12.4172 20.179 12.4148 20.3867 12.4162C20.447 12.4163 20.5074 12.4164 20.5696 12.4165C20.7622 12.417 20.9548 12.418 21.1475 12.4189C21.2781 12.4193 21.4088 12.4197 21.5395 12.42C21.8596 12.4209 22.1798 12.4222 22.5 12.4238C22.5051 12.3575 22.5051 12.3575 22.5102 12.2898C22.5471 11.8849 22.6251 11.5408 22.7734 11.1592C22.9753 10.6717 22.9753 10.6717 23.0469 10.1582C22.9229 9.94866 22.7606 9.78159 22.5928 9.60645C22.499 9.50317 22.4054 9.39971 22.312 9.29608C22.2649 9.24441 22.2177 9.19273 22.1692 9.13949C21.9643 8.91195 21.7683 8.6786 21.5771 8.43945C21.4821 8.32344 21.4821 8.32344 21.3852 8.20508C21.2208 7.92013 21.2117 7.74793 21.25 7.42383C21.4525 7.1354 21.5657 7.04658 21.9141 6.98438ZM24.6094 10.3926C23.6093 12.0725 23.3648 14.2001 23.8037 16.1006C24.0417 17.0363 24.4204 18.1835 25.2832 18.7275C25.573 18.8402 25.7104 18.8911 26.0156 18.8301C26.7722 18.4747 27.1722 17.8449 27.4805 17.0918C28.2012 15.0554 28.1447 12.7888 27.2363 10.8223C26.9539 10.2973 26.5952 9.81294 26.0156 9.61133C25.4127 9.50027 24.9371 9.93906 24.6094 10.3926Z" fill="#033F2D"/>
<path d="M21.7188 4.61123C21.9803 4.80041 22.0907 4.91391 22.1582 5.23135C22.0933 5.54925 21.9596 5.73237 21.7188 5.93936C21.5384 6.05495 21.3534 6.16 21.1673 6.2662C19.1517 7.51088 17.5524 9.63957 16.9748 11.9461C16.9049 12.254 16.8376 12.5619 16.7791 12.8722C16.719 13.1748 16.6761 13.3907 16.4926 13.6426C16.2297 13.8172 16.0072 13.813 15.7031 13.7519C15.4737 13.5989 15.4068 13.5 15.336 13.2346C15.3065 12.9036 15.3624 12.6323 15.4395 12.3114C15.454 12.2494 15.4685 12.1874 15.4835 12.1236C16.2373 8.99977 18.1258 6.4577 20.8594 4.76748C21.1598 4.59831 21.3701 4.56841 21.7188 4.61123Z" fill="#033F2D"/>
<path d="M24.375 3.74987C24.5498 3.89085 24.5965 3.99193 24.6365 4.21099C24.6587 4.51586 24.6463 4.64389 24.4434 4.88268C24.1787 5.02076 24.0443 5.04891 23.75 4.99987C23.4831 4.84566 23.381 4.75101 23.2812 4.45788C23.2812 4.16974 23.336 4.05104 23.5156 3.828C23.7928 3.61024 24.0467 3.66629 24.375 3.74987Z" fill="#033F2D"/>
</svg>
