<svg width="24" height="24" viewBox="0 0 24 24" fill="none" xmlns="http://www.w3.org/2000/svg">
<g clip-path="url(#clip0_314_23014)">
<path d="M20.953 2.90592C20.9846 2.93413 21.0163 2.96235 21.0489 2.99143C21.3321 3.25912 21.5647 3.57848 21.7967 3.89029C21.8167 3.91711 21.8368 3.94393 21.8574 3.97157C22.4257 4.74522 22.8181 5.63661 23.0623 6.56217C23.0771 6.61709 23.0918 6.67202 23.107 6.72861C23.579 8.69764 23.2117 10.8595 22.1684 12.5876C22.0798 12.7234 21.9874 12.8541 21.8905 12.984C21.8544 13.0333 21.8183 13.0827 21.7812 13.1335C21.4145 13.627 21.0116 14.0977 20.5311 14.484C20.488 14.5195 20.4449 14.555 20.4005 14.5915C19.1791 15.5775 17.5565 16.2654 15.9729 16.2748C15.9369 16.2751 15.9009 16.2753 15.8639 16.2756C15.788 16.2761 15.7121 16.2764 15.6363 16.2766C15.5232 16.277 15.4102 16.2785 15.2972 16.2799C14.1473 16.2878 13.1087 15.9905 12.0672 15.5194C11.9204 15.4539 11.7726 15.391 11.6248 15.3278C11.5866 15.3662 11.5484 15.4046 11.509 15.4441C10.6007 16.3565 9.69184 17.2685 8.78241 18.1798C8.67035 18.2921 8.5583 18.4044 8.44625 18.5167C8.42394 18.539 8.40163 18.5614 8.37865 18.5844C8.01799 18.9459 7.65767 19.3077 7.29747 19.6696C6.92756 20.0413 6.55729 20.4126 6.18669 20.7836C5.97868 20.9918 5.77083 21.2003 5.56337 21.4091C5.36795 21.6058 5.17208 21.802 4.97587 21.998C4.9041 22.0698 4.83248 22.1418 4.76104 22.2139C4.2286 22.7515 3.70797 23.2597 2.90662 23.2716C2.86971 23.2711 2.8328 23.2707 2.79477 23.2702C2.73641 23.2696 2.73641 23.2696 2.67687 23.2691C2.08732 23.2533 1.61237 23.0091 1.20687 22.5846C0.831715 22.1362 0.687689 21.6111 0.708645 21.0297C0.819931 20.0706 1.56159 19.4778 2.20609 18.835C2.27682 18.7643 2.34754 18.6935 2.41825 18.6228C2.60901 18.432 2.79991 18.2414 2.99083 18.0508C3.19079 17.8511 3.39062 17.6513 3.59047 17.4515C3.96837 17.0738 4.34639 16.6961 4.72446 16.3186C5.1551 15.8884 5.5856 15.4582 6.0161 15.0279C6.90116 14.1434 7.78638 13.259 8.67172 12.3747C8.65148 12.3286 8.65148 12.3286 8.63083 12.2815C8.56903 12.1406 8.5074 11.9995 8.44577 11.8585C8.42454 11.8101 8.40331 11.7618 8.38144 11.712C7.54589 9.79751 7.46063 7.66264 8.1988 5.69853C8.55812 4.80246 9.04143 4.00462 9.69784 3.29501C9.78689 3.19789 9.87089 3.09818 9.95492 2.99674C10.1587 2.76416 10.3965 2.5789 10.6405 2.39029C10.6656 2.37028 10.6907 2.35027 10.7166 2.32966C13.8075 -0.12635 18.1124 0.353123 20.953 2.90592ZM12.6561 2.10904C12.6117 2.12886 12.6117 2.12886 12.5663 2.14907C11.8008 2.49371 11.1459 2.9776 10.5467 3.56217C10.5144 3.59159 10.4821 3.62102 10.4488 3.65134C9.21941 4.80024 8.53669 6.59515 8.47671 8.25241C8.42832 10.1817 9.12854 11.9604 10.453 13.359C10.5071 13.4169 10.5071 13.4169 10.5623 13.4759C11.8361 14.7971 13.6463 15.4912 15.4657 15.527C17.4224 15.4887 19.1954 14.7308 20.5703 13.3364C21.8115 12.0349 22.5306 10.237 22.4998 8.43717C22.4452 6.94215 22.0039 5.44064 21.0467 4.26529C21.0271 4.24103 21.0074 4.21677 20.9872 4.19177C19.8168 2.75322 18.1775 1.75566 16.3123 1.54654C15.0586 1.42031 13.8068 1.58305 12.6561 2.10904ZM9.06187 13.1508C9.01081 13.202 9.01081 13.202 8.95872 13.2542C8.90101 13.3119 8.90102 13.3119 8.84214 13.3708C8.80034 13.4129 8.75854 13.4549 8.71548 13.4982C8.65159 13.5622 8.65159 13.5622 8.58641 13.6275C8.47295 13.7411 8.35963 13.8549 8.24634 13.9687C8.1308 14.0847 8.01513 14.2006 7.89947 14.3165C7.67238 14.5441 7.44544 14.7718 7.21859 14.9997C7.2831 15.1446 7.35695 15.2432 7.46929 15.3548C7.50119 15.3866 7.53309 15.4185 7.56596 15.4514C7.60034 15.4853 7.63471 15.5192 7.67013 15.5541C7.70537 15.5892 7.74062 15.6243 7.77693 15.6605C7.88943 15.7725 8.00225 15.8841 8.11508 15.9958C8.19145 16.0717 8.26781 16.1476 8.34414 16.2235C8.53121 16.4096 8.71855 16.5954 8.90609 16.7809C9.06154 16.7131 9.16352 16.6287 9.2827 16.5087C9.31928 16.4721 9.35587 16.4355 9.39356 16.3978C9.43258 16.3583 9.4716 16.3188 9.51181 16.2781C9.57227 16.2174 9.57227 16.2174 9.63396 16.1556C9.76266 16.0263 9.89102 15.8968 10.0194 15.7672C10.1066 15.6796 10.1938 15.5919 10.281 15.5043C10.4948 15.2895 10.7084 15.0744 10.9217 14.859C10.794 14.7297 10.6669 14.6029 10.5271 14.4866C10.0457 14.0807 9.62469 13.6591 9.24722 13.1519C9.21758 13.1152 9.21758 13.1152 9.18734 13.0778C9.12832 13.0725 9.12832 13.0725 9.06187 13.1508ZM6.52214 15.6908C6.48507 15.7281 6.44801 15.7654 6.40982 15.8039C6.36979 15.844 6.32975 15.8842 6.28851 15.9256C6.24642 15.9681 6.20434 16.0106 6.16098 16.0544C6.09758 16.1181 6.09758 16.1181 6.03289 16.1831C5.92802 16.2885 5.82326 16.394 5.71859 16.4997C5.7831 16.6446 5.85695 16.7432 5.96929 16.8548C6.00119 16.8866 6.03309 16.9185 6.06596 16.9514C6.10034 16.9853 6.13471 17.0192 6.17013 17.0541C6.223 17.1068 6.223 17.1068 6.27693 17.1605C6.38943 17.2725 6.50225 17.3841 6.61508 17.4958C6.69145 17.5717 6.76781 17.6476 6.84414 17.7235C7.03121 17.9096 7.21855 18.0954 7.40609 18.2809C7.56194 18.207 7.66467 18.1271 7.78622 18.0037C7.82157 17.968 7.85692 17.9324 7.89334 17.8957C7.92977 17.8584 7.96621 17.8212 8.00375 17.7829C8.04091 17.7453 8.07807 17.7077 8.11636 17.669C8.20794 17.5763 8.2993 17.4834 8.39047 17.3903C8.19185 17.1532 7.98449 16.9305 7.76553 16.7123C7.73379 16.6805 7.70204 16.6487 7.66933 16.6159C7.60286 16.5494 7.53632 16.483 7.46973 16.4166C7.36732 16.3144 7.26516 16.212 7.16302 16.1096C7.09825 16.0448 7.03346 15.9801 6.96865 15.9154C6.93799 15.8846 6.90733 15.8539 6.87574 15.8222C6.71251 15.6083 6.71251 15.6083 6.52214 15.6908ZM4.79706 17.4107C4.76443 17.4428 4.73181 17.4749 4.6982 17.5079C4.35578 17.8451 4.01485 18.1839 3.67403 18.5227C3.51237 18.6833 3.35026 18.8434 3.18774 19.0032C2.99153 19.1961 2.79614 19.3897 2.6013 19.584C2.52703 19.6578 2.45248 19.7313 2.37765 19.8045C1.76032 20.3938 1.76032 20.3938 1.52621 21.193C1.5758 21.6322 1.72889 21.9218 2.06234 22.2184C2.37055 22.4207 2.68143 22.4892 3.04672 22.4528C3.39597 22.3568 3.62985 22.1913 3.8785 21.9342C3.91148 21.9012 3.94447 21.8683 3.97846 21.8344C4.08616 21.7265 4.19284 21.6176 4.29953 21.5087C4.37446 21.4332 4.44946 21.3578 4.52452 21.2825C4.72104 21.0849 4.91669 20.8865 5.11218 20.6879C5.31215 20.485 5.51293 20.283 5.71365 20.0808C6.10671 19.6848 6.49887 19.2878 6.89047 18.8903C6.67432 18.6348 6.67432 18.6348 6.44464 18.3915C6.41572 18.3625 6.3868 18.3334 6.357 18.3034C6.32682 18.2733 6.29663 18.2433 6.26553 18.2123C6.23379 18.1805 6.20204 18.1487 6.16933 18.1159C6.10286 18.0494 6.03632 17.983 5.96973 17.9166C5.86732 17.8144 5.76516 17.712 5.66302 17.6096C5.59825 17.5448 5.53346 17.4801 5.46865 17.4154C5.43799 17.3846 5.40733 17.3539 5.37574 17.3222C5.08148 17.0295 5.06705 17.1437 4.79706 17.4107Z" fill="#033F2D"/>
<path d="M13.1484 4.1875C13.4587 4.24291 13.6549 4.57075 13.8545 4.80273C13.8941 4.84851 13.8941 4.84851 13.9346 4.8952C14.0744 5.05711 14.2114 5.22048 14.3437 5.38867C14.4734 5.32641 14.5928 5.25683 14.7129 5.17773C15.0515 4.96751 15.3545 4.92686 15.75 4.9668C16.0325 5.03707 16.2907 5.13254 16.5 5.3418C16.5232 5.3882 16.5232 5.3882 16.5468 5.43555C16.8228 5.13767 17.0879 4.83691 17.3388 4.51727C17.4799 4.35571 17.5981 4.23062 17.8125 4.19043C18.0064 4.22678 18.0726 4.29242 18.1875 4.45117C18.2111 4.64722 18.2048 4.74953 18.1047 4.92157C18.0663 4.9684 18.0279 5.01523 17.9883 5.06348C17.9574 5.10186 17.9574 5.10186 17.9258 5.14101C17.8082 5.28572 17.6863 5.4266 17.564 5.56738C17.5385 5.59675 17.5131 5.62611 17.4869 5.65636C17.4372 5.71327 17.3871 5.76985 17.3366 5.82603C17.1766 6.00712 17.1766 6.00712 17.1093 6.23242C17.1491 6.35642 17.1915 6.47291 17.2412 6.59277C17.3506 6.86015 17.4292 7.1204 17.4843 7.4043C17.5328 7.40498 17.5813 7.40566 17.6312 7.40637C17.8116 7.40909 17.992 7.41271 18.1724 7.4166C18.2504 7.41815 18.3284 7.41947 18.4063 7.42054C18.5187 7.42211 18.6309 7.42457 18.7432 7.42719C18.7952 7.42763 18.7952 7.42763 18.8483 7.42809C19.0573 7.434 19.1932 7.46293 19.3593 7.5918C19.4544 7.72235 19.4544 7.72235 19.5439 7.87598C19.5761 7.93079 19.6082 7.9856 19.6404 8.04041C19.6869 8.11998 19.6869 8.11998 19.7343 8.20117C19.7629 8.24552 19.7915 8.28988 19.821 8.33557C20.0616 8.70985 20.0616 8.70985 20.0156 8.95117C19.9763 9.06908 19.942 9.12238 19.8457 9.2002C19.6718 9.25053 19.5254 9.25568 19.3593 9.18555C19.2102 9.02854 19.1093 8.83759 19.0255 8.63899C18.9616 8.50203 18.9036 8.4026 18.7968 8.29492C18.5856 8.23668 18.387 8.25034 18.1699 8.26562C18.113 8.26774 18.0562 8.26985 17.9976 8.27203C17.8575 8.27755 17.7179 8.28524 17.5781 8.29492C17.5786 8.32342 17.5791 8.35192 17.5796 8.38129C17.5825 8.66527 17.5662 8.9416 17.5342 9.22363C17.528 9.28123 17.528 9.28123 17.5218 9.34C17.5015 9.52536 17.4757 9.70601 17.4375 9.88867C17.4703 9.88794 17.5032 9.8872 17.537 9.88644C17.6865 9.88351 17.8359 9.88169 17.9853 9.87988C18.037 9.8787 18.0887 9.87753 18.142 9.87631C18.192 9.87586 18.242 9.87541 18.2935 9.87494C18.3394 9.8742 18.3853 9.87347 18.4326 9.87271C18.5867 9.89165 18.6721 9.93821 18.7968 10.0293C18.8919 10.1599 18.8919 10.1599 18.9814 10.3135C19.0136 10.3684 19.0457 10.4232 19.0779 10.4781C19.1089 10.5311 19.1399 10.5841 19.1718 10.6387C19.2004 10.6825 19.229 10.7263 19.2585 10.7714C19.373 10.9477 19.4477 11.0774 19.4853 11.2861C19.4427 11.4836 19.3836 11.5542 19.2187 11.6699C19.0547 11.6992 19.0547 11.6992 18.8906 11.6699C18.7412 11.5478 18.6494 11.4361 18.579 11.2589C18.4951 11.0541 18.4127 10.8708 18.2343 10.7324C17.8945 10.6149 17.4977 10.6236 17.1562 10.7324C17.0095 10.8601 16.9609 10.9598 16.8898 11.1395C16.7397 11.5175 16.3959 11.8255 16.0312 11.998C15.667 12.1397 15.2824 12.1406 14.9168 12.003C14.3965 11.7446 14.0687 11.2938 13.8281 10.7793C13.8281 10.7484 13.8281 10.7174 13.8281 10.6855C13.4568 10.6855 13.0856 10.6855 12.7031 10.6855C12.6722 10.7629 12.6412 10.8402 12.6093 10.9199C12.5504 11.0336 12.4904 11.1453 12.4277 11.2568C12.4118 11.2863 12.3959 11.3158 12.3796 11.3461C12.2898 11.5056 12.2257 11.614 12.0468 11.6699C11.8565 11.6983 11.789 11.6867 11.6308 11.5732C11.5332 11.4382 11.504 11.3729 11.5093 11.2087C11.5594 10.9772 11.7037 10.7789 11.8271 10.5801C11.869 10.5103 11.869 10.5103 11.9116 10.4391C12.2007 9.9624 12.2007 9.9624 12.4218 9.88867C12.5084 9.88481 12.5951 9.88364 12.6817 9.88409C12.732 9.88425 12.7823 9.8844 12.8341 9.88455C12.8866 9.88494 12.9391 9.88534 12.9931 9.88574C13.0727 9.88606 13.0727 9.88606 13.1538 9.88638C13.2848 9.88694 13.4158 9.88771 13.5468 9.88867C13.5323 9.84903 13.5178 9.80939 13.5029 9.76855C13.3977 9.42817 13.4003 9.09584 13.4033 8.74316C13.4035 8.69546 13.4037 8.64775 13.4039 8.5986C13.4045 8.48175 13.4053 8.3649 13.4062 8.24805C12.7109 8.16235 12.7109 8.16235 12.0814 8.37844C11.9168 8.58082 11.808 8.80826 11.7158 9.05132C11.6718 9.13867 11.6718 9.13867 11.5312 9.23242C11.3267 9.25893 11.236 9.25554 11.0654 9.13574C10.9709 9.00108 10.9418 8.93357 10.9469 8.77119C10.9968 8.53964 11.1412 8.34141 11.2646 8.14258C11.2925 8.09605 11.3204 8.04952 11.3491 8.00159C11.6382 7.5249 11.6382 7.5249 11.8593 7.45117C11.984 7.44719 12.1074 7.44574 12.232 7.44659C12.2682 7.44666 12.3044 7.44673 12.3417 7.4468C12.4573 7.44706 12.5729 7.44765 12.6885 7.44824C12.7669 7.44848 12.8453 7.44869 12.9236 7.44888C13.1158 7.4494 13.3079 7.45021 13.5 7.45117C13.503 7.41135 13.503 7.41135 13.5061 7.37073C13.5283 7.1278 13.575 6.92138 13.664 6.69238C13.7852 6.3999 13.7852 6.3999 13.8281 6.0918C13.7537 5.96607 13.6564 5.86583 13.5556 5.76074C13.4994 5.69877 13.4432 5.6367 13.3872 5.57452C13.3589 5.54352 13.3306 5.51251 13.3015 5.48057C13.1785 5.34404 13.061 5.20404 12.9463 5.06055C12.8893 4.99094 12.8893 4.99094 12.8311 4.91992C12.7325 4.74896 12.727 4.64563 12.75 4.45117C12.8715 4.27812 12.9394 4.22482 13.1484 4.1875ZM14.7656 6.23242C14.1656 7.24037 14.0189 8.51694 14.2822 9.65723C14.425 10.2187 14.6522 10.907 15.1699 11.2334C15.3438 11.301 15.4262 11.3316 15.6093 11.2949C16.0633 11.0817 16.3033 10.7038 16.4883 10.252C16.9207 9.03009 16.8868 7.67017 16.3418 6.49023C16.1723 6.17524 15.9571 5.88464 15.6093 5.76367C15.2476 5.69704 14.9622 5.96031 14.7656 6.23242Z" fill="#033F2D"/>
<path d="M13.0312 2.7644C13.1881 2.8779 13.2544 2.946 13.2949 3.13647C13.256 3.32721 13.1757 3.43708 13.0312 3.56127C12.923 3.63063 12.812 3.69366 12.7004 3.75738C11.491 4.50419 10.5314 5.7814 10.1849 7.16529C10.1429 7.35004 10.1025 7.53479 10.0674 7.72097C10.0314 7.90256 10.0056 8.03207 9.89555 8.18322C9.73782 8.28798 9.60428 8.28548 9.42185 8.24877C9.28417 8.15698 9.24407 8.09768 9.20158 7.93841C9.1839 7.7398 9.2174 7.57706 9.26365 7.38451C9.27237 7.34732 9.28109 7.31012 9.29007 7.2718C9.74237 5.39752 10.8754 3.87228 12.5156 2.85815C12.6958 2.75664 12.822 2.73871 13.0312 2.7644Z" fill="#033F2D"/>
<path d="M14.625 2.25149C14.7299 2.33607 14.7579 2.39672 14.7819 2.52816C14.7952 2.71108 14.7878 2.7879 14.666 2.93117C14.5072 3.01402 14.4266 3.03091 14.25 3.00149C14.0899 2.90896 14.0286 2.85217 13.9688 2.67629C13.9688 2.50341 14.0016 2.43218 14.1094 2.29836C14.2757 2.16771 14.428 2.20134 14.625 2.25149Z" fill="#033F2D"/>
</g>
<defs>
<clipPath id="clip0_314_23014">
<rect width="24" height="24" fill="white"/>
</clipPath>
</defs>
</svg>
