<svg width="40" height="40" viewBox="0 0 40 40" fill="none" xmlns="http://www.w3.org/2000/svg">
<path d="M26.25 15.625C26.2499 15.5747 26.2438 15.5245 26.2319 15.4756C25.8491 13.937 24.97 12.5674 23.7305 11.5787C22.491 10.5901 20.9602 10.0374 19.375 10.0063V8.635C19.7393 8.5062 20.0549 8.26798 20.2787 7.95294C20.5024 7.63789 20.6234 7.26141 20.625 6.875V3.125C20.625 2.62772 20.4275 2.15081 20.0758 1.79917C19.7242 1.44754 19.2473 1.25 18.75 1.25H16.25C15.7527 1.25 15.2758 1.44754 14.9242 1.79917C14.5725 2.15081 14.375 2.62772 14.375 3.125V6.875C14.3766 7.26141 14.4976 7.63789 14.7213 7.95294C14.9451 8.26798 15.2607 8.5062 15.625 8.635V10.0063C14.0402 10.0374 12.5099 10.5898 11.2705 11.5779C10.0312 12.5661 9.15197 13.9351 8.76875 15.4731C8.7563 15.5228 8.75001 15.5738 8.75 15.625V38.125C8.75 38.6223 8.94754 39.0992 9.29917 39.4508C9.65081 39.8025 10.1277 40 10.625 40H24.375C24.8723 40 25.3492 39.8025 25.7008 39.4508C26.0525 39.0992 26.25 38.6223 26.25 38.125V36.25C26.25 36.0842 26.1842 35.9253 26.0669 35.8081C25.9497 35.6908 25.7908 35.625 25.625 35.625C25.4592 35.625 25.3003 35.6908 25.1831 35.8081C25.0658 35.9253 25 36.0842 25 36.25V38.125C25 38.2908 24.9342 38.4497 24.8169 38.5669C24.6997 38.6842 24.5408 38.75 24.375 38.75H10.625C10.4592 38.75 10.3003 38.6842 10.1831 38.5669C10.0658 38.4497 10 38.2908 10 38.125V16.25H13.125C13.2908 16.25 13.4497 16.1842 13.5669 16.0669C13.6842 15.9497 13.75 15.7908 13.75 15.625C13.75 15.4592 13.6842 15.3003 13.5669 15.1831C13.4497 15.0658 13.2908 15 13.125 15H10.2375C10.68 13.8924 11.4445 12.9431 12.4322 12.2746C13.4199 11.606 14.5854 11.2492 15.7781 11.25H19.2219C20.4145 11.2492 21.58 11.6062 22.5677 12.2747C23.5554 12.9432 24.3199 13.8925 24.7625 15H15.625C15.4592 15 15.3003 15.0658 15.1831 15.1831C15.0658 15.3003 15 15.4592 15 15.625C15 15.7908 15.0658 15.9497 15.1831 16.0669C15.3003 16.1842 15.4592 16.25 15.625 16.25H25V33.75H26.25V15.625ZM18.125 8.75V10H16.875V8.75H18.125ZM15.625 3.125C15.625 2.95924 15.6908 2.80027 15.8081 2.68306C15.9253 2.56585 16.0842 2.5 16.25 2.5H18.75C18.9158 2.5 19.0747 2.56585 19.1919 2.68306C19.3092 2.80027 19.375 2.95924 19.375 3.125V6.875C19.375 7.04076 19.3092 7.19973 19.1919 7.31694C19.0747 7.43415 18.9158 7.5 18.75 7.5H16.25C16.0842 7.5 15.9253 7.43415 15.8081 7.31694C15.6908 7.19973 15.625 7.04076 15.625 6.875V3.125Z" fill="#033F2D"/>
<path d="M17.5 22.5011C17.9917 22.5012 18.4807 22.5739 18.9512 22.7167C19.1095 22.7635 19.2798 22.7457 19.425 22.6674C19.5702 22.589 19.6785 22.4565 19.7264 22.2986C19.7742 22.1407 19.7577 21.9703 19.6804 21.8245C19.6031 21.6787 19.4713 21.5695 19.3137 21.5205C17.982 21.1153 16.553 21.1666 15.2537 21.6662C13.9544 22.1658 12.8592 23.0851 12.142 24.2782C11.4249 25.4713 11.1268 26.8698 11.2951 28.2516C11.4635 29.6335 12.0886 30.9195 13.0712 31.9055C13.0732 31.9111 13.0764 31.9163 13.0806 31.9205C13.0848 31.9247 13.09 31.9279 13.0956 31.9299C14.2788 33.0509 15.8531 33.6654 17.4829 33.6423C19.1126 33.6193 20.6689 32.9604 21.8199 31.8063C22.9708 30.6522 23.6254 29.0941 23.644 27.4643C23.6625 25.8344 23.0437 24.2618 21.9194 23.0817C21.8022 22.9646 21.6432 22.8988 21.4775 22.8988C21.3118 22.8988 21.1528 22.9646 21.0356 23.0817L18.7969 25.3205C17.3912 24.1892 15.7381 23.9586 14.8481 24.8492C13.9581 25.7399 14.1887 27.393 15.3194 28.798L13.555 30.5636C12.9793 29.8257 12.6226 28.9408 12.5257 28.0099C12.4288 27.0791 12.5955 26.1397 13.0068 25.299C13.4182 24.4583 14.0576 23.7502 14.8521 23.2555C15.6465 22.7608 16.5641 22.4994 17.5 22.5011ZM17.5 32.5011C16.39 32.5013 15.3119 32.1299 14.4375 31.4461L16.1994 29.6842C16.9014 30.2941 17.787 30.6518 18.7156 30.7005C18.9797 30.7099 19.2429 30.6663 19.4898 30.5723C19.7367 30.4783 19.9623 30.3357 20.1531 30.153C21.0431 29.2624 20.8125 27.6092 19.6819 26.2042L21.4469 24.4386C22.0214 25.177 22.3771 26.0619 22.4733 26.9925C22.5695 27.9231 22.4024 28.862 21.991 29.7023C21.5797 30.5426 20.9406 31.2505 20.1466 31.7453C19.3526 32.2401 18.4356 32.502 17.5 32.5011ZM18.7919 27.093C19.4619 27.9842 19.6212 28.9155 19.2681 29.2692C18.915 29.623 17.9831 29.4624 17.0919 28.793L18.7919 27.093ZM15.7294 25.733C15.882 25.6015 16.0803 25.5354 16.2812 25.5492C16.8779 25.5981 17.4452 25.8292 17.9062 26.2111L16.2081 27.9092C15.5381 27.0174 15.3787 26.0867 15.7319 25.733H15.7294Z" fill="#033F2D"/>
<path d="M31.1831 1.92618C31.0522 1.37095 30.7353 0.877201 30.2851 0.526893C29.8348 0.176585 29.2783 -0.00920964 28.708 0.000351404C28.1376 0.00991245 27.5876 0.214254 27.1494 0.579455C26.7112 0.944656 26.411 1.44875 26.2987 2.00805C26.2495 2.31794 26.092 2.60034 25.8542 2.80506C25.6164 3.00978 25.3138 3.12356 25 3.12618H23.125C22.9592 3.12618 22.8003 3.19203 22.6831 3.30924C22.5658 3.42645 22.5 3.58542 22.5 3.75118C22.5 3.91694 22.5658 4.07591 22.6831 4.19312C22.8003 4.31033 22.9592 4.37618 23.125 4.37618H25.03C25.6326 4.36948 26.2135 4.15065 26.6707 3.75813C27.1279 3.36561 27.4322 2.82452 27.53 2.22993C27.597 1.92959 27.7725 1.66452 28.0227 1.48548C28.273 1.30644 28.5806 1.22602 28.8865 1.25961C29.1923 1.2932 29.4751 1.43845 29.6806 1.66754C29.886 1.89662 29.9998 2.19345 30 2.50118C30 2.66694 30.0658 2.82591 30.1831 2.94312C30.3003 3.06033 30.4592 3.12618 30.625 3.12618C31.1223 3.12618 31.5992 3.32372 31.9508 3.67535C32.3025 4.02699 32.5 4.5039 32.5 5.00118C32.5 5.49846 32.3025 5.97537 31.9508 6.32701C31.5992 6.67864 31.1223 6.87618 30.625 6.87618C30.4592 6.87618 30.3003 6.94203 30.1831 7.05924C30.0658 7.17645 30 7.33542 30 7.50118C30.0001 7.68441 29.96 7.86544 29.8824 8.03143C29.8048 8.19743 29.6917 8.34434 29.551 8.46175C29.4103 8.57917 29.2456 8.66422 29.0684 8.71089C28.8912 8.75756 28.7059 8.7647 28.5256 8.7318C28.281 8.68532 28.0555 8.56755 27.8776 8.3933C27.6996 8.21904 27.5772 7.99608 27.5256 7.75243C27.425 7.16165 27.1199 6.62504 26.6637 6.23638C26.2075 5.84772 25.6293 5.63174 25.03 5.62618H25C24.9187 5.62649 24.8383 5.64299 24.7635 5.67469C24.6886 5.7064 24.6208 5.75269 24.564 5.81086C24.5073 5.86904 24.4626 5.93793 24.4328 6.01353C24.4029 6.08912 24.3883 6.16991 24.39 6.25118C24.3934 6.41846 24.4624 6.5777 24.5821 6.6946C24.7019 6.8115 24.8627 6.87671 25.03 6.87618C25.345 6.88697 25.646 7.00894 25.8796 7.22048C26.1132 7.43202 26.2643 7.71945 26.3063 8.03181C26.4112 8.51662 26.658 8.95925 27.0153 9.30337C27.3725 9.6475 27.8241 9.87757 28.3125 9.96431C28.4548 9.98865 28.5988 10.001 28.7431 10.0012C29.307 10.0022 29.8546 9.81259 30.2971 9.46313C30.7396 9.11368 31.0509 8.62491 31.1806 8.07618C31.9011 7.94572 32.553 7.56639 33.0223 7.00439C33.4917 6.44239 33.7488 5.73341 33.7488 5.00118C33.7488 4.26895 33.4917 3.55997 33.0223 2.99797C32.553 2.43597 31.9011 2.05664 31.1806 1.92618H31.1831Z" fill="#033F2D"/>
</svg>
