<svg width="30" height="30" viewBox="0 0 30 30" fill="none" xmlns="http://www.w3.org/2000/svg">
<g clip-path="url(#clip0_352_5429)">
<path d="M12.1875 12.1875C13.4303 12.1861 14.6218 11.6918 15.5006 10.8131C16.3793 9.93427 16.8736 8.74278 16.875 7.5V4.6875H18.2812C18.4056 4.6875 18.5248 4.63811 18.6127 4.55021C18.7006 4.4623 18.75 4.34307 18.75 4.21875C18.75 4.09443 18.7006 3.9752 18.6127 3.88729C18.5248 3.79939 18.4056 3.75 18.2812 3.75H16.875V3.28125C16.874 2.41131 16.528 1.57729 15.9128 0.962152C15.2977 0.347013 14.4637 0.000992513 13.5938 0L10.7812 0C9.91131 0.000992513 9.07729 0.347013 8.46215 0.962152C7.84701 1.57729 7.50099 2.41131 7.5 3.28125V7.5C7.50136 8.74278 7.99566 9.93427 8.87444 10.8131C9.75323 11.6918 10.9447 12.1861 12.1875 12.1875ZM8.4375 4.6875H15.9375V6.44719L12.2892 5.63625C12.2222 5.62125 12.1528 5.62125 12.0858 5.63625L8.4375 6.44719V4.6875ZM8.4375 3.28125C8.43824 2.65988 8.68541 2.06417 9.12479 1.62479C9.56417 1.18541 10.1599 0.938244 10.7812 0.9375H13.5938C14.2151 0.938244 14.8108 1.18541 15.2502 1.62479C15.6896 2.06417 15.9368 2.65988 15.9375 3.28125V3.75H8.4375V3.28125ZM8.4375 7.40625L12.1875 6.57281L15.9375 7.40625V7.5C15.9375 8.49456 15.5424 9.44839 14.8392 10.1517C14.1359 10.8549 13.1821 11.25 12.1875 11.25C11.1929 11.25 10.2391 10.8549 9.53585 10.1517C8.83259 9.44839 8.4375 8.49456 8.4375 7.5V7.40625Z" fill="#033F2D"/>
<path d="M2.8125 26.25H1.40625C1.28193 26.25 1.1627 26.2006 1.07479 26.1127C0.986886 26.0248 0.9375 25.9056 0.9375 25.7812V11.7188C0.9375 11.5944 0.986886 11.4752 1.07479 11.3873C1.1627 11.2994 1.28193 11.25 1.40625 11.25H4.21875C4.34307 11.25 4.4623 11.2994 4.55021 11.3873C4.63811 11.4752 4.6875 11.5944 4.6875 11.7188C4.6875 11.8431 4.73689 11.9623 4.82479 12.0502C4.9127 12.1381 5.03193 12.1875 5.15625 12.1875C5.28057 12.1875 5.3998 12.1381 5.48771 12.0502C5.57561 11.9623 5.625 11.8431 5.625 11.7188C5.625 11.3458 5.47684 10.9881 5.21312 10.7244C4.9494 10.4607 4.59171 10.3125 4.21875 10.3125H3.28125V9.375H3.75C4.12296 9.375 4.48065 9.22684 4.74437 8.96312C5.00809 8.6994 5.15625 8.34171 5.15625 7.96875V7.03125C5.15625 6.65829 5.00809 6.3006 4.74437 6.03688C4.48065 5.77316 4.12296 5.625 3.75 5.625H1.875C1.50204 5.625 1.14435 5.77316 0.880631 6.03688C0.616908 6.3006 0.46875 6.65829 0.46875 7.03125V7.96875C0.46875 8.34171 0.616908 8.6994 0.880631 8.96312C1.14435 9.22684 1.50204 9.375 1.875 9.375H2.34375V10.3125H1.40625C1.03329 10.3125 0.675604 10.4607 0.411881 10.7244C0.148158 10.9881 0 11.3458 0 11.7188L0 25.7812C0 26.1542 0.148158 26.5119 0.411881 26.7756C0.675604 27.0393 1.03329 27.1875 1.40625 27.1875H2.8125C2.93682 27.1875 3.05605 27.1381 3.14396 27.0502C3.23186 26.9623 3.28125 26.8431 3.28125 26.7188C3.28125 26.5944 3.23186 26.4752 3.14396 26.3873C3.05605 26.2994 2.93682 26.25 2.8125 26.25ZM1.40625 7.96875V7.03125C1.40625 6.90693 1.45564 6.7877 1.54354 6.69979C1.63145 6.61189 1.75068 6.5625 1.875 6.5625H3.75C3.87432 6.5625 3.99355 6.61189 4.08146 6.69979C4.16936 6.7877 4.21875 6.90693 4.21875 7.03125V7.96875C4.21875 8.09307 4.16936 8.2123 4.08146 8.30021C3.99355 8.38811 3.87432 8.4375 3.75 8.4375H1.875C1.75068 8.4375 1.63145 8.38811 1.54354 8.30021C1.45564 8.2123 1.40625 8.09307 1.40625 7.96875Z" fill="#033F2D"/>
<path d="M21.0605 15.2953C21.0376 15.2381 21.0037 15.186 20.9607 15.142C20.9177 15.0979 20.8664 15.0628 20.8099 15.0385C20.7533 15.0143 20.6925 15.0014 20.6309 15.0007C20.5694 14.9999 20.5083 15.0113 20.4511 15.0342L18.8906 15.6572C18.5822 15.7807 18.3036 15.9683 18.0731 16.2076C17.8426 16.4468 17.6656 16.7323 17.5538 17.0451L15.6094 22.5009H7.03125C6.90693 22.5009 6.7877 22.5503 6.69979 22.6382C6.61189 22.7261 6.5625 22.8454 6.5625 22.9697C6.5625 23.094 6.61189 23.2132 6.69979 23.3011C6.7877 23.389 6.90693 23.4384 7.03125 23.4384H13.5938V26.2509H5.15625C4.78329 26.2509 4.42561 26.1028 4.16188 25.839C3.89816 25.5753 3.75 25.2176 3.75 24.8447V15.5273C3.75004 15.2138 3.85486 14.9092 4.04783 14.6621C4.24079 14.4149 4.51082 14.2394 4.815 14.1633L8.625 13.2112L9.41016 15.1753C9.43302 15.2325 9.46692 15.2846 9.50992 15.3286C9.55292 15.3727 9.60418 15.4078 9.66077 15.4321C9.71735 15.4563 9.77816 15.4692 9.83972 15.4699C9.90128 15.4707 9.96238 15.4593 10.0195 15.4364L12.1875 14.5683L14.3569 15.4364C14.414 15.4593 14.4751 15.4707 14.5367 15.4699C14.5982 15.4692 14.6591 15.4563 14.7156 15.4321C14.7722 15.4078 14.8235 15.3727 14.8665 15.3286C14.9095 15.2846 14.9434 15.2325 14.9663 15.1753L15.7514 13.2112L19.5595 14.1633C19.6802 14.1934 19.8079 14.1744 19.9145 14.1104C20.0211 14.0464 20.098 13.9427 20.1281 13.822C20.1583 13.7014 20.1393 13.5737 20.0753 13.467C20.0113 13.3604 19.9075 13.2836 19.7869 13.2534L15.5822 12.2025C15.4721 12.1755 15.356 12.1891 15.2551 12.2408C15.1542 12.2924 15.0753 12.3787 15.0328 12.4837L14.2702 14.3915L12.3619 13.628C12.2498 13.5839 12.1252 13.5839 12.0131 13.628L10.1048 14.3915L9.34172 12.4828C9.29972 12.3774 9.22089 12.2907 9.11985 12.239C9.01882 12.1873 8.90245 12.174 8.79234 12.2015L4.58813 13.2534C4.08072 13.3797 3.63019 13.6722 3.30838 14.0843C2.98657 14.4964 2.812 15.0044 2.8125 15.5273V24.8447C2.81325 25.466 3.06041 26.0618 3.49979 26.5011C3.93917 26.9405 4.53488 27.1877 5.15625 27.1884H15.9375C16.5589 27.1877 17.1546 26.9405 17.594 26.5011C18.0333 26.0618 18.2805 25.466 18.2813 24.8447V23.9072C18.2813 23.5342 18.1331 23.1765 17.8694 22.9128C17.6056 22.6491 17.248 22.5009 16.875 22.5009H16.6027L18.4383 17.3611C18.5053 17.1734 18.6115 17.0021 18.7498 16.8586C18.8881 16.7151 19.0553 16.6026 19.2403 16.5286L20.7994 15.9051C20.8566 15.8823 20.9087 15.8484 20.9528 15.8053C20.9969 15.7623 21.0321 15.711 21.0564 15.6543C21.0806 15.5977 21.0934 15.5368 21.0942 15.4752C21.0949 15.4136 21.0834 15.3525 21.0605 15.2953ZM17.3438 23.9072V24.8447C17.3438 25.2176 17.1956 25.5753 16.9319 25.839C16.6681 26.1028 16.3105 26.2509 15.9375 26.2509H14.5313V23.4384H16.875C16.9993 23.4384 17.1186 23.4878 17.2065 23.5757C17.2944 23.6636 17.3438 23.7829 17.3438 23.9072Z" fill="#033F2D"/>
<path d="M26.7187 16.8759C26.5944 16.8759 26.4752 16.9253 26.3873 17.0132C26.2994 17.1011 26.25 17.2203 26.25 17.3446C26.2501 17.4821 26.22 17.6178 26.1618 17.7423C26.1036 17.8668 26.0187 17.977 25.9132 18.0651C25.8077 18.1531 25.6841 18.2169 25.5513 18.2519C25.4184 18.2869 25.2794 18.2923 25.1442 18.2676C24.9607 18.2327 24.7916 18.1444 24.6582 18.0137C24.5247 17.883 24.4329 17.7158 24.3942 17.5331C24.3187 17.09 24.0899 16.6875 23.7478 16.396C23.4056 16.1045 22.9719 15.9426 22.5225 15.9384H22.5C22.439 15.9386 22.3787 15.951 22.3226 15.9748C22.2664 15.9986 22.2156 16.0333 22.173 16.0769C22.1304 16.1205 22.097 16.1722 22.0746 16.2289C22.0521 16.2856 22.0412 16.3462 22.0425 16.4071C22.0451 16.5326 22.0968 16.652 22.1866 16.7397C22.2764 16.8274 22.397 16.8763 22.5225 16.8759C22.7587 16.884 22.9844 16.9755 23.1597 17.1341C23.3349 17.2928 23.4482 17.5083 23.4797 17.7426C23.5584 18.1062 23.7435 18.4382 24.0114 18.6963C24.2794 18.9544 24.6181 19.1269 24.9844 19.192C25.0911 19.2102 25.1991 19.2195 25.3073 19.2196C25.7302 19.2204 26.1409 19.0782 26.4728 18.8161C26.8047 18.554 27.0382 18.1874 27.1355 17.7759C27.6758 17.678 28.1647 17.3935 28.5167 16.972C28.8688 16.5505 29.0616 16.0188 29.0616 15.4696C29.0616 14.9205 28.8688 14.3887 28.5167 13.9672C28.1647 13.5457 27.6758 13.2612 27.1355 13.1634C27.0373 12.747 26.7996 12.3767 26.4619 12.1139C26.1242 11.8512 25.7069 11.7118 25.2791 11.719C24.8513 11.7262 24.4388 11.8794 24.1102 12.1533C23.7815 12.4272 23.5564 12.8053 23.4722 13.2248C23.4353 13.4569 23.3174 13.6684 23.1395 13.8219C22.9615 13.9754 22.735 14.061 22.5 14.0634C22.439 14.0636 22.3787 14.076 22.3226 14.0998C22.2664 14.1236 22.2156 14.1583 22.173 14.2019C22.1304 14.2455 22.097 14.2972 22.0746 14.3539C22.0521 14.4106 22.0412 14.4712 22.0425 14.5321C22.0451 14.6576 22.0968 14.777 22.1866 14.8647C22.2764 14.9524 22.397 15.0013 22.5225 15.0009C22.9744 14.9959 23.4101 14.8317 23.753 14.5373C24.0959 14.243 24.3241 13.8371 24.3975 13.3912C24.4477 13.1659 24.5793 12.9671 24.767 12.8329C24.9548 12.6986 25.1854 12.6383 25.4148 12.6635C25.6442 12.6887 25.8563 12.7976 26.0104 12.9694C26.1645 13.1412 26.2498 13.3638 26.25 13.5946C26.25 13.719 26.2994 13.8382 26.3873 13.9261C26.4752 14.014 26.5944 14.0634 26.7187 14.0634C27.0917 14.0634 27.4494 14.2115 27.7131 14.4753C27.9768 14.739 28.125 15.0967 28.125 15.4696C28.125 15.8426 27.9768 16.2003 27.7131 16.464C27.4494 16.7277 27.0917 16.8759 26.7187 16.8759Z" fill="#033F2D"/>
<path d="M28.627 21.9979C28.5391 21.91 28.4199 21.8606 28.2956 21.8606C28.1713 21.8606 28.0521 21.91 27.9642 21.9979L26.2852 23.6769C25.2314 22.8285 23.9883 22.656 23.3236 23.3235C22.6589 23.991 22.8291 25.2313 23.677 26.2851L22.3537 27.6093C21.8656 26.9812 21.59 26.2141 21.5669 25.4191C21.5438 24.624 21.7743 23.8422 22.225 23.1868C22.6758 22.5314 23.3234 22.0365 24.0742 21.7737C24.8249 21.5109 25.6398 21.4939 26.4009 21.7251C26.5196 21.7601 26.6473 21.7468 26.7562 21.688C26.8651 21.6293 26.9464 21.5299 26.9823 21.4114C27.0182 21.293 27.0058 21.1652 26.9478 21.0559C26.8898 20.9466 26.791 20.8646 26.6728 20.8279C25.674 20.524 24.6023 20.5624 23.6278 20.9371C22.6533 21.3118 21.8319 22.0013 21.294 22.8962C20.7561 23.791 20.5326 24.8398 20.6588 25.8762C20.7851 26.9126 21.2539 27.8771 21.9909 28.6166C21.9924 28.6209 21.9948 28.6247 21.998 28.6279C22.0011 28.631 22.005 28.6334 22.0092 28.6349C22.8959 29.4799 24.0781 29.9442 25.3028 29.9286C26.5276 29.913 27.6975 29.4186 28.5624 28.5512C29.4272 27.6839 29.9182 26.5125 29.9303 25.2877C29.9424 24.063 29.4746 22.8821 28.627 21.9979ZM26.6386 26.6385C26.3728 26.9029 25.6748 26.7833 25.0064 26.2813L26.2814 25.0063C26.7839 25.6752 26.9034 26.3732 26.6386 26.6385ZM23.9864 23.9863C24.1008 23.8877 24.2496 23.8381 24.4003 23.8485C24.8478 23.8852 25.2733 24.0585 25.6191 24.3449L24.3455 25.6185C23.8411 24.9496 23.7216 24.2516 23.9864 23.9863ZM25.3125 29.0624C24.48 29.0625 23.6714 28.784 23.0156 28.2711L24.337 26.9497C24.8635 27.4071 25.5278 27.6754 26.2242 27.7119C26.4222 27.719 26.6197 27.6863 26.8049 27.6158C26.99 27.5453 27.1592 27.4383 27.3023 27.3013C27.9698 26.6333 27.7969 25.3935 26.9489 24.3397L28.2727 23.0155C28.7036 23.5693 28.9703 24.233 29.0424 24.9309C29.1146 25.6289 28.9893 26.3331 28.6808 26.9633C28.3723 27.5935 27.8929 28.1244 27.2974 28.4955C26.7019 28.8667 26.0142 29.0631 25.3125 29.0624Z" fill="#033F2D"/>
</g>
<defs>
<clipPath id="clip0_352_5429">
<rect width="30" height="30" fill="white"/>
</clipPath>
</defs>
</svg>
