<svg width="16" height="16" viewBox="0 0 16 16" fill="none" xmlns="http://www.w3.org/2000/svg">
<g clip-path="url(#clip0_154_1170)">
<path d="M13.4017 13.8704L11.6854 15.0754C11.3949 15.2794 10.9944 15.2099 10.7929 14.9177C9.97489 13.7314 9.02172 12.2261 7.93535 10.3634C6.95468 12.2737 6.06224 13.7825 5.25994 14.928C5.05756 15.2169 4.65908 15.2835 4.37037 15.0808L2.63363 13.8614C2.33117 13.6491 2.27277 13.2235 2.50409 12.9353C4.07941 10.9724 5.24846 9.70787 5.96309 9.04758C4.17644 8.68088 2.48128 8.31191 0.877617 7.90243C0.521409 7.81147 0.318595 7.43683 0.431137 7.08684L1.09731 5.01515C1.2084 4.66967 1.58596 4.48671 1.92702 4.61072C4.11193 5.40514 5.70219 6.05529 6.74075 6.65842C6.49597 4.30511 6.33065 2.59739 6.27898 1.46527C6.26241 1.10228 6.55464 0.800781 6.918 0.800781H8.9974C9.36405 0.800781 9.65676 1.10662 9.63639 1.4727C9.55649 2.90874 9.38705 4.64989 9.12993 6.65842C10.5834 5.90505 12.2285 5.24759 14.0697 4.59968C14.4084 4.4805 14.7794 4.66604 14.8893 5.00785L15.5691 7.12179C15.6773 7.45846 15.4926 7.82367 15.1548 7.92821C13.3866 8.47531 11.6233 8.8328 9.9076 9.04758C10.7788 9.81088 11.9994 11.1204 13.5222 12.9335C13.7636 13.2209 13.7088 13.6548 13.4017 13.8704Z" fill="#C7F268"/>
</g>
<defs>
<clipPath id="clip0_154_1170">
<rect width="16" height="16" fill="white"/>
</clipPath>
</defs>
</svg>
