<svg width="24" height="24" viewBox="0 0 24 24" fill="none" xmlns="http://www.w3.org/2000/svg">
<g clip-path="url(#clip0_177_104)">
<path d="M12 9.42885C18.154 9.42885 23.1428 7.51007 23.1428 5.14314C23.1428 2.7762 18.154 0.857422 12 0.857422C5.84594 0.857422 0.857117 2.7762 0.857117 5.14314C0.857117 7.51007 5.84594 9.42885 12 9.42885Z" stroke="#033F2D" stroke-width="1.5" stroke-linecap="round" stroke-linejoin="round"/>
<path d="M0.857117 5.14258V18.8569C0.857117 21.2226 5.84569 23.1426 12 23.1426C18.1543 23.1426 23.1428 21.2226 23.1428 18.8569V5.14258" stroke="#033F2D" stroke-width="1.5" stroke-linecap="round" stroke-linejoin="round"/>
<path d="M23.1428 12C23.1428 14.3657 18.1543 16.2857 12 16.2857C5.84569 16.2857 0.857117 14.3657 0.857117 12" stroke="#033F2D" stroke-width="1.5" stroke-linecap="round" stroke-linejoin="round"/>
</g>
<defs>
<clipPath id="clip0_177_104">
<rect width="24" height="24" fill="white"/>
</clipPath>
</defs>
</svg>
