<svg width="224" height="215" viewBox="0 0 224 215" fill="none" xmlns="http://www.w3.org/2000/svg">
<path d="M-0.000651121 2.66663C-0.000651121 4.13939 1.19326 5.3333 2.66602 5.3333C4.13877 5.3333 5.33268 4.13939 5.33268 2.66663C5.33268 1.19388 4.13877 -3.22461e-05 2.66602 -3.22461e-05C1.19326 -3.22461e-05 -0.000651121 1.19388 -0.000651121 2.66663ZM106.751 20.8504L107.119 20.5118L107.103 20.494L107.085 20.4778L106.751 20.8504ZM155.947 192.835L156.303 192.483L156.287 192.467L156.27 192.453L155.947 192.835ZM223.666 212.021L218.932 208.716L218.437 214.468L223.666 212.021ZM6.5418 2.64399C6.81593 2.61065 7.01112 2.36141 6.97778 2.08728C6.94444 1.81316 6.69519 1.61797 6.42107 1.65131L6.48144 2.14765L6.5418 2.64399ZM14.1385 0.907115C13.8631 0.927259 13.6562 1.16685 13.6764 1.44226C13.6965 1.71766 13.9361 1.92459 14.2115 1.90445L14.175 1.40578L14.1385 0.907115ZM21.9106 1.50031C22.1866 1.49127 22.403 1.2602 22.3939 0.984204C22.3849 0.70821 22.1538 0.491805 21.8778 0.500849L21.8942 1.00058L21.9106 1.50031ZM29.6182 0.389919C29.342 0.388898 29.1174 0.611926 29.1163 0.888067C29.1153 1.16421 29.3384 1.38889 29.6145 1.38991L29.6163 0.889915L29.6182 0.389919ZM37.3217 1.5538C37.5977 1.56449 37.83 1.34947 37.8407 1.07354C37.8514 0.7976 37.6364 0.565242 37.3605 0.554548L37.3411 1.05417L37.3217 1.5538ZM45.0932 0.99028C44.8178 0.969863 44.578 1.17656 44.5576 1.45194C44.5372 1.72733 44.7438 1.96713 45.0192 1.98754L45.0562 1.48891L45.0932 0.99028ZM52.6953 2.69783C52.9697 2.7284 53.217 2.5307 53.2476 2.25626C53.2781 1.98181 53.0804 1.73455 52.806 1.70398L52.7506 2.20091L52.6953 2.69783ZM60.4868 2.71321C60.2138 2.67167 59.9589 2.8593 59.9173 3.1323C59.8758 3.4053 60.0634 3.66029 60.3364 3.70183L60.4116 3.20752L60.4868 2.71321ZM67.9246 5.02809C68.1955 5.08188 68.4587 4.90592 68.5125 4.63506C68.5662 4.36421 68.3903 4.10103 68.1194 4.04725L68.022 4.53767L67.9246 5.02809ZM75.6795 5.74958C75.4118 5.68169 75.1398 5.84365 75.0719 6.11132C75.004 6.37898 75.1659 6.651 75.4336 6.71889L75.5565 6.23423L75.6795 5.74958ZM82.8328 8.83764C83.0956 8.92229 83.3773 8.77784 83.462 8.51499C83.5466 8.25214 83.4022 7.97044 83.1393 7.88578L82.986 8.36171L82.8328 8.83764ZM90.4377 10.5469C90.1824 10.4417 89.8901 10.5633 89.7849 10.8186C89.6797 11.0739 89.8013 11.3662 90.0566 11.4714L90.2472 11.0092L90.4377 10.5469ZM96.988 14.7381C97.2309 14.8693 97.5343 14.7787 97.6655 14.5357C97.7966 14.2927 97.706 13.9894 97.463 13.8582L97.2255 14.2982L96.988 14.7381ZM104.06 18.0182C103.839 17.8538 103.525 17.9002 103.361 18.122C103.196 18.3438 103.243 18.657 103.465 18.8215L103.763 18.4199L104.06 18.0182ZM109.126 24.3121C109.304 24.5237 109.619 24.5516 109.831 24.3742C110.042 24.1969 110.07 23.8815 109.893 23.6699L109.51 23.991L109.126 24.3121ZM114.959 30.3176C114.802 30.0905 114.49 30.0338 114.263 30.1909C114.036 30.348 113.979 30.6595 114.136 30.8866L114.547 30.6021L114.959 30.3176ZM118.537 37.8987C118.673 38.1389 118.978 38.223 119.218 38.0867C119.458 37.9503 119.543 37.6451 119.406 37.405L118.971 37.6519L118.537 37.8987ZM123.226 44.8467C123.11 44.5961 122.813 44.4869 122.562 44.6029C122.312 44.7188 122.203 45.0159 122.319 45.2666L122.772 45.0567L123.226 44.8467ZM125.505 52.9131C125.601 53.1718 125.89 53.3031 126.148 53.2064C126.407 53.1097 126.538 52.8217 126.441 52.563L125.973 52.7381L125.505 52.9131ZM129.098 60.4864C129.019 60.2218 128.74 60.0715 128.476 60.1507C128.211 60.2298 128.061 60.5085 128.14 60.773L128.619 60.6297L129.098 60.4864ZM130.279 68.7872C130.343 69.0559 130.612 69.2221 130.881 69.1585C131.15 69.0949 131.316 68.8254 131.253 68.5567L130.766 68.672L130.279 68.7872ZM132.969 76.7282C132.919 76.4566 132.658 76.2773 132.387 76.3276C132.115 76.3778 131.936 76.6387 131.986 76.9102L132.478 76.8192L132.969 76.7282ZM133.325 85.1066C133.364 85.3799 133.617 85.5699 133.89 85.5308C134.164 85.4917 134.354 85.2384 134.314 84.965L133.82 85.0358L133.325 85.1066ZM135.354 93.2435C135.324 92.969 135.077 92.7709 134.802 92.8009C134.528 92.8309 134.33 93.0778 134.36 93.3523L134.857 93.2979L135.354 93.2435ZM135.154 101.628C135.177 101.903 135.419 102.107 135.694 102.084C135.97 102.061 136.174 101.819 136.151 101.544L135.653 101.586L135.154 101.628ZM136.769 109.853C136.751 109.577 136.513 109.369 136.237 109.387C135.962 109.405 135.753 109.643 135.772 109.919L136.271 109.886L136.769 109.853ZM136.276 118.232C136.292 118.507 136.528 118.718 136.803 118.703C137.079 118.687 137.29 118.451 137.274 118.175L136.775 118.203L136.276 118.232ZM137.732 126.487C137.717 126.211 137.481 126 137.205 126.015C136.929 126.031 136.718 126.266 136.733 126.542L137.232 126.515L137.732 126.487ZM137.218 134.858C137.235 135.134 137.472 135.343 137.748 135.326C138.024 135.308 138.233 135.071 138.216 134.795L137.717 134.827L137.218 134.858ZM138.811 143.096C138.789 142.821 138.547 142.616 138.272 142.639C137.997 142.662 137.792 142.903 137.815 143.178L138.313 143.137L138.811 143.096ZM138.629 151.473C138.661 151.748 138.909 151.944 139.183 151.912C139.457 151.88 139.654 151.632 139.622 151.358L139.125 151.416L138.629 151.473ZM140.784 159.582C140.738 159.31 140.479 159.127 140.207 159.173C139.935 159.219 139.752 159.478 139.798 159.75L140.291 159.666L140.784 159.582ZM141.504 167.94C141.572 168.208 141.844 168.37 142.112 168.302C142.379 168.235 142.541 167.963 142.474 167.695L141.989 167.818L141.504 167.94ZM144.927 175.575C144.829 175.317 144.54 175.187 144.282 175.286C144.024 175.384 143.894 175.673 143.992 175.931L144.46 175.753L144.927 175.575ZM147.58 183.518C147.719 183.756 148.026 183.836 148.264 183.697C148.502 183.557 148.583 183.251 148.443 183.013L148.012 183.265L147.58 183.518ZM153.304 189.619C153.116 189.417 152.8 189.405 152.598 189.592C152.395 189.78 152.383 190.096 152.571 190.299L152.937 189.959L153.304 189.619ZM159.102 196.06C159.329 196.216 159.641 196.157 159.797 195.929C159.952 195.701 159.894 195.39 159.666 195.234L159.384 195.647L159.102 196.06ZM167.432 199.402C167.179 199.291 166.885 199.407 166.774 199.66C166.664 199.913 166.78 200.208 167.033 200.318L167.233 199.86L167.432 199.402ZM175.425 203.466C175.687 203.552 175.97 203.408 176.055 203.146C176.141 202.883 175.997 202.601 175.735 202.515L175.58 202.991L175.425 203.466ZM184.262 204.992C183.995 204.923 183.722 205.083 183.652 205.351C183.583 205.618 183.744 205.891 184.011 205.96L184.136 205.476L184.262 204.992ZM192.713 208.003C192.983 208.061 193.248 207.888 193.306 207.618C193.363 207.348 193.19 207.083 192.92 207.025L192.816 207.514L192.713 208.003ZM201.659 208.708C201.387 208.661 201.128 208.843 201.081 209.115C201.034 209.387 201.216 209.646 201.488 209.693L201.574 209.201L201.659 208.708ZM210.314 211.073C210.587 211.111 210.84 210.92 210.878 210.647C210.916 210.373 210.725 210.121 210.451 210.083L210.383 210.578L210.314 211.073ZM219.288 211.142C219.013 211.115 218.769 211.316 218.741 211.591C218.714 211.865 218.915 212.11 219.19 212.138L219.239 211.64L219.288 211.142ZM2.66602 2.66663L2.7408 3.16101C3.97039 2.97502 5.23864 2.80249 6.5418 2.64399L6.48144 2.14765L6.42107 1.65131C5.10879 1.81091 3.83092 1.98474 2.59123 2.17226L2.66602 2.66663ZM14.175 1.40578L14.2115 1.90445C16.6996 1.72246 19.2727 1.58676 21.9106 1.50031L21.8942 1.00058L21.8778 0.500849C19.227 0.587719 16.6405 0.724104 14.1385 0.907115L14.175 1.40578ZM29.6163 0.889915L29.6145 1.38991C32.1502 1.39929 34.7246 1.45315 37.3217 1.5538L37.3411 1.05417L37.3605 0.554548C34.7516 0.453442 32.1655 0.399336 29.6182 0.389919L29.6163 0.889915ZM45.0562 1.48891L45.0192 1.98754C47.5763 2.17712 50.1399 2.41318 52.6953 2.69783L52.7506 2.20091L52.806 1.70398C50.2379 1.41792 47.6621 1.18074 45.0932 0.99028L45.0562 1.48891ZM60.4116 3.20752L60.3364 3.70183C62.8947 4.09115 65.4292 4.53252 67.9246 5.02809L68.022 4.53767L68.1194 4.04725C65.6084 3.54858 63.0591 3.10466 60.4868 2.71321L60.4116 3.20752ZM75.5565 6.23423L75.4336 6.71889C77.9675 7.36152 80.4398 8.06694 82.8328 8.83764L82.986 8.36171L83.1393 7.88578C80.7246 7.1081 78.2319 6.39695 75.6795 5.74958L75.5565 6.23423ZM90.2472 11.0092L90.0566 11.4714C92.496 12.4769 94.8143 13.5648 96.988 14.7381L97.2255 14.2982L97.463 13.8582C95.2554 12.6665 92.9053 11.564 90.4377 10.5469L90.2472 11.0092ZM103.763 18.4199L103.465 18.8215C104.506 19.5935 105.492 20.3938 106.418 21.223L106.751 20.8504L107.085 20.4778C106.134 19.6269 105.124 18.8073 104.06 18.0182L103.763 18.4199ZM106.751 20.8504L106.383 21.189C107.329 22.2161 108.243 23.2573 109.126 24.3121L109.51 23.991L109.893 23.6699C108.999 22.6033 108.075 21.5503 107.119 20.5118L106.751 20.8504ZM114.547 30.6021L114.136 30.8866C115.719 33.1745 117.183 35.514 118.537 37.8987L118.971 37.6519L119.406 37.405C118.038 34.9954 116.559 32.6307 114.959 30.3176L114.547 30.6021ZM122.772 45.0567L122.319 45.2666C123.48 47.7775 124.539 50.3286 125.505 52.9131L125.973 52.7381L126.441 52.563C125.467 49.9562 124.399 47.3818 123.226 44.8467L122.772 45.0567ZM128.619 60.6297L128.14 60.773C128.932 63.42 129.642 66.0936 130.279 68.7872L130.766 68.672L131.253 68.5567C130.61 65.8457 129.896 63.1533 129.098 60.4864L128.619 60.6297ZM132.478 76.8192L131.986 76.9102C132.49 79.6316 132.933 82.366 133.325 85.1066L133.82 85.0358L134.314 84.965C133.921 82.2123 133.476 79.4643 132.969 76.7282L132.478 76.8192ZM134.857 93.2979L134.36 93.3523C134.662 96.1137 134.923 98.8744 135.154 101.628L135.653 101.586L136.151 101.544C135.919 98.7837 135.657 96.0145 135.354 93.2435L134.857 93.2979ZM136.271 109.886L135.772 109.919C135.956 112.707 136.121 115.481 136.276 118.232L136.775 118.203L137.274 118.175C137.119 115.423 136.955 112.646 136.769 109.853L136.271 109.886ZM137.232 126.515L136.733 126.542C136.888 129.349 137.045 132.124 137.218 134.858L137.717 134.827L138.216 134.795C138.043 132.065 137.886 129.294 137.732 126.487L137.232 126.515ZM138.313 143.137L137.815 143.178C138.048 146.003 138.314 148.772 138.629 151.473L139.125 151.416L139.622 151.358C139.309 148.669 139.044 145.912 138.811 143.096L138.313 143.137ZM140.291 159.666L139.798 159.75C140.279 162.579 140.841 165.314 141.504 167.94L141.989 167.818L142.474 167.695C141.818 165.098 141.261 162.39 140.784 159.582L140.291 159.666ZM144.46 175.753L143.992 175.931C145.016 178.624 146.202 181.16 147.58 183.518L148.012 183.265L148.443 183.013C147.097 180.709 145.934 178.224 144.927 175.575L144.46 175.753ZM152.937 189.959L152.571 190.299C153.525 191.329 154.542 192.302 155.625 193.217L155.947 192.835L156.27 192.453C155.218 191.565 154.231 190.62 153.304 189.619L152.937 189.959ZM155.947 192.835L155.592 193.186C156.585 194.189 157.766 195.146 159.102 196.06L159.384 195.647L159.666 195.234C158.371 194.349 157.242 193.431 156.303 192.483L155.947 192.835ZM167.233 199.86L167.033 200.318C169.623 201.447 172.45 202.496 175.425 203.466L175.58 202.991L175.735 202.515C172.783 201.553 169.988 200.515 167.432 199.402L167.233 199.86ZM184.136 205.476L184.011 205.96C186.874 206.704 189.796 207.384 192.713 208.003L192.816 207.514L192.92 207.025C190.016 206.409 187.109 205.731 184.262 204.992L184.136 205.476ZM201.574 209.201L201.488 209.693C204.532 210.223 207.5 210.683 210.314 211.073L210.383 210.578L210.451 210.083C207.648 209.694 204.692 209.236 201.659 208.708L201.574 209.201Z" fill="#033F2D" fill-opacity="0.1"/>
</svg>
