<svg width="24" height="24" viewBox="0 0 24 24" fill="none" xmlns="http://www.w3.org/2000/svg">
<path d="M8.30762 11.0766H5.07682C4.69218 11.0766 4.36517 10.942 4.09592 10.6727C3.82681 10.4035 3.69208 10.0766 3.69208 9.69181V9.23048C3.69208 8.21119 4.05272 7.34107 4.77396 6.61983C5.49515 5.89884 6.36542 5.53819 7.38461 5.53819H8.30762C8.55758 5.53819 8.77384 5.44681 8.95662 5.26419C9.13929 5.08146 9.23063 4.8652 9.23063 4.61518V2.76886C9.23063 2.5189 9.13924 2.30243 8.95662 2.11971C8.7739 1.93724 8.55763 1.8457 8.30762 1.8457H7.38461C6.38451 1.8457 5.43039 2.0406 4.52163 2.42984C3.61297 2.81933 2.82701 3.34583 2.16347 4.00938C1.49997 4.67262 0.973626 5.45863 0.584185 6.36739C0.194745 7.27605 0 8.23043 0 9.23043V19.384C0 20.1537 0.269107 20.8072 0.807574 21.3458C1.34609 21.8842 2.00009 22.1534 2.76927 22.1534H8.30797C9.0771 22.1534 9.7309 21.8842 10.2695 21.3458C10.8078 20.8072 11.0771 20.1537 11.0771 19.384V13.8458C11.0771 13.0763 10.8078 12.4228 10.2691 11.8841C9.7308 11.3458 9.07675 11.0766 8.30762 11.0766Z" fill="#033F2D"/>
<path d="M23.1928 11.8841C22.6545 11.3458 22.0007 11.0766 21.2313 11.0766H18.0006C17.6161 11.0766 17.2888 10.942 17.02 10.6727C16.7507 10.4035 16.6162 10.0766 16.6162 9.69181V9.23048C16.6162 8.21119 16.9768 7.34107 17.6977 6.61983C18.4187 5.89884 19.2889 5.53819 20.3086 5.53819H21.2314C21.4814 5.53819 21.6978 5.44681 21.8804 5.26419C22.063 5.08146 22.1546 4.8652 22.1546 4.61518V2.76886C22.1546 2.5189 22.063 2.30243 21.8804 2.11971C21.6979 1.93724 21.4814 1.8457 21.2314 1.8457H20.3086C19.3079 1.8457 18.354 2.0406 17.445 2.42984C16.5365 2.81933 15.7508 3.34583 15.0872 4.00938C14.4237 4.67262 13.8971 5.45863 13.5078 6.36739C13.1185 7.27605 12.9235 8.23043 12.9235 9.23043V19.384C12.9235 20.1537 13.1928 20.8072 13.7311 21.3458C14.2695 21.8842 14.9234 22.1534 15.6926 22.1534H21.231C22.0004 22.1534 22.6542 21.8842 23.1925 21.3458C23.7312 20.8072 24 20.1537 24 19.384V13.8458C24 13.0763 23.7312 12.4228 23.1928 11.8841Z" fill="#033F2D"/>
</svg>
